<svg width="30" height="30" viewBox="0 0 30 30" fill="none" xmlns="http://www.w3.org/2000/svg">
<path d="M16.0713 5.075L23.4038 11.0962C23.8163 11.4337 24.0625 11.9537 24.0625 12.5087V23.5125C24.0625 24.53 23.265 25.3125 22.3338 25.3125H19.0625V19.375C19.0625 18.4633 18.7004 17.589 18.0557 16.9443C17.411 16.2997 16.5367 15.9375 15.625 15.9375H14.375C13.4633 15.9375 12.589 16.2997 11.9443 16.9443C11.2997 17.589 10.9375 18.4633 10.9375 19.375V25.3125H7.66626C6.73501 25.3125 5.93751 24.53 5.93751 23.5125V12.51C5.93751 11.9537 6.18376 11.435 6.59626 11.0975L13.9288 5.07375C14.2296 4.82344 14.6086 4.6864 15 4.6864C15.3914 4.6864 15.7704 4.82469 16.0713 5.075ZM22.3338 27.1862C24.3463 27.1862 25.9375 25.5175 25.9375 23.5112V12.5087C25.939 11.962 25.8192 11.4217 25.5868 10.9267C25.3545 10.4318 25.0153 9.99445 24.5938 9.64625L17.2625 3.625C16.6262 3.09925 15.8266 2.81165 15.0013 2.81165C14.1759 2.81165 13.3763 3.09925 12.74 3.625L5.40626 9.6475C4.98469 9.9957 4.64553 10.433 4.41318 10.928C4.18083 11.4229 4.06107 11.9632 4.06251 12.51V23.5125C4.06251 25.5187 5.65376 27.1875 7.66626 27.1875L22.3338 27.1862Z" fill="#9B8B5E"/>
</svg>
