<svg width="30" height="30" viewBox="0 0 30 30" fill="none" xmlns="http://www.w3.org/2000/svg">
<path fill-rule="evenodd" clip-rule="evenodd" d="M6.34869 6.33625C11.0924 1.59875 18.8049 1.64875 23.5774 6.4225C28.3524 11.1975 28.4024 18.9137 23.6574 23.6575C18.9124 28.4012 11.1974 28.3525 6.42244 23.5775C5.07915 22.24 4.06423 20.6093 3.45738 18.8135C2.85053 17.0177 2.66828 15.1056 2.92494 13.2275C2.95859 12.981 3.08877 12.758 3.28686 12.6075C3.48494 12.457 3.7347 12.3913 3.98119 12.425C4.22767 12.4586 4.45069 12.5888 4.60119 12.7869C4.75169 12.985 4.81733 13.2348 4.78369 13.4812C4.56579 15.0729 4.72003 16.6934 5.23429 18.2153C5.74855 19.7373 6.60881 21.1192 7.74744 22.2525C11.8037 26.3075 18.3324 26.3312 22.3324 22.3325C26.3312 18.3325 26.3074 11.8037 22.2524 7.7475C18.1987 3.695 11.6737 3.66875 7.67369 7.6625L8.60869 7.66625C8.7318 7.66682 8.85359 7.69164 8.96712 7.73928C9.08064 7.78693 9.18367 7.85647 9.27032 7.94393C9.35697 8.03139 9.42554 8.13506 9.47212 8.24902C9.5187 8.36299 9.54238 8.48501 9.54181 8.60812C9.54124 8.73124 9.51642 8.85303 9.46877 8.96655C9.42113 9.08008 9.35159 9.1831 9.26413 9.26975C9.17667 9.3564 9.073 9.42497 8.95903 9.47156C8.84507 9.51814 8.72305 9.54182 8.59994 9.54125L5.41744 9.52625C5.17031 9.52493 4.9337 9.42609 4.75907 9.25123C4.58444 9.07636 4.48592 8.83962 4.48494 8.5925L4.46869 5.4125C4.46803 5.28938 4.49163 5.16734 4.53814 5.05335C4.58464 4.93936 4.65315 4.83564 4.73974 4.74812C4.82633 4.6606 4.92931 4.59099 5.0428 4.54327C5.15629 4.49555 5.27807 4.47065 5.40119 4.47C5.5243 4.46934 5.64634 4.49294 5.76033 4.53945C5.87433 4.58595 5.97804 4.65446 6.06556 4.74105C6.15308 4.82764 6.22269 4.93062 6.27041 5.04411C6.31813 5.1576 6.34303 5.27938 6.34369 5.4025L6.34869 6.33625ZM14.9987 9.06125C15.2473 9.06125 15.4858 9.16002 15.6616 9.33583C15.8374 9.51165 15.9362 9.75011 15.9362 9.99875V14.6112L18.7874 17.4612C18.877 17.5477 18.9485 17.6511 18.9977 17.7655C19.0469 17.8798 19.0728 18.0028 19.0739 18.1273C19.0751 18.2518 19.0514 18.3752 19.0043 18.4905C18.9572 18.6057 18.8877 18.7104 18.7997 18.7985C18.7117 18.8865 18.6071 18.9562 18.4919 19.0034C18.3767 19.0506 18.2532 19.0744 18.1288 19.0733C18.0043 19.0723 17.8812 19.0465 17.7668 18.9974C17.6524 18.9484 17.549 18.877 17.4624 18.7875L14.0624 15.3875V10C14.0624 9.75136 14.1612 9.5129 14.337 9.33708C14.5128 9.16127 14.7513 9.0625 14.9999 9.0625" fill="#9B8B5E"/>
</svg>
