<svg width="30" height="30" viewBox="0 0 30 30" fill="none" xmlns="http://www.w3.org/2000/svg">
<path d="M10 3.75C10.9946 3.75 11.9484 4.14509 12.6517 4.84835C13.3549 5.55161 13.75 6.50544 13.75 7.5V8.75C13.75 9.74456 13.3549 10.6984 12.6517 11.4017C11.9484 12.1049 10.9946 12.5 10 12.5H7.5C6.50544 12.5 5.55161 12.1049 4.84835 11.4017C4.14509 10.6984 3.75 9.74456 3.75 8.75V7.5C3.75 6.50544 4.14509 5.55161 4.84835 4.84835C5.55161 4.14509 6.50544 3.75 7.5 3.75H10ZM10 15C10.9946 15 11.9484 15.3951 12.6517 16.0983C13.3549 16.8016 13.75 17.7554 13.75 18.75V22.5C13.75 23.4946 13.3549 24.4484 12.6517 25.1517C11.9484 25.8549 10.9946 26.25 10 26.25H7.5C6.50544 26.25 5.55161 25.8549 4.84835 25.1517C4.14509 24.4484 3.75 23.4946 3.75 22.5V18.75C3.75 17.7554 4.14509 16.8016 4.84835 16.0983C5.55161 15.3951 6.50544 15 7.5 15H10ZM22.5 3.75C23.4946 3.75 24.4484 4.14509 25.1517 4.84835C25.8549 5.55161 26.25 6.50544 26.25 7.5V11.25C26.25 12.2446 25.8549 13.1984 25.1517 13.9017C24.4484 14.6049 23.4946 15 22.5 15H20C19.0054 15 18.0516 14.6049 17.3483 13.9017C16.6451 13.1984 16.25 12.2446 16.25 11.25V7.5C16.25 6.50544 16.6451 5.55161 17.3483 4.84835C18.0516 4.14509 19.0054 3.75 20 3.75H22.5ZM22.5 17.5C23.4946 17.5 24.4484 17.8951 25.1517 18.5983C25.8549 19.3016 26.25 20.2554 26.25 21.25V22.5C26.25 23.4946 25.8549 24.4484 25.1517 25.1517C24.4484 25.8549 23.4946 26.25 22.5 26.25H20C19.0054 26.25 18.0516 25.8549 17.3483 25.1517C16.6451 24.4484 16.25 23.4946 16.25 22.5V21.25C16.25 20.2554 16.6451 19.3016 17.3483 18.5983C18.0516 17.8951 19.0054 17.5 20 17.5H22.5Z" fill="black"/>
</svg>
