<svg width="30" height="30" viewBox="0 0 30 30" fill="none" xmlns="http://www.w3.org/2000/svg">
<path d="M7.23215 3.21436C6.16655 3.21436 5.14459 3.63766 4.3911 4.39116C3.6376 5.14465 3.21429 6.16661 3.21429 7.23221V14.1965H26.7857V7.23221C26.7857 6.16661 26.3624 5.14465 25.6089 4.39116C24.8554 3.63766 23.8335 3.21436 22.7679 3.21436H7.23215ZM26.7857 15.8036H3.21429V22.7679C3.21429 23.8335 3.6376 24.8555 4.3911 25.609C5.14459 26.3625 6.16655 26.7858 7.23215 26.7858H22.7679C23.8335 26.7858 24.8554 26.3625 25.6089 25.609C26.3624 24.8555 26.7857 23.8335 26.7857 22.7679V15.8036Z" fill="black"/>
</svg>
