<svg width="30" height="30" viewBox="0 0 30 30" fill="none" xmlns="http://www.w3.org/2000/svg">
<path fill-rule="evenodd" clip-rule="evenodd" d="M6.34875 6.33625C11.0925 1.59875 18.805 1.64875 23.5775 6.4225C28.3525 11.1975 28.4025 18.9137 23.6575 23.6575C18.9125 28.4012 11.1975 28.3525 6.4225 23.5775C5.07921 22.24 4.06429 20.6093 3.45744 18.8135C2.85059 17.0177 2.66834 15.1056 2.925 13.2275C2.95865 12.981 3.08883 12.758 3.28692 12.6075C3.485 12.457 3.73476 12.3913 3.98125 12.425C4.22773 12.4586 4.45076 12.5888 4.60125 12.7869C4.75175 12.985 4.8174 13.2348 4.78375 13.4812C4.56585 15.0729 4.7201 16.6934 5.23435 18.2153C5.74861 19.7373 6.60887 21.1192 7.7475 22.2525C11.8037 26.3075 18.3325 26.3312 22.3325 22.3325C26.3312 18.3325 26.3075 11.8037 22.2525 7.7475C18.1987 3.695 11.6737 3.66875 7.67375 7.6625L8.60875 7.66625C8.73186 7.66682 8.85366 7.69164 8.96718 7.73928C9.0807 7.78693 9.18373 7.85647 9.27038 7.94393C9.35703 8.03139 9.4256 8.13506 9.47218 8.24902C9.51877 8.36299 9.54245 8.48501 9.54187 8.60812C9.5413 8.73124 9.51648 8.85303 9.46883 8.96655C9.42119 9.08008 9.35165 9.1831 9.26419 9.26975C9.17673 9.3564 9.07306 9.42497 8.95909 9.47156C8.84513 9.51814 8.72311 9.54182 8.6 9.54125L5.4175 9.52625C5.17037 9.52493 4.93376 9.42609 4.75913 9.25123C4.5845 9.07636 4.48598 8.83962 4.485 8.5925L4.46875 5.4125C4.46809 5.28938 4.49169 5.16734 4.5382 5.05335C4.5847 4.93936 4.65321 4.83564 4.7398 4.74812C4.82639 4.6606 4.92937 4.59099 5.04286 4.54327C5.15635 4.49555 5.27813 4.47065 5.40125 4.47C5.52436 4.46934 5.6464 4.49294 5.76039 4.53945C5.87439 4.58595 5.9781 4.65446 6.06562 4.74105C6.15314 4.82764 6.22275 4.93062 6.27047 5.04411C6.31819 5.1576 6.34309 5.27938 6.34375 5.4025L6.34875 6.33625ZM14.9987 9.06125C15.2474 9.06125 15.4858 9.16002 15.6617 9.33583C15.8375 9.51165 15.9362 9.75011 15.9362 9.99875V14.6112L18.7875 17.4612C18.8771 17.5477 18.9485 17.6511 18.9977 17.7655C19.0469 17.8798 19.0728 18.0028 19.074 18.1273C19.0751 18.2518 19.0515 18.3752 19.0044 18.4905C18.9573 18.6057 18.8877 18.7104 18.7997 18.7985C18.7118 18.8865 18.6071 18.9562 18.4919 19.0034C18.3767 19.0506 18.2533 19.0744 18.1288 19.0733C18.0043 19.0723 17.8813 19.0465 17.7669 18.9974C17.6525 18.9484 17.549 18.877 17.4625 18.7875L14.0625 15.3875V10C14.0625 9.75136 14.1613 9.5129 14.3371 9.33708C14.5129 9.16127 14.7514 9.0625 15 9.0625" fill="black"/>
</svg>
