<svg width="210" height="218" viewBox="0 0 210 218" fill="none" xmlns="http://www.w3.org/2000/svg">
<g clip-path="url(#clip0_15_49)">
<path fill-rule="evenodd" clip-rule="evenodd" d="M207.03 66.6925C206.875 66.5634 206.507 66.5178 206.336 66.4789C205.624 66.3185 204.891 66.2487 204.165 66.2487C201.927 66.2527 199.653 66.5039 197.453 66.9388C196.056 67.2146 194.367 68.1439 192.977 67.6392C190.556 66.7601 188.109 66.8033 185.812 68.0584C183.712 69.206 182.117 71.3858 181.187 73.7409C181.046 74.0966 180.477 75.4052 180.316 76.2873C180.247 76.4677 180.181 76.649 180.121 76.8334C179.952 77.3568 179.8 77.8891 179.658 78.4228C179.598 78.6504 179.446 79.1529 179.626 79.25C179.339 79.8579 179.083 80.4841 178.871 81.1307C178.253 83.0113 177.577 85.0743 177.36 87.0673C177.28 87.8054 177.276 88.5477 177.351 89.287C177.388 89.6527 177.373 90.3874 177.589 90.6656C178.049 91.2552 178.285 90.4297 178.233 90.0364C177.838 87.0397 178.602 84.2254 179.507 81.4085C180.093 79.5871 181.055 77.9204 182.133 76.4114C183.005 75.1896 183.941 74.2277 185.137 73.4178C186.599 72.4273 188.163 71.6267 189.711 70.8235C190.73 70.2951 191.75 69.7807 192.797 69.3255C193.03 69.224 193.396 68.9641 193.655 68.9631C194.201 68.9611 194.975 69.422 195.502 69.5933C197.237 70.1577 198.993 70.88 200.786 71.1682C201.936 71.3532 203.014 71.1449 204.089 70.7067C204.199 70.6621 204.383 70.547 204.609 70.3826C205.407 70.0312 206.163 69.589 206.82 68.9508C207.199 68.5835 207.543 68.1083 207.857 67.6734C207.95 67.5437 207.992 67.3946 207.993 67.2529C208.064 67.2106 208.111 67.1607 208.122 67.1028C208.2 66.6749 207.487 66.6672 207.03 66.6925Z" fill="#9B8B5E"/>
<path fill-rule="evenodd" clip-rule="evenodd" d="M25.2592 102.364C24.8202 102.771 24.3896 103.186 23.9696 103.618C23.6494 103.948 23.0829 104.342 22.968 104.841C22.8485 105.36 23.2257 105.845 23.5236 106.159C25.0992 107.817 26.8733 108.938 29.0566 109.125C32.4182 109.412 35.3438 108.43 38.2606 106.498C40.3094 105.14 41.6665 103.132 41.9629 100.421C44.4029 101.581 46.7626 103.18 48.7681 105.143C49.7576 106.111 50.6098 107.184 51.398 108.373C51.9029 109.135 52.3913 109.909 52.8444 110.713C53.0413 111.062 53.2417 111.681 53.5669 111.882C53.9488 112.118 54.4104 111.748 54.3915 111.263C54.3755 110.858 53.9942 110.39 53.8156 110.059C53.5195 109.51 53.2188 108.965 52.902 108.432C52.3895 107.568 51.8599 106.716 51.2822 105.908C49.9839 104.091 48.3321 102.591 46.6198 101.311C43.3349 98.8559 39.7297 97.3093 35.7328 97.1782C33.2751 97.0977 31.2076 98.0583 29.1059 99.4928C27.7973 100.386 26.4466 101.264 25.2592 102.364Z" fill="#F1CB5C"/>
<path fill-rule="evenodd" clip-rule="evenodd" d="M57.1398 90.4902C54.5785 87.473 52.0085 84.4933 49.147 81.8361C47.4607 80.2705 45.6835 78.8467 43.9431 77.3624C44.1437 77.5637 44.3407 77.7707 44.5329 77.983C43.9896 77.5611 43.2785 77.3225 42.7026 76.9318C42.0601 76.4963 41.4458 75.9979 40.8434 75.4958C39.6675 74.5155 38.5093 73.5166 37.3005 72.5876C35.9538 71.5525 34.5582 70.5962 33.1886 69.6C32.0262 68.7548 30.8496 67.8295 29.606 67.1384C28.9283 66.7617 28.2489 66.3155 27.5684 65.9226C27.3406 65.7911 25.0296 64.1218 25.0354 64.1165C25.1631 64.0067 26.3261 64.6316 26.506 64.7157C27.0313 64.9613 27.5338 65.2548 28.0389 65.5476C27.7616 64.922 27.5422 64.2645 27.4227 63.5728C27.3858 63.3592 27.0901 61.8046 27.2414 61.6742C27.317 61.609 28.0543 64.3907 28.0921 64.6578C28.1228 64.8751 28.1182 65.1879 28.1804 65.3935C28.2807 65.7259 28.2757 65.6254 28.4968 65.8128C28.9019 66.1558 29.4398 66.3701 29.8783 66.6566C30.1147 66.8077 30.8469 67.4066 31.2879 67.5773C32.6222 68.3186 33.9746 69.4592 35.2424 70.4062C34.9097 69.6908 34.6565 68.9428 34.4718 68.1589C34.4279 67.9729 33.954 66.3036 34.069 66.2044C34.1984 66.0926 35.1012 68.6427 35.1547 68.8839C35.2541 69.3325 35.2747 69.8312 35.3992 70.2678C35.5356 70.7466 35.9617 70.9163 36.3456 71.1955C37.7583 72.2223 39.1227 73.3133 40.4641 74.4546C41.928 71.4763 40.2402 67.8801 38.8179 65.3812C37.7923 63.5801 36.4122 62.0362 34.9546 60.6883C33.0096 58.8892 30.7841 57.4521 28.5615 56.1374C25.9716 54.6059 23.1724 53.6566 20.2622 53.2183C18.7402 52.9888 17.183 52.9954 15.6456 53.0689C14.8946 53.1045 14.1737 53.2183 13.454 53.4988C13.1296 53.6253 12.8161 53.7847 12.5106 53.963C12.2784 54.0984 11.7169 54.2415 11.5834 54.4435C10.4848 56.0795 9.92273 57.7096 10.0086 59.7653C10.0897 61.7111 10.6269 63.658 11.356 65.3939C12.1679 67.3264 13.2121 69.0806 14.5779 70.5529C15.6198 71.6763 16.7847 72.6538 17.9419 73.6188C22.0579 77.0503 27.2762 80.035 32.607 79.268C34.3326 79.0201 35.9739 78.3297 37.5076 77.3914C37.8691 77.1704 38.2283 76.9468 38.5695 76.686C38.7996 76.5099 39.4144 75.717 39.6457 75.6881C39.963 75.6488 40.6459 76.3865 40.9435 76.6111C43.2046 78.3187 45.4063 80.1188 47.5619 81.9914C49.8556 83.9839 52.0364 86.1121 54.1533 88.3401C55.0535 89.2877 55.9481 90.2377 56.8222 91.2172C57.0258 91.4452 57.5234 92.2843 57.8925 92.3223C58.1258 92.3466 58.2831 92.1183 58.25 91.8714C58.1921 91.4418 57.4021 90.7993 57.1398 90.4902Z" fill="#BEAA71"/>
<path fill-rule="evenodd" clip-rule="evenodd" d="M204.341 78.7795C203.349 78.5316 202.254 78.5506 201.243 78.5709C195.823 78.6554 190.501 81.5908 187.038 86.2811C184.089 90.2739 183.278 95.2384 182.696 100.257C182.638 100.755 182.613 101.25 182.581 101.749C182.574 101.857 182.563 101.952 182.552 102.042C182.323 102.276 182.203 102.55 182.339 102.85C181.834 104.113 181.407 105.408 181.04 106.745C179.962 110.678 178.866 114.686 179.541 118.821C179.699 116.545 180.031 114.218 180.428 111.979C180.451 111.851 180.476 111.723 180.501 111.596C180.504 111.583 180.506 111.569 180.509 111.556C180.65 110.871 180.832 110.206 181.054 109.551C181.057 109.544 181.059 109.537 181.061 109.53C181.091 109.444 181.122 109.358 181.153 109.273C181.216 109.095 181.282 108.918 181.351 108.742C181.375 108.682 181.397 108.621 181.419 108.56C181.742 107.653 181.879 106.631 182.169 105.693C182.238 105.48 182.31 105.267 182.386 105.055C182.391 105.043 182.395 105.031 182.4 105.019C182.605 104.449 182.832 103.887 183.072 103.331C183.202 103.219 183.272 102.941 183.384 102.688C183.407 102.638 183.589 102.307 183.643 102.115C183.784 101.803 183.925 101.49 184.067 101.178C184.063 101.18 184.059 101.182 184.054 101.184C184.197 100.884 184.339 100.586 184.481 100.289C184.512 100.224 184.544 100.159 184.575 100.093C184.626 99.9889 184.677 99.8847 184.727 99.7809C185.202 98.809 185.705 97.8567 186.228 96.916C186.415 96.5803 186.86 96.0988 186.946 95.7222C186.949 95.7079 186.95 95.6949 186.952 95.6816C188.086 93.8588 189.392 92.1779 190.958 90.8459C190.769 91.0802 190.366 91.8744 190.26 92.0318C189.934 92.5133 189.581 92.9614 189.226 93.4153C188.591 94.2282 187.971 95.0667 187.419 95.9534C186.411 97.5752 185.542 99.2818 184.72 101.023C184.712 101.033 184.703 101.043 184.696 101.053C184.283 101.636 184.023 102.516 183.726 103.183C184.902 102.559 186.204 102.153 187.412 101.599C188.616 101.047 189.788 100.432 190.919 99.7107C192.423 98.7511 193.983 97.668 195.403 96.4422C197.031 95.2869 198.399 93.6968 199.607 92.0281C201.036 90.0537 202.345 88.0622 203.155 85.6649C203.553 84.487 203.866 83.2585 204.051 82.0157C204.059 81.9618 204.07 81.9029 204.081 81.842C204.271 81.4128 204.44 80.9739 204.583 80.5251C204.809 79.813 205.343 79.0297 204.341 78.7795Z" fill="#BEAA71"/>
<path fill-rule="evenodd" clip-rule="evenodd" d="M36.2345 87.1209C35.9239 86.7359 35.5748 86.3886 35.1649 86.1407C35.0613 86.0781 34.2895 85.6589 34.2392 85.7507C34.1221 85.965 36.1411 86.9978 36.2345 87.1209ZM39.894 84.5492C39.8914 84.5655 40.159 85.0849 40.232 85.2446C40.387 85.5843 40.5301 85.9304 40.6648 86.2774C40.4656 85.6649 40.2605 85.0965 39.894 84.5492ZM21.1789 88.778C20.9212 88.8728 20.6113 88.4985 20.9456 88.4063C21.2161 88.3324 21.2029 88.3151 21.3243 88.0656C21.423 87.8633 21.4837 87.6164 21.5703 87.4041C21.7539 86.9535 21.9621 86.5237 22.2178 86.121C22.7656 85.2579 23.4331 84.5143 24.1818 83.8874C25.4883 82.794 26.9533 81.7941 28.5073 81.292C30.9781 80.4935 33.7903 80.4442 36.265 80.9979C37.7978 81.3406 39.1983 81.9369 40.216 83.3487C40.7247 84.0541 41.1241 84.8806 41.2986 85.7906C41.3443 86.0285 41.3355 86.2931 41.3925 86.526C41.4804 86.8843 41.4417 86.7888 41.8079 86.8584C42.2075 86.9346 42.6069 87.0121 43.0062 87.0913C44.0518 87.2983 45.1036 87.5179 46.1224 87.8536C46.4578 87.9641 46.7856 88.0992 47.1061 88.2559C47.3484 88.3743 48.3132 88.7467 48.4304 89.1067C48.6255 89.7059 47.9717 89.4344 47.7684 89.3037C47.5904 89.1895 47.4077 89.0827 47.2225 88.9846C46.7556 88.7377 46.2693 88.5464 45.772 88.3943C45.2345 88.2299 44.6862 88.1071 44.1397 87.984C43.6304 87.8696 43.1191 87.7654 42.6069 87.6656C42.3224 87.6104 42.0379 87.5565 41.7532 87.5029C41.6558 87.4843 41.4844 87.3881 41.4972 87.5328C40.8987 87.4008 40.2515 87.4197 39.6419 87.3834C38.8952 87.3389 38.1457 87.3023 37.3965 87.3289C36.8561 87.3482 36.3154 87.3888 35.7776 87.472C35.4634 87.5205 35.1543 87.5914 34.8461 87.6812C34.6768 87.7308 34.0092 87.8356 33.9169 88.0043C33.9565 87.9318 34.6934 88.0023 34.7872 87.998C35.1623 87.982 35.5344 87.9394 35.9082 87.8919C36.6018 87.803 37.2955 87.7568 37.9913 87.7634C37.9886 87.9032 37.5134 88.1521 37.3973 88.2446C37.1373 88.4525 36.8881 88.6788 36.6557 88.9273C36.2464 89.3649 35.756 89.9069 35.473 90.4257C35.5565 90.2726 35.9681 90.074 36.1141 89.9572C36.3482 89.7702 36.5777 89.5705 36.7947 89.3572C36.9948 89.1603 37.1818 88.9473 37.3656 88.73C37.5495 88.5128 37.7987 88.0606 38.0404 87.9158C38.055 87.9068 38.1603 88.002 38.2199 87.9697C38.2804 87.9371 38.3554 87.7741 38.3705 87.7674C38.5954 87.6683 39.0224 87.7917 39.2588 87.8044C39.8717 87.8366 40.4842 87.8789 41.0964 87.9175C41.2864 87.9295 41.4475 87.8799 41.5194 88.0399C41.5956 88.211 41.4557 88.6598 41.4158 88.8458C41.2681 89.5366 41.006 90.1558 40.593 90.6912C39.8199 91.6937 38.8662 92.3619 37.7891 92.8091C33.6635 94.5213 29.2744 95.2071 25.15 93.426C23.4425 92.6883 20.871 91.3706 21.1789 88.778Z" fill="#9B8B5E"/>
<g opacity="0.6">
<path fill-rule="evenodd" clip-rule="evenodd" d="M210.08 169.448C212.887 191.183 144.819 205.361 86.2327 195.467C27.6456 185.573 0.768658 146.935 28.7254 126.348C56.6823 105.76 207.273 147.712 210.08 169.448Z" fill="#F1CB5C"/>
</g>
<path d="M90.3314 26.9857H48.739C47.4539 26.9857 46.4121 28.1775 46.4121 29.6476V124.81C46.4121 126.28 47.4539 127.472 48.739 127.472H90.3314C91.6165 127.472 92.6582 126.28 92.6582 124.81V29.6476C92.6582 28.1775 91.6165 26.9857 90.3314 26.9857Z" fill="#F2F2F2"/>
<path fill-rule="evenodd" clip-rule="evenodd" d="M69.3898 121.15C71.7992 121.15 73.7526 118.916 73.7526 116.159C73.7526 113.403 71.7992 111.168 69.3898 111.168C66.9803 111.168 65.0269 113.403 65.0269 116.159C65.0269 118.916 66.9803 121.15 69.3898 121.15Z" fill="white"/>
<path fill-rule="evenodd" clip-rule="evenodd" d="M65.6086 33.6405C65.93 33.6405 66.1903 33.3425 66.1903 32.975C66.1903 32.6074 65.93 32.3095 65.6086 32.3095C65.2872 32.3095 65.0269 32.6074 65.0269 32.975C65.0269 33.3425 65.2872 33.6405 65.6086 33.6405Z" fill="white"/>
<path d="M73.1709 32.3095H68.2263C67.905 32.3095 67.6446 32.6075 67.6446 32.975C67.6446 33.3425 67.905 33.6405 68.2263 33.6405H73.1709C73.4921 33.6405 73.7526 33.3425 73.7526 32.975C73.7526 32.6075 73.4921 32.3095 73.1709 32.3095Z" fill="white"/>
<path d="M87.4228 36.3024H51.6476C51.005 36.3024 50.4841 36.8982 50.4841 37.6333V52.9392C50.4841 53.6743 51.005 54.2702 51.6476 54.2702H87.4228C88.0654 54.2702 88.5863 53.6743 88.5863 52.9392V37.6333C88.5863 36.8982 88.0654 36.3024 87.4228 36.3024Z" fill="white"/>
<mask id="mask0_15_49" style="mask-type:luminance" maskUnits="userSpaceOnUse" x="61" y="41" width="23" height="8">
<path d="M83.06 41.6927H61.8275V48.8798H83.06V41.6927Z" fill="white"/>
</mask>
<g mask="url(#mask0_15_49)">
<path d="M82.1874 41.6927H62.7001C62.2181 41.6927 61.8275 42.1396 61.8275 42.6909V43.3896C61.8275 43.9409 62.2181 44.3879 62.7001 44.3879H82.1874C82.6693 44.3879 83.06 43.9409 83.06 43.3896V42.6909C83.06 42.1396 82.6693 41.6927 82.1874 41.6927Z" fill="#F1CB5C"/>
<path d="M75.2069 46.1846H62.7001C62.2181 46.1846 61.8275 46.6315 61.8275 47.1828V47.8816C61.8275 48.4329 62.2181 48.8798 62.7001 48.8798H75.2069C75.6888 48.8798 76.0794 48.4329 76.0794 47.8816V47.1828C76.0794 46.6315 75.6888 46.1846 75.2069 46.1846Z" fill="#F1CB5C"/>
</g>
<path fill-rule="evenodd" clip-rule="evenodd" d="M56.5921 49.2791C58.5196 49.2791 60.0824 47.4913 60.0824 45.2863C60.0824 43.0812 58.5196 41.2934 56.5921 41.2934C54.6646 41.2934 53.1018 43.0812 53.1018 45.2863C53.1018 47.4913 54.6646 49.2791 56.5921 49.2791Z" fill="#BEAA71"/>
<path d="M87.4228 56.932H51.6476C51.005 56.932 50.4841 57.5279 50.4841 58.263V69.576C50.4841 70.3111 51.005 70.907 51.6476 70.907H87.4228C88.0654 70.907 88.5863 70.3111 88.5863 69.576V58.263C88.5863 57.5279 88.0654 56.932 87.4228 56.932Z" fill="white"/>
<mask id="mask1_15_49" style="mask-type:luminance" maskUnits="userSpaceOnUse" x="61" y="61" width="23" height="6">
<path d="M83.06 61.1246H61.8275V66.7145H83.06V61.1246Z" fill="white"/>
</mask>
<g mask="url(#mask1_15_49)">
<path d="M82.1874 61.1246H62.7001C62.2181 61.1246 61.8275 61.5715 61.8275 62.1228V62.2226C61.8275 62.7739 62.2181 63.2208 62.7001 63.2208H82.1874C82.6693 63.2208 83.06 62.7739 83.06 62.2226V62.1228C83.06 61.5715 82.6693 61.1246 82.1874 61.1246Z" fill="#F1CB5C"/>
<path d="M75.2069 64.6182H62.7001C62.2181 64.6182 61.8275 65.0652 61.8275 65.6165V65.7163C61.8275 66.2676 62.2181 66.7145 62.7001 66.7145H75.2069C75.6888 66.7145 76.0794 66.2676 76.0794 65.7163V65.6165C76.0794 65.0652 75.6888 64.6182 75.2069 64.6182Z" fill="#F1CB5C"/>
</g>
<path fill-rule="evenodd" clip-rule="evenodd" d="M56.5921 67.9124C58.5196 67.9124 60.0824 66.1246 60.0824 63.9195C60.0824 61.7145 58.5196 59.9267 56.5921 59.9267C54.6646 59.9267 53.1018 61.7145 53.1018 63.9195C53.1018 66.1246 54.6646 67.9124 56.5921 67.9124Z" fill="#BEAA71"/>
<path d="M87.4228 73.5689H51.6476C51.005 73.5689 50.4841 74.1647 50.4841 74.8998V86.2129C50.4841 86.9479 51.005 87.5438 51.6476 87.5438H87.4228C88.0654 87.5438 88.5863 86.9479 88.5863 86.2129V74.8998C88.5863 74.1647 88.0654 73.5689 87.4228 73.5689Z" fill="white"/>
<mask id="mask2_15_49" style="mask-type:luminance" maskUnits="userSpaceOnUse" x="61" y="77" width="23" height="7">
<path d="M83.06 77.7614H61.8275V83.3514H83.06V77.7614Z" fill="white"/>
</mask>
<g mask="url(#mask2_15_49)">
<path d="M82.1874 77.7614H62.7001C62.2181 77.7614 61.8275 78.2083 61.8275 78.7596V78.8594C61.8275 79.4107 62.2181 79.8576 62.7001 79.8576H82.1874C82.6693 79.8576 83.06 79.4107 83.06 78.8594V78.7596C83.06 78.2083 82.6693 77.7614 82.1874 77.7614Z" fill="#F1CB5C"/>
<path d="M75.2069 81.2551H62.7001C62.2181 81.2551 61.8275 81.702 61.8275 82.2533V82.3531C61.8275 82.9044 62.2181 83.3514 62.7001 83.3514H75.2069C75.6888 83.3514 76.0794 82.9044 76.0794 82.3531V82.2533C76.0794 81.702 75.6888 81.2551 75.2069 81.2551Z" fill="#F1CB5C"/>
</g>
<path fill-rule="evenodd" clip-rule="evenodd" d="M56.5921 84.5492C58.5196 84.5492 60.0824 82.7614 60.0824 80.5564C60.0824 78.3513 58.5196 76.5635 56.5921 76.5635C54.6646 76.5635 53.1018 78.3513 53.1018 80.5564C53.1018 82.7614 54.6646 84.5492 56.5921 84.5492Z" fill="#BEAA71"/>
<path d="M87.4228 90.2058H51.6476C51.005 90.2058 50.4841 90.8017 50.4841 91.5367V102.85C50.4841 103.585 51.005 104.181 51.6476 104.181H87.4228C88.0654 104.181 88.5863 103.585 88.5863 102.85V91.5367C88.5863 90.8017 88.0654 90.2058 87.4228 90.2058Z" fill="white"/>
<mask id="mask3_15_49" style="mask-type:luminance" maskUnits="userSpaceOnUse" x="61" y="94" width="23" height="6">
<path d="M83.06 94.3983H61.8275V99.9882H83.06V94.3983Z" fill="white"/>
</mask>
<g mask="url(#mask3_15_49)">
<path d="M82.1874 94.3983H62.7001C62.2181 94.3983 61.8275 94.8452 61.8275 95.3965V95.4963C61.8275 96.0476 62.2181 96.4945 62.7001 96.4945H82.1874C82.6693 96.4945 83.06 96.0476 83.06 95.4963V95.3965C83.06 94.8452 82.6693 94.3983 82.1874 94.3983Z" fill="#F1CB5C"/>
<path d="M75.2069 97.892H62.7001C62.2181 97.892 61.8275 98.3389 61.8275 98.8902V98.99C61.8275 99.5413 62.2181 99.9882 62.7001 99.9882H75.2069C75.6888 99.9882 76.0794 99.5413 76.0794 98.99V98.8902C76.0794 98.3389 75.6888 97.892 75.2069 97.892Z" fill="#F1CB5C"/>
</g>
<path fill-rule="evenodd" clip-rule="evenodd" d="M56.5921 101.186C58.5196 101.186 60.0824 99.3983 60.0824 97.1933C60.0824 94.9882 58.5196 93.2004 56.5921 93.2004C54.6646 93.2004 53.1018 94.9882 53.1018 97.1933C53.1018 99.3983 54.6646 101.186 56.5921 101.186Z" fill="#BEAA71"/>
<path fill-rule="evenodd" clip-rule="evenodd" d="M55.1786 108.174C54.7932 108.174 54.409 108.183 54.0242 108.205C53.7307 108.223 53.2825 108.153 53.0344 108.363C52.7764 108.58 52.7942 109.024 52.8346 109.338C53.0475 110.999 53.5673 112.472 54.6548 113.649C56.3292 115.461 58.2486 116.382 60.5199 116.791C62.1155 117.08 63.5884 116.68 64.7629 115.382C65.6212 117.204 66.2721 119.22 66.5988 121.255C66.7599 122.259 66.8091 123.252 66.7808 124.274C66.7625 124.929 66.7311 125.582 66.6697 126.234C66.643 126.517 66.5167 126.946 66.6136 127.214C66.7273 127.528 67.111 127.558 67.2832 127.29C67.4265 127.067 67.4004 126.629 67.4297 126.365C67.4786 125.927 67.5237 125.488 67.556 125.047C67.6086 124.334 67.6473 123.619 67.6447 122.903C67.638 121.295 67.3253 119.681 66.8978 118.154C66.0776 115.225 64.7469 112.622 62.6772 110.58C61.4044 109.324 59.9478 108.815 58.2954 108.542C57.2664 108.372 56.2207 108.174 55.1786 108.174Z" fill="#9B8B5E"/>
<path fill-rule="evenodd" clip-rule="evenodd" d="M61.121 119.819C56.9621 119.819 54.1611 123.654 52.8368 127.639C52.3374 129.141 52.2205 130.791 52.028 132.368C51.9663 132.875 51.9893 133.646 51.8095 134.097C51.7444 134.26 51.5949 134.319 51.6664 134.542C51.7098 134.677 51.7944 134.76 51.9221 134.786C52.1836 134.841 52.5536 134.515 52.7778 134.387C54.6381 133.32 55.8603 131.669 56.8573 129.65C57.4757 128.399 58.1028 127.099 58.4699 125.725C58.6941 124.886 58.8247 124.002 58.9015 123.131C58.9317 122.788 58.9608 122.437 58.9591 122.093C58.9573 121.75 58.818 121.569 58.718 121.271C60.1056 120.671 61.6722 120.507 63.0779 121.129C64.378 121.705 65.458 122.818 66.0627 124.217C66.2197 124.58 66.341 124.963 66.4291 125.355C66.487 125.611 66.4896 125.943 66.597 126.175C66.8564 126.736 67.4026 126.361 67.3503 125.838C67.204 124.381 66.4751 122.917 65.5432 121.903C64.3678 120.625 62.7751 119.819 61.121 119.819Z" fill="#9B8B5E"/>
<path d="M109.528 35.6368H67.9355C66.6504 35.6368 65.6086 36.8286 65.6086 38.2987V133.462C65.6086 134.932 66.6504 136.123 67.9355 136.123H109.528C110.813 136.123 111.855 134.932 111.855 133.462V38.2987C111.855 36.8286 110.813 35.6368 109.528 35.6368Z" fill="#F1CB5C"/>
<path fill-rule="evenodd" clip-rule="evenodd" d="M88.5863 129.801C90.9957 129.801 92.9491 127.567 92.9491 124.81C92.9491 122.054 90.9957 119.819 88.5863 119.819C86.1768 119.819 84.2234 122.054 84.2234 124.81C84.2234 127.567 86.1768 129.801 88.5863 129.801Z" fill="white"/>
<path fill-rule="evenodd" clip-rule="evenodd" d="M84.8051 42.2916C85.1265 42.2916 85.3868 41.9938 85.3868 41.6262C85.3868 41.2585 85.1265 40.9607 84.8051 40.9607C84.4837 40.9607 84.2234 41.2585 84.2234 41.6262C84.2234 41.9938 84.4837 42.2916 84.8051 42.2916Z" fill="white"/>
<path d="M92.3674 40.9607H87.4228C87.1016 40.9607 86.8411 41.2586 86.8411 41.6262C86.8411 41.9937 87.1016 42.2916 87.4228 42.2916H92.3674C92.6887 42.2916 92.9491 41.9937 92.9491 41.6262C92.9491 41.2586 92.6887 40.9607 92.3674 40.9607Z" fill="white"/>
<path d="M106.619 44.9535H70.8441C70.2015 44.9535 69.6807 45.5494 69.6807 46.2844V61.5903C69.6807 62.3254 70.2015 62.9213 70.8441 62.9213H106.619C107.262 62.9213 107.783 62.3254 107.783 61.5903V46.2844C107.783 45.5494 107.262 44.9535 106.619 44.9535Z" fill="white"/>
<mask id="mask4_15_49" style="mask-type:luminance" maskUnits="userSpaceOnUse" x="72" y="50" width="22" height="8">
<path d="M93.5308 50.3438H72.2983V57.5309H93.5308V50.3438Z" fill="white"/>
</mask>
<g mask="url(#mask4_15_49)">
<path d="M92.6583 50.3438H73.1709C72.689 50.3438 72.2983 50.7907 72.2983 51.342V52.0408C72.2983 52.5921 72.689 53.039 73.1709 53.039H92.6583C93.1402 53.039 93.5308 52.5921 93.5308 52.0408V51.342C93.5308 50.7907 93.1402 50.3438 92.6583 50.3438Z" fill="#F1CB5C"/>
<path d="M85.6777 54.8358H73.1709C72.689 54.8358 72.2983 55.2827 72.2983 55.834V56.5327C72.2983 57.084 72.689 57.531 73.1709 57.531H85.6777C86.1596 57.531 86.5503 57.084 86.5503 56.5327V55.834C86.5503 55.2827 86.1596 54.8358 85.6777 54.8358Z" fill="#F1CB5C"/>
</g>
<path fill-rule="evenodd" clip-rule="evenodd" d="M103.711 56.2665C104.835 56.2665 105.747 55.2237 105.747 53.9374C105.747 52.651 104.835 51.6082 103.711 51.6082C102.586 51.6082 101.675 52.651 101.675 53.9374C101.675 55.2237 102.586 56.2665 103.711 56.2665Z" fill="#F1CB5C"/>
<path fill-rule="evenodd" clip-rule="evenodd" d="M103.711 54.9356C104.193 54.9356 104.583 54.4887 104.583 53.9374C104.583 53.386 104.193 52.9392 103.711 52.9392C103.229 52.9392 102.838 53.386 102.838 53.9374C102.838 54.4887 103.229 54.9356 103.711 54.9356Z" fill="#F2F2F2"/>
<path d="M106.619 65.5831H70.8441C70.2015 65.5831 69.6807 66.179 69.6807 66.9141V78.2272C69.6807 78.9622 70.2015 79.5581 70.8441 79.5581H106.619C107.262 79.5581 107.783 78.9622 107.783 78.2272V66.9141C107.783 66.179 107.262 65.5831 106.619 65.5831Z" fill="white"/>
<mask id="mask5_15_49" style="mask-type:luminance" maskUnits="userSpaceOnUse" x="81" y="69" width="22" height="7">
<path d="M102.257 69.7756H81.024V75.3656H102.257V69.7756Z" fill="white"/>
</mask>
<g mask="url(#mask5_15_49)">
<path d="M101.384 69.7756H81.8966C81.4147 69.7756 81.024 70.2225 81.024 70.7738V70.8737C81.024 71.425 81.4147 71.8719 81.8966 71.8719H101.384C101.866 71.8719 102.257 71.425 102.257 70.8737V70.7738C102.257 70.2225 101.866 69.7756 101.384 69.7756Z" fill="#F1CB5C"/>
<path d="M94.4034 73.2693H81.8966C81.4147 73.2693 81.024 73.7162 81.024 74.2675V74.3674C81.024 74.9187 81.4147 75.3656 81.8966 75.3656H94.4034C94.8853 75.3656 95.276 74.9187 95.276 74.3674V74.2675C95.276 73.7162 94.8853 73.2693 94.4034 73.2693Z" fill="#F1CB5C"/>
</g>
<path fill-rule="evenodd" clip-rule="evenodd" d="M75.7886 76.5635C77.7161 76.5635 79.2789 74.7757 79.2789 72.5706C79.2789 70.3656 77.7161 68.5778 75.7886 68.5778C73.8611 68.5778 72.2983 70.3656 72.2983 72.5706C72.2983 74.7757 73.8611 76.5635 75.7886 76.5635Z" fill="#BEAA71"/>
<path d="M106.619 82.22H70.8441C70.2015 82.22 69.6807 82.8159 69.6807 83.551V94.864C69.6807 95.5991 70.2015 96.195 70.8441 96.195H106.619C107.262 96.195 107.783 95.5991 107.783 94.864V83.551C107.783 82.8159 107.262 82.22 106.619 82.22Z" fill="white"/>
<mask id="mask6_15_49" style="mask-type:luminance" maskUnits="userSpaceOnUse" x="72" y="86" width="22" height="7">
<path d="M93.5308 86.4125H72.2983V92.0025H93.5308V86.4125Z" fill="white"/>
</mask>
<g mask="url(#mask6_15_49)">
<path d="M92.6583 86.4125H73.1709C72.689 86.4125 72.2983 86.8594 72.2983 87.4107V87.5105C72.2983 88.0618 72.689 88.5087 73.1709 88.5087H92.6583C93.1402 88.5087 93.5308 88.0618 93.5308 87.5105V87.4107C93.5308 86.8594 93.1402 86.4125 92.6583 86.4125Z" fill="#F1CB5C"/>
<path d="M85.6777 89.9062H73.1709C72.689 89.9062 72.2983 90.3531 72.2983 90.9044V91.0042C72.2983 91.5555 72.689 92.0025 73.1709 92.0025H85.6777C86.1596 92.0025 86.5503 91.5555 86.5503 91.0042V90.9044C86.5503 90.3531 86.1596 89.9062 85.6777 89.9062Z" fill="#BEAA71"/>
</g>
<path fill-rule="evenodd" clip-rule="evenodd" d="M103.711 91.5366C104.835 91.5366 105.747 90.4938 105.747 89.2075C105.747 87.9211 104.835 86.8783 103.711 86.8783C102.586 86.8783 101.675 87.9211 101.675 89.2075C101.675 90.4938 102.586 91.5366 103.711 91.5366Z" fill="#F1CB5C"/>
<path fill-rule="evenodd" clip-rule="evenodd" d="M103.711 90.2057C104.193 90.2057 104.583 89.7588 104.583 89.2075C104.583 88.6561 104.193 88.2093 103.711 88.2093C103.229 88.2093 102.838 88.6561 102.838 89.2075C102.838 89.7588 103.229 90.2057 103.711 90.2057Z" fill="#F2F2F2"/>
<path d="M106.619 98.8569H70.8441C70.2015 98.8569 69.6807 99.4528 69.6807 100.188V111.501C69.6807 112.236 70.2015 112.832 70.8441 112.832H106.619C107.262 112.832 107.783 112.236 107.783 111.501V100.188C107.783 99.4528 107.262 98.8569 106.619 98.8569Z" fill="white"/>
<mask id="mask7_15_49" style="mask-type:luminance" maskUnits="userSpaceOnUse" x="81" y="103" width="22" height="6">
<path d="M102.257 103.049H81.024V108.639H102.257V103.049Z" fill="white"/>
</mask>
<g mask="url(#mask7_15_49)">
<path d="M101.384 103.049H81.8966C81.4147 103.049 81.024 103.496 81.024 104.048V104.147C81.024 104.699 81.4147 105.146 81.8966 105.146H101.384C101.866 105.146 102.257 104.699 102.257 104.147V104.048C102.257 103.496 101.866 103.049 101.384 103.049Z" fill="#F1CB5C"/>
<path d="M94.4034 106.543H81.8966C81.4147 106.543 81.024 106.99 81.024 107.541V107.641C81.024 108.192 81.4147 108.639 81.8966 108.639H94.4034C94.8853 108.639 95.276 108.192 95.276 107.641V107.541C95.276 106.99 94.8853 106.543 94.4034 106.543Z" fill="#F1CB5C"/>
</g>
<path fill-rule="evenodd" clip-rule="evenodd" d="M75.7886 109.837C77.7161 109.837 79.2789 108.049 79.2789 105.844C79.2789 103.639 77.7161 101.852 75.7886 101.852C73.8611 101.852 72.2983 103.639 72.2983 105.844C72.2983 108.049 73.8611 109.837 75.7886 109.837Z" fill="#BEAA71"/>
<path d="M179.915 43.9553H87.132C85.8469 43.9553 84.8051 45.147 84.8051 46.6172V156.42C84.8051 157.891 85.8469 159.082 87.132 159.082H179.915C181.2 159.082 182.242 157.891 182.242 156.42V46.6172C182.242 45.147 181.2 43.9553 179.915 43.9553Z" fill="#F2F2F2"/>
<path d="M175.261 58.263H159.555C158.27 58.263 157.228 59.4547 157.228 60.9249V82.5528C157.228 84.0229 158.27 85.2147 159.555 85.2147H175.261C176.546 85.2147 177.588 84.0229 177.588 82.5528V60.9249C177.588 59.4547 176.546 58.263 175.261 58.263Z" fill="white"/>
<path fill-rule="evenodd" clip-rule="evenodd" d="M167.408 73.9016C169.978 73.9016 172.062 71.5182 172.062 68.5779C172.062 65.6375 169.978 63.2541 167.408 63.2541C164.838 63.2541 162.754 65.6375 162.754 68.5779C162.754 71.5182 164.838 73.9016 167.408 73.9016Z" fill="#F1CB5C"/>
<path d="M173.807 75.2326H161.009C160.527 75.2326 160.137 75.6795 160.137 76.2308C160.137 76.7821 160.527 77.229 161.009 77.229H173.807C174.289 77.229 174.68 76.7821 174.68 76.2308C174.68 75.6795 174.289 75.2326 173.807 75.2326Z" fill="#F1CB5C"/>
<path d="M171.48 78.56H163.336C162.854 78.56 162.464 79.0069 162.464 79.5582C162.464 80.1095 162.854 80.5564 163.336 80.5564H171.48C171.962 80.5564 172.353 80.1095 172.353 79.5582C172.353 79.0069 171.962 78.56 171.48 78.56Z" fill="#F1CB5C"/>
<path d="M84.8051 46.6172C84.8051 45.1471 85.847 43.9553 87.132 43.9553H179.915C181.2 43.9553 182.242 45.1471 182.242 46.6172V52.9392H84.8051V46.6172Z" fill="#BEAA71"/>
<path fill-rule="evenodd" clip-rule="evenodd" d="M88.5863 49.9445C89.2288 49.9445 89.7497 49.3486 89.7497 48.6136C89.7497 47.8786 89.2288 47.2826 88.5863 47.2826C87.9438 47.2826 87.4229 47.8786 87.4229 48.6136C87.4229 49.3486 87.9438 49.9445 88.5863 49.9445Z" fill="#F2F2F2"/>
<path fill-rule="evenodd" clip-rule="evenodd" d="M92.0765 49.9445C92.719 49.9445 93.2399 49.3486 93.2399 48.6136C93.2399 47.8786 92.719 47.2826 92.0765 47.2826C91.434 47.2826 90.9131 47.8786 90.9131 48.6136C90.9131 49.3486 91.434 49.9445 92.0765 49.9445Z" fill="#F2F2F2"/>
<path fill-rule="evenodd" clip-rule="evenodd" d="M95.5668 49.9445C96.2093 49.9445 96.7302 49.3486 96.7302 48.6136C96.7302 47.8786 96.2093 47.2826 95.5668 47.2826C94.9243 47.2826 94.4034 47.8786 94.4034 48.6136C94.4034 49.3486 94.9243 49.9445 95.5668 49.9445Z" fill="#F2F2F2"/>
<path d="M175.261 87.8766H159.555C158.27 87.8766 157.228 89.0684 157.228 90.5385V149.766C157.228 151.236 158.27 152.428 159.555 152.428H175.261C176.546 152.428 177.588 151.236 177.588 149.766V90.5385C177.588 89.0684 176.546 87.8766 175.261 87.8766Z" fill="white"/>
<path d="M171.189 93.8659H163.627C162.985 93.8659 162.464 94.4618 162.464 95.1968V101.186C162.464 101.921 162.985 102.517 163.627 102.517H171.189C171.832 102.517 172.353 101.921 172.353 101.186V95.1968C172.353 94.4618 171.832 93.8659 171.189 93.8659Z" fill="#F1CB5C"/>
<path d="M171.189 105.179H163.627C162.985 105.179 162.464 105.775 162.464 106.51V112.166C162.464 112.901 162.985 113.497 163.627 113.497H171.189C171.832 113.497 172.353 112.901 172.353 112.166V106.51C172.353 105.775 171.832 105.179 171.189 105.179Z" fill="#BEAA71"/>
<path d="M171.189 116.159H163.627C162.985 116.159 162.464 116.755 162.464 117.49V123.147C162.464 123.882 162.985 124.478 163.627 124.478H171.189C171.832 124.478 172.353 123.882 172.353 123.147V117.49C172.353 116.755 171.832 116.159 171.189 116.159Z" fill="#F1CB5C"/>
<path d="M171.189 138.12H163.627C162.985 138.12 162.464 138.716 162.464 139.451V145.107C162.464 145.842 162.985 146.438 163.627 146.438H171.189C171.832 146.438 172.353 145.842 172.353 145.107V139.451C172.353 138.716 171.832 138.12 171.189 138.12Z" fill="#F1CB5C"/>
<path d="M171.189 127.14H163.627C162.985 127.14 162.464 127.735 162.464 128.471V134.127C162.464 134.862 162.985 135.458 163.627 135.458H171.189C171.832 135.458 172.353 134.862 172.353 134.127V128.471C172.353 127.735 171.832 127.14 171.189 127.14Z" fill="#BEAA71"/>
<path d="M153.738 58.5957H90.6223C89.9797 58.5957 89.4588 59.1916 89.4588 59.9267V72.9034C89.4588 73.6385 89.9797 74.2344 90.6223 74.2344H153.738C154.381 74.2344 154.901 73.6385 154.901 72.9034V59.9267C154.901 59.1916 154.381 58.5957 153.738 58.5957Z" fill="white"/>
<mask id="mask8_15_49" style="mask-type:luminance" maskUnits="userSpaceOnUse" x="92" y="63" width="49" height="7">
<path d="M140.649 63.2873H92.0765V69.5428H140.649V63.2873Z" fill="white"/>
</mask>
<g mask="url(#mask8_15_49)">
<path d="M139.777 63.2873H92.9491C92.4672 63.2873 92.0765 63.7342 92.0765 64.2855V64.6349C92.0765 65.1862 92.4672 65.6331 92.9491 65.6331H139.777C140.259 65.6331 140.649 65.1862 140.649 64.6349V64.2855C140.649 63.7342 140.259 63.2873 139.777 63.2873Z" fill="#F1CB5C"/>
<path d="M123.808 67.197H92.9491C92.4672 67.197 92.0765 67.6439 92.0765 68.1952V68.5446C92.0765 69.0959 92.4672 69.5428 92.9491 69.5428H123.808C124.29 69.5428 124.68 69.0959 124.68 68.5446V68.1952C124.68 67.6439 124.29 67.197 123.808 67.197Z" fill="#F1CB5C"/>
</g>
<path fill-rule="evenodd" clip-rule="evenodd" d="M147.908 68.7442C149.032 68.7442 149.944 67.7014 149.944 66.415C149.944 65.1287 149.032 64.0859 147.908 64.0859C146.783 64.0859 145.872 65.1287 145.872 66.415C145.872 67.7014 146.783 68.7442 147.908 68.7442Z" fill="#F1CB5C"/>
<path fill-rule="evenodd" clip-rule="evenodd" d="M147.908 67.4132C148.39 67.4132 148.78 66.9664 148.78 66.415C148.78 65.8637 148.39 65.4168 147.908 65.4168C147.426 65.4168 147.035 65.8637 147.035 66.415C147.035 66.9664 147.426 67.4132 147.908 67.4132Z" fill="#F2F2F2"/>
<path d="M153.738 76.8962H90.6223C89.9797 76.8962 89.4588 77.4921 89.4588 78.2272V88.542C89.4588 89.2771 89.9797 89.873 90.6223 89.873H153.738C154.381 89.873 154.901 89.2771 154.901 88.542V78.2272C154.901 77.4921 154.381 76.8962 153.738 76.8962Z" fill="white"/>
<mask id="mask9_15_49" style="mask-type:luminance" maskUnits="userSpaceOnUse" x="92" y="80" width="49" height="6">
<path d="M140.649 80.7892H92.0765V85.9799H140.649V80.7892Z" fill="white"/>
</mask>
<g mask="url(#mask9_15_49)">
<path d="M139.799 80.7892H92.9273C92.4574 80.7892 92.0765 81.225 92.0765 81.7625C92.0765 82.3 92.4574 82.7358 92.9273 82.7358H139.799C140.269 82.7358 140.649 82.3 140.649 81.7625C140.649 81.225 140.269 80.7892 139.799 80.7892Z" fill="#F1CB5C"/>
<path d="M123.83 84.0334H92.9273C92.4574 84.0334 92.0765 84.4691 92.0765 85.0067C92.0765 85.5442 92.4574 85.9799 92.9273 85.9799H123.83C124.299 85.9799 124.68 85.5442 124.68 85.0067C124.68 84.4691 124.299 84.0334 123.83 84.0334Z" fill="#F1CB5C"/>
</g>
<path fill-rule="evenodd" clip-rule="evenodd" d="M147.908 85.7137C149.032 85.7137 149.944 84.6709 149.944 83.3846C149.944 82.0982 149.032 81.0554 147.908 81.0554C146.783 81.0554 145.872 82.0982 145.872 83.3846C145.872 84.6709 146.783 85.7137 147.908 85.7137Z" fill="#F1CB5C"/>
<path fill-rule="evenodd" clip-rule="evenodd" d="M147.908 84.3828C148.39 84.3828 148.78 83.9359 148.78 83.3846C148.78 82.8332 148.39 82.3864 147.908 82.3864C147.426 82.3864 147.035 82.8332 147.035 83.3846C147.035 83.9359 147.426 84.3828 147.908 84.3828Z" fill="#F2F2F2"/>
<path d="M153.738 92.5349H90.6223C89.9797 92.5349 89.4588 93.1308 89.4588 93.8658V104.181C89.4588 104.916 89.9797 105.512 90.6223 105.512H153.738C154.381 105.512 154.901 104.916 154.901 104.181V93.8658C154.901 93.1308 154.381 92.5349 153.738 92.5349Z" fill="white"/>
<mask id="mask10_15_49" style="mask-type:luminance" maskUnits="userSpaceOnUse" x="92" y="96" width="49" height="6">
<path d="M140.649 96.4279H92.0765V101.619H140.649V96.4279Z" fill="white"/>
</mask>
<g mask="url(#mask10_15_49)">
<path d="M139.799 96.4279H92.9273C92.4574 96.4279 92.0765 96.8637 92.0765 97.4012C92.0765 97.9387 92.4574 98.3744 92.9273 98.3744H139.799C140.269 98.3744 140.649 97.9387 140.649 97.4012C140.649 96.8637 140.269 96.4279 139.799 96.4279Z" fill="#F1CB5C"/>
<path d="M123.83 99.6721H92.9273C92.4574 99.6721 92.0765 100.108 92.0765 100.645C92.0765 101.183 92.4574 101.619 92.9273 101.619H123.83C124.299 101.619 124.68 101.183 124.68 100.645C124.68 100.108 124.299 99.6721 123.83 99.6721Z" fill="#F1CB5C"/>
</g>
<path fill-rule="evenodd" clip-rule="evenodd" d="M147.908 101.352C149.032 101.352 149.944 100.31 149.944 99.0233C149.944 97.7369 149.032 96.6941 147.908 96.6941C146.783 96.6941 145.872 97.7369 145.872 99.0233C145.872 100.31 146.783 101.352 147.908 101.352Z" fill="#F1CB5C"/>
<path fill-rule="evenodd" clip-rule="evenodd" d="M147.908 100.021C148.39 100.021 148.78 99.5745 148.78 99.0232C148.78 98.4718 148.39 98.025 147.908 98.025C147.426 98.025 147.035 98.4718 147.035 99.0232C147.035 99.5745 147.426 100.021 147.908 100.021Z" fill="#BEAA71"/>
<path d="M153.738 139.451H90.6223C89.9797 139.451 89.4588 140.047 89.4588 140.782V151.097C89.4588 151.832 89.9797 152.428 90.6223 152.428H153.738C154.381 152.428 154.901 151.832 154.901 151.097V140.782C154.901 140.047 154.381 139.451 153.738 139.451Z" fill="white"/>
<mask id="mask11_15_49" style="mask-type:luminance" maskUnits="userSpaceOnUse" x="92" y="143" width="49" height="6">
<path d="M140.649 143.344H92.0765V148.535H140.649V143.344Z" fill="white"/>
</mask>
<g mask="url(#mask11_15_49)">
<path d="M139.799 143.344H92.9273C92.4574 143.344 92.0765 143.78 92.0765 144.317C92.0765 144.855 92.4574 145.29 92.9273 145.29H139.799C140.269 145.29 140.649 144.855 140.649 144.317C140.649 143.78 140.269 143.344 139.799 143.344Z" fill="#F1CB5C"/>
<path d="M123.83 146.588H92.9273C92.4574 146.588 92.0765 147.024 92.0765 147.561C92.0765 148.099 92.4574 148.535 92.9273 148.535H123.83C124.299 148.535 124.68 148.099 124.68 147.561C124.68 147.024 124.299 146.588 123.83 146.588Z" fill="#F1CB5C"/>
</g>
<path fill-rule="evenodd" clip-rule="evenodd" d="M147.908 148.268C149.032 148.268 149.944 147.226 149.944 145.939C149.944 144.653 149.032 143.61 147.908 143.61C146.783 143.61 145.872 144.653 145.872 145.939C145.872 147.226 146.783 148.268 147.908 148.268Z" fill="#F1CB5C"/>
<path fill-rule="evenodd" clip-rule="evenodd" d="M147.908 146.937C148.39 146.937 148.78 146.491 148.78 145.939C148.78 145.388 148.39 144.941 147.908 144.941C147.426 144.941 147.035 145.388 147.035 145.939C147.035 146.491 147.426 146.937 147.908 146.937Z" fill="#F2F2F2"/>
<path d="M153.738 123.812H90.6223C89.9797 123.812 89.4588 124.408 89.4588 125.143V135.458C89.4588 136.193 89.9797 136.789 90.6223 136.789H153.738C154.381 136.789 154.901 136.193 154.901 135.458V125.143C154.901 124.408 154.381 123.812 153.738 123.812Z" fill="white"/>
<mask id="mask12_15_49" style="mask-type:luminance" maskUnits="userSpaceOnUse" x="92" y="127" width="49" height="6">
<path d="M140.649 127.705H92.0765V132.896H140.649V127.705Z" fill="white"/>
</mask>
<g mask="url(#mask12_15_49)">
<path d="M139.799 127.705H92.9273C92.4574 127.705 92.0765 128.141 92.0765 128.678C92.0765 129.216 92.4574 129.652 92.9273 129.652H139.799C140.269 129.652 140.649 129.216 140.649 128.678C140.649 128.141 140.269 127.705 139.799 127.705Z" fill="#F1CB5C"/>
<path d="M123.83 130.949H92.9273C92.4574 130.949 92.0765 131.385 92.0765 131.923C92.0765 132.46 92.4574 132.896 92.9273 132.896H123.83C124.299 132.896 124.68 132.46 124.68 131.923C124.68 131.385 124.299 130.949 123.83 130.949Z" fill="#F1CB5C"/>
</g>
<path fill-rule="evenodd" clip-rule="evenodd" d="M147.908 132.63C149.032 132.63 149.944 131.587 149.944 130.301C149.944 129.014 149.032 127.971 147.908 127.971C146.783 127.971 145.872 129.014 145.872 130.301C145.872 131.587 146.783 132.63 147.908 132.63Z" fill="#F1CB5C"/>
<path fill-rule="evenodd" clip-rule="evenodd" d="M147.908 131.299C148.39 131.299 148.78 130.852 148.78 130.301C148.78 129.749 148.39 129.302 147.908 129.302C147.426 129.302 147.035 129.749 147.035 130.301C147.035 130.852 147.426 131.299 147.908 131.299Z" fill="#F2F2F2"/>
<path d="M153.738 108.174H90.6223C89.9797 108.174 89.4588 108.769 89.4588 109.505V119.819C89.4588 120.554 89.9797 121.15 90.6223 121.15H153.738C154.381 121.15 154.901 120.554 154.901 119.819V109.505C154.901 108.769 154.381 108.174 153.738 108.174Z" fill="white"/>
<mask id="mask13_15_49" style="mask-type:luminance" maskUnits="userSpaceOnUse" x="92" y="112" width="49" height="6">
<path d="M140.649 112.067H92.0765V117.257H140.649V112.067Z" fill="white"/>
</mask>
<g mask="url(#mask13_15_49)">
<path d="M139.799 112.067H92.9273C92.4574 112.067 92.0765 112.502 92.0765 113.04C92.0765 113.577 92.4574 114.013 92.9273 114.013H139.799C140.269 114.013 140.649 113.577 140.649 113.04C140.649 112.502 140.269 112.067 139.799 112.067Z" fill="#F1CB5C"/>
<path d="M123.83 115.311H92.9273C92.4574 115.311 92.0765 115.747 92.0765 116.284C92.0765 116.822 92.4574 117.257 92.9273 117.257H123.83C124.299 117.257 124.68 116.822 124.68 116.284C124.68 115.747 124.299 115.311 123.83 115.311Z" fill="#F1CB5C"/>
</g>
<path fill-rule="evenodd" clip-rule="evenodd" d="M147.908 116.991C149.032 116.991 149.944 115.948 149.944 114.662C149.944 113.376 149.032 112.333 147.908 112.333C146.783 112.333 145.872 113.376 145.872 114.662C145.872 115.948 146.783 116.991 147.908 116.991Z" fill="#F1CB5C"/>
<path fill-rule="evenodd" clip-rule="evenodd" d="M147.908 115.66C148.39 115.66 148.78 115.213 148.78 114.662C148.78 114.111 148.39 113.664 147.908 113.664C147.426 113.664 147.035 114.111 147.035 114.662C147.035 115.213 147.426 115.66 147.908 115.66Z" fill="#F2F2F2"/>
<path fill-rule="evenodd" clip-rule="evenodd" d="M206.379 100.646C205.231 99.7556 203.706 99.5223 202.333 99.5223C196.971 99.5223 191.931 101.798 187.576 105.19C185.191 107.048 183.056 109.414 181.172 111.878C180.084 113.3 179.115 114.838 178.428 116.549C177.965 117.704 177.647 118.908 177.431 120.149C177.168 121.662 176.96 123.205 176.865 124.743C176.828 125.348 176.521 128.562 177.401 128.616C177.396 128.695 177.394 128.771 177.4 128.838C175.489 132.257 174.308 136.263 173.213 140.061C172.261 143.367 171.412 146.7 170.861 150.119C170.135 154.621 169.659 159.191 169.432 163.757C169.383 164.738 169.35 165.72 169.321 166.703C169.297 167.541 169.272 168.379 169.248 169.218C169.221 170.157 169.077 171.238 169.207 172.172C169.321 172.985 169.936 172.862 169.963 172.053C169.996 171.076 169.991 170.097 170.028 169.119C170.078 167.821 170.129 166.523 170.185 165.225C170.571 156.21 172.021 147.328 174.697 138.813C175.781 135.367 177.021 132.106 178.616 128.918C180.019 126.115 181.706 123.402 183.43 120.875C185.105 118.419 186.848 116.02 188.901 113.94C190.567 112.252 192.4 110.78 194.284 109.412C196.677 107.674 199.066 105.978 201.658 104.643C203.006 103.95 204.378 103.329 205.736 102.663C205.981 102.544 206.242 102.428 206.477 102.289C207.261 101.827 207.003 101.13 206.379 100.646Z" fill="#BEAA71"/>
<path fill-rule="evenodd" clip-rule="evenodd" d="M184.807 132.131C186.981 132.131 188.917 132.454 190.92 133.443C192.65 134.296 194.227 135.426 195.757 136.656C197.91 138.385 199.605 140.398 200.792 143.066C201.501 144.659 202.022 146.914 201.545 148.653C200.985 150.7 199.444 152.407 197.416 152.047C196.161 151.824 195.011 150.874 194.058 149.98C192.917 148.91 192.004 147.624 191.25 146.195C190.021 143.865 189.298 141.231 188.253 138.796C187.758 137.641 187.279 136.477 186.685 135.379C186.391 134.835 186.078 134.296 185.632 133.892C185.394 133.676 184.388 133.302 184.772 132.816C179.133 132.901 174.136 137.856 173.053 143.99C172.953 144.561 172.874 145.138 172.791 145.713C172.738 146.076 172.759 147.416 172.476 147.647C171.85 148.159 172.113 146.604 172.14 146.38C172.209 145.802 172.283 145.224 172.361 144.647C172.784 141.507 174.005 138.589 176.042 136.351C178.372 133.791 181.515 132.131 184.807 132.131Z" fill="#9B8B5E"/>
<path fill-rule="evenodd" clip-rule="evenodd" d="M28.0702 124.39C33.4994 134.81 39.8228 144.899 43.6202 156.292C43.4672 154.949 43.3049 153.607 43.1232 152.268C42.1598 145.167 40.9621 138.118 39.7038 131.077C39.0631 127.493 38.3851 123.921 37.69 120.35C37.3162 118.431 36.9468 116.512 36.5652 114.596C36.4727 114.132 36.3933 113.321 36.2779 112.499C39.9682 126.353 43.5272 140.218 46.1303 154.405C46.4718 156.267 46.7626 158.125 47.0008 159.981C47.0823 159.557 47.1626 159.134 47.2501 158.712C48.3036 153.652 49.8835 148.632 51.7648 143.901C52.6641 141.639 53.6969 139.426 54.9133 137.363C55.6718 136.078 57.4606 134.55 58.1523 133.233C54.3685 141.173 53.0021 151.107 50.8172 159.739C50.284 161.845 49.7474 163.948 49.2215 166.055C52.5163 158.496 57.6284 152.285 64.7361 149.594C56.1326 156.097 50.9722 167.485 47.4947 179.133C47.4834 179.271 47.4697 179.409 47.4578 179.548C48.4813 177.326 49.7701 175.316 51.517 173.909C55.2562 170.896 59.4038 171.774 63.0308 174.358C60.1842 172.288 55.0398 174.173 52.6446 176.277C50.93 177.783 49.4647 179.804 48.1922 181.775C47.8874 182.247 47.4712 182.799 47.0317 183.387C46.4156 187.962 45.4116 192.506 43.9899 197.014C44.2246 195.72 44.0551 193.651 44.1202 192.686C44.1272 192.582 44.133 192.477 44.14 192.374C43.9239 193.361 43.715 194.336 43.5141 195.296C43.9137 193.464 44.1307 191.552 44.3002 189.62C44.3439 188.789 44.3866 187.959 44.4314 187.129C44.4172 185.553 44.3605 183.971 44.2645 182.386C43.9245 180.846 43.5434 179.393 43.229 178.185C42.0956 173.826 40.4333 169.65 38.3877 165.754C36.5213 162.199 34.2871 158.978 31.7079 156.066C30.3174 154.496 28.8623 153.002 27.4277 151.486C26.9089 150.938 25.9816 149.591 25.1797 148.888C31.0202 152.572 37.0318 156.557 41.2925 162.492C40.7928 160.298 40.2504 158.134 39.6765 156.014C36.7647 145.258 33.0884 134.111 28.0702 124.39Z" fill="#F1CB5C"/>
<path fill-rule="evenodd" clip-rule="evenodd" d="M33.9053 183.372C33.9053 195.317 34.7321 205 45.8304 205C56.9286 205 57.7555 195.317 57.7555 183.372" fill="#BEAA71"/>
<path d="M159.264 30.6458C159.264 30.0945 158.874 29.6476 158.392 29.6476C157.91 29.6476 157.519 30.0945 157.519 30.6458V36.9678C157.519 37.5191 157.91 37.966 158.392 37.966C158.874 37.966 159.264 37.5191 159.264 36.9678V30.6458Z" fill="#F1CB5C"/>
<path d="M163.336 25.322C163.336 24.7707 162.946 24.3238 162.464 24.3238C161.982 24.3238 161.591 24.7707 161.591 25.322V36.9678C161.591 37.5191 161.982 37.966 162.464 37.966C162.946 37.966 163.336 37.5191 163.336 36.9678V25.322Z" fill="#F1CB5C"/>
<path d="M167.408 22.6601C167.408 22.1088 167.018 21.6619 166.536 21.6619C166.054 21.6619 165.663 22.1088 165.663 22.6601V36.9678C165.663 37.5191 166.054 37.966 166.536 37.966C167.018 37.966 167.408 37.5191 167.408 36.9678V22.6601Z" fill="#F1CB5C"/>
<path d="M171.48 25.322C171.48 24.7707 171.09 24.3238 170.608 24.3238C170.126 24.3238 169.735 24.7707 169.735 25.322V36.9678C169.735 37.5191 170.126 37.966 170.608 37.966C171.09 37.966 171.48 37.5191 171.48 36.9678V25.322Z" fill="#F1CB5C"/>
<path d="M175.552 19.9982C175.552 19.4469 175.162 19 174.68 19C174.198 19 173.807 19.4469 173.807 19.9982V36.9678C173.807 37.5191 174.198 37.966 174.68 37.966C175.162 37.966 175.552 37.5191 175.552 36.9678V19.9982Z" fill="#BEAA71"/>
<path fill-rule="evenodd" clip-rule="evenodd" d="M14.418 120.903C14.418 117.196 17.0363 114.163 20.2351 114.163V120.903L16.2597 125.809C15.1288 124.609 14.418 122.85 14.418 120.903Z" fill="#F2F2F2"/>
<path fill-rule="evenodd" clip-rule="evenodd" d="M20.0811 120.818H25.9556C25.9556 122.555 25.3362 124.182 24.3569 125.365C23.2798 126.659 21.746 127.472 20.0811 127.472C18.5476 127.472 17.1439 126.771 16.0665 125.661L20.0811 120.818Z" fill="#BEAA71"/>
<path fill-rule="evenodd" clip-rule="evenodd" d="M26.0522 120.818C26.0522 117.158 23.4339 114.163 20.2351 114.163V120.818H26.0522ZM17.3265 114.163L19.6534 120.152L14.418 117.49C14.9357 115.938 16.0982 114.755 17.3265 114.163Z" fill="#BEAA71"/>
<path fill-rule="evenodd" clip-rule="evenodd" d="M203.697 123.872C203.138 124.551 202.347 124.977 201.466 124.977C199.774 124.977 198.402 123.413 198.402 121.483C198.402 119.554 199.774 117.989 201.466 117.989V111.501C196.653 111.501 192.713 115.994 192.713 121.483C192.713 126.972 196.653 131.465 201.466 131.465C203.994 131.465 206.28 130.245 207.837 128.305L203.697 123.872Z" fill="#F2F2F2"/>
<path fill-rule="evenodd" clip-rule="evenodd" d="M201.438 111.501V117.989C203.125 117.989 204.492 119.554 204.492 121.483H210.164C210.164 115.994 206.237 111.501 201.438 111.501Z" fill="#BEAA71"/>
<path fill-rule="evenodd" clip-rule="evenodd" d="M204.375 121.483C204.375 122.617 203.908 123.624 203.183 124.275L206.75 129.469C208.826 127.609 210.164 124.727 210.164 121.483H204.375Z" fill="#BEAA71"/>
<path fill-rule="evenodd" clip-rule="evenodd" d="M148.227 32.1444C147.797 32.6648 147.188 32.9916 146.51 32.9916C145.209 32.9916 144.154 31.7923 144.154 30.313C144.154 28.8337 145.209 27.6345 146.51 27.6345V22.6601C142.808 22.6601 139.777 26.1047 139.777 30.313C139.777 34.5214 142.808 37.966 146.51 37.966C148.455 37.966 150.213 37.0306 151.411 35.543L148.227 32.1444Z" fill="#F2F2F2"/>
<path fill-rule="evenodd" clip-rule="evenodd" d="M146.467 22.6601V27.6345C147.76 27.6345 148.808 28.8337 148.808 30.313H153.156C153.156 26.1047 150.145 22.6601 146.467 22.6601Z" fill="#BEAA71"/>
<path fill-rule="evenodd" clip-rule="evenodd" d="M148.815 30.313C148.815 31.1633 148.465 31.919 147.921 32.407L150.596 36.3023C152.153 34.9077 153.156 32.746 153.156 30.313H148.815Z" fill="#BEAA71"/>
<path fill-rule="evenodd" clip-rule="evenodd" d="M42.3429 37.9616C42.3415 37.9654 42.3402 37.9693 42.3381 37.9739C42.3402 37.97 42.3429 37.9547 42.3429 37.9616Z" fill="#BEAA71"/>
<path fill-rule="evenodd" clip-rule="evenodd" d="M42.3398 37.9671C42.3398 37.9679 42.339 37.9695 42.339 37.971C42.339 37.9671 42.346 37.9554 42.3398 37.9671Z" fill="#BEAA71"/>
<path fill-rule="evenodd" clip-rule="evenodd" d="M42.3601 37.9101C42.3559 37.9236 42.3507 37.9364 42.346 37.9498C42.3483 37.9431 42.3507 37.9377 42.353 37.931C42.2919 38.1058 42.3307 37.9922 42.3601 37.9101Z" fill="#BEAA71"/>
<path fill-rule="evenodd" clip-rule="evenodd" d="M42.3469 37.9504C42.3445 37.9564 42.3421 37.9631 42.3397 37.9691C42.3225 38.0066 42.3469 37.9504 42.3469 37.9504Z" fill="#BEAA71"/>
<path fill-rule="evenodd" clip-rule="evenodd" d="M42.3373 37.9732C42.3332 37.9824 42.3565 37.9379 42.3373 37.9732V37.9732Z" fill="#BEAA71"/>
<path fill-rule="evenodd" clip-rule="evenodd" d="M42.3396 37.9671L42.3413 37.9654C42.3404 37.9662 42.3404 37.9671 42.3396 37.9671Z" fill="#BEAA71"/>
<path d="M54.847 20.6637H29.5425C28.8999 20.6637 28.3791 21.2596 28.3791 21.9946V40.2952C28.3791 41.0302 28.8999 41.6261 29.5425 41.6261H54.847C55.4895 41.6261 56.0104 41.0302 56.0104 40.2952V21.9946C56.0104 21.2596 55.4895 20.6637 54.847 20.6637Z" fill="#F1CB5C"/>
<path fill-rule="evenodd" clip-rule="evenodd" d="M38.8499 26.653L30.7059 41.6261H46.9938L38.8499 26.653Z" fill="#BEAA71"/>
<path fill-rule="evenodd" clip-rule="evenodd" d="M46.8484 30.6458L39.7224 41.6261H53.9744L46.8484 30.6458Z" fill="#BEAA71"/>
<path fill-rule="evenodd" clip-rule="evenodd" d="M49.9024 30.6458C51.3483 30.6458 52.5201 29.305 52.5201 27.6511C52.5201 25.9972 51.3483 24.6565 49.9024 24.6565C48.4566 24.6565 47.2847 25.9972 47.2847 27.6511C47.2847 29.305 48.4566 30.6458 49.9024 30.6458Z" fill="white"/>
<path fill-rule="evenodd" clip-rule="evenodd" d="M181.076 180.04C181.078 180.044 181.079 180.048 181.081 180.053C181.079 180.049 181.076 180.033 181.076 180.04Z" fill="#BEAA71"/>
<path fill-rule="evenodd" clip-rule="evenodd" d="M181.08 180.046C181.08 180.047 181.081 180.048 181.081 180.05C181.081 180.046 181.073 180.034 181.08 180.046Z" fill="#BEAA71"/>
<path fill-rule="evenodd" clip-rule="evenodd" d="M181.059 179.989C181.063 180.002 181.068 180.015 181.073 180.029C181.071 180.022 181.068 180.016 181.066 180.01C181.127 180.185 181.088 180.071 181.059 179.989Z" fill="#BEAA71"/>
<path fill-rule="evenodd" clip-rule="evenodd" d="M181.072 180.029C181.075 180.035 181.077 180.042 181.079 180.048C181.097 180.085 181.072 180.029 181.072 180.029Z" fill="#BEAA71"/>
<path fill-rule="evenodd" clip-rule="evenodd" d="M181.083 180.052C181.063 180.017 181.087 180.061 181.083 180.052V180.052Z" fill="#BEAA71"/>
<path fill-rule="evenodd" clip-rule="evenodd" d="M181.08 180.046L181.078 180.044C181.079 180.045 181.079 180.046 181.08 180.046Z" fill="#BEAA71"/>
<path d="M161.591 154.424H200.566C201.208 154.424 201.729 155.02 201.729 155.755V184.37C201.729 185.105 201.208 185.701 200.566 185.701H161.591C160.949 185.701 160.428 185.105 160.428 184.37V155.755C160.428 155.02 160.949 154.424 161.591 154.424Z" fill="#F1CB5C"/>
<path fill-rule="evenodd" clip-rule="evenodd" d="M186.394 163.408L198.335 185.701H174.452L186.394 163.408Z" fill="#BEAA71"/>
<path fill-rule="evenodd" clip-rule="evenodd" d="M174.082 169.38L184.638 185.701H163.525L174.082 169.38Z" fill="#BEAA71"/>
<path fill-rule="evenodd" clip-rule="evenodd" d="M169.59 169.397C167.421 169.397 165.663 167.386 165.663 164.905C165.663 162.424 167.421 160.413 169.59 160.413C171.758 160.413 173.516 162.424 173.516 164.905C173.516 167.386 171.758 169.397 169.59 169.397Z" fill="white"/>
</g>
<defs>
<clipPath id="clip0_15_49">
<rect width="210" height="218" fill="white"/>
</clipPath>
</defs>
</svg>
