<svg width="1030" height="1019" viewBox="0 0 1030 1019" fill="none" xmlns="http://www.w3.org/2000/svg">
<path d="M914.858 419.785H725.875C716.253 419.785 708.453 427.585 708.453 437.207V707.449C708.453 717.07 716.253 724.871 725.875 724.871H914.858C924.48 724.871 932.28 717.07 932.28 707.449V437.207C932.28 427.585 924.48 419.785 914.858 419.785Z" stroke="#BEAA71" stroke-width="4.83" stroke-miterlimit="10"/>
<path d="M906.702 451.216H736.324C731.513 451.216 727.613 455.116 727.613 459.927V496.164C727.613 500.975 731.513 504.875 736.324 504.875H906.702C911.513 504.875 915.413 500.975 915.413 496.164V459.927C915.413 455.116 911.513 451.216 906.702 451.216Z" stroke="#BEAA71" stroke-width="4.83" stroke-miterlimit="10"/>
<path d="M820.366 473.819C823.431 473.819 825.915 471.334 825.915 468.27C825.915 465.205 823.431 462.721 820.366 462.721C817.302 462.721 814.817 465.205 814.817 468.27C814.817 471.334 817.302 473.819 820.366 473.819Z" fill="#BEAA71"/>
<path d="M804.86 493.38C804.86 489.267 806.494 485.323 809.402 482.416C812.31 479.507 816.254 477.874 820.366 477.874C824.479 477.874 828.423 479.507 831.331 482.416C834.239 485.323 835.872 489.267 835.872 493.38H804.86Z" fill="#BEAA71"/>
<path d="M821.497 562.387C815.586 562.389 809.807 564.144 804.893 567.429C799.978 570.715 796.149 575.384 793.888 580.846C791.627 586.309 791.037 592.318 792.192 598.117C793.346 603.914 796.193 609.239 800.375 613.419C804.556 617.598 809.882 620.444 815.68 621.597C821.478 622.749 827.488 622.157 832.949 619.893C838.41 617.631 843.078 613.8 846.362 608.884C849.647 603.968 851.399 598.19 851.399 592.279C851.399 588.352 850.626 584.464 849.123 580.837C847.62 577.209 845.418 573.913 842.64 571.138C839.864 568.362 836.568 566.16 832.94 564.659C829.312 563.157 825.423 562.385 821.497 562.387ZM821.497 614.957C820.375 614.901 819.316 614.416 818.541 613.603C817.767 612.789 817.334 611.709 817.334 610.585C817.334 609.461 817.767 608.38 818.541 607.567C819.316 606.753 820.375 606.269 821.497 606.214C822.619 606.269 823.678 606.753 824.453 607.567C825.228 608.38 825.66 609.461 825.66 610.585C825.66 611.709 825.228 612.789 824.453 613.603C823.678 614.416 822.619 614.901 821.497 614.957ZM827.015 581.337C826.093 587.818 825.319 594.624 823.382 600.927C822.921 602.445 820.073 602.445 819.613 600.927C818.248 596.188 817.199 591.365 816.472 586.489C815.875 582.939 813.802 577.191 815.78 573.747C817.529 570.606 822.45 570.292 825.308 571.904C828.816 573.883 827.434 578.113 827.015 581.337Z" fill="#BEAA71"/>
<path d="M494.425 480.355C483.944 477.23 472.773 477.283 462.323 480.507C451.873 483.732 442.614 489.982 435.716 498.469C428.819 506.956 424.593 517.298 423.574 528.186C422.554 539.074 424.786 550.021 429.988 559.64C435.19 569.26 443.127 577.122 452.797 582.23C462.466 587.339 473.433 589.465 484.312 588.341C495.19 587.215 505.491 582.89 513.91 575.911C522.329 568.933 528.491 559.613 531.614 549.133C533.689 542.174 534.373 534.876 533.627 527.654C532.881 520.431 530.719 513.427 527.266 507.04C523.812 500.653 519.135 495.01 513.5 490.432C507.865 485.852 501.383 482.428 494.425 480.355ZM466.648 573.538C464.651 572.879 462.99 571.467 462.016 569.603C461.043 567.739 460.835 565.569 461.436 563.553C462.037 561.538 463.399 559.836 465.234 558.809C467.07 557.782 469.233 557.511 471.265 558.053C472.31 558.332 473.288 558.817 474.141 559.48C474.996 560.144 475.708 560.972 476.235 561.916C476.763 562.859 477.097 563.9 477.215 564.974C477.335 566.048 477.236 567.136 476.927 568.172C476.618 569.208 476.104 570.172 475.416 571.007C474.729 571.84 473.881 572.528 472.921 573.028C471.963 573.529 470.914 573.831 469.837 573.919C468.759 574.006 467.675 573.878 466.648 573.538ZM494.184 516.854C489.127 527.858 484.143 539.511 477.432 549.656C475.82 552.106 470.763 550.598 470.752 547.667C470.838 538.556 471.537 529.462 472.846 520.445C473.663 513.859 473.024 502.573 478.353 497.505C483.086 492.972 491.964 494.919 496.205 499.275C501.304 504.593 496.634 511.367 494.184 516.854Z" fill="#BEAA71"/>
<path d="M339.992 602.778C336.158 606.68 333.567 611.631 332.547 617.005C331.526 622.38 332.122 627.936 334.26 632.972C336.397 638.008 339.979 642.297 344.554 645.296C349.128 648.296 354.489 649.873 359.96 649.826C365.43 649.779 370.764 648.112 375.287 645.034C379.809 641.955 383.317 637.606 385.367 632.535C387.418 627.463 387.919 621.897 386.807 616.541C385.695 611.184 383.019 606.279 379.119 602.443C373.885 597.3 366.824 594.446 359.486 594.509C352.149 594.571 345.137 597.546 339.992 602.778ZM374.69 636.879C374.318 637.258 373.875 637.559 373.386 637.766C372.897 637.975 372.373 638.084 371.842 638.089C371.311 638.093 370.785 637.994 370.293 637.795C369.8 637.597 369.352 637.303 368.973 636.931C368.594 636.559 368.293 636.116 368.085 635.627C367.877 635.14 367.768 634.614 367.763 634.083C367.759 633.552 367.858 633.026 368.057 632.534C368.255 632.041 368.549 631.593 368.921 631.214C369.672 630.449 370.697 630.014 371.769 630.004C372.841 629.995 373.872 630.411 374.638 631.162C375.403 631.913 375.837 632.938 375.848 634.01C375.857 635.082 375.441 636.113 374.69 636.879ZM356.085 611.447C359.76 616.263 363.749 621.195 366.649 626.555C367.35 627.843 365.508 629.696 364.209 629.047C360.211 626.864 356.363 624.416 352.692 621.718C349.96 619.823 344.829 617.457 343.835 613.907C342.934 610.766 345.929 607.269 348.798 606.442C352.326 605.416 354.221 609.07 356.085 611.447Z" fill="#BEAA71"/>
<path d="M746.396 528.829H892.421" stroke="#BEAA71" stroke-width="4.83" stroke-miterlimit="10"/>
<path d="M746.396 543.205H892.421" stroke="#BEAA71" stroke-width="4.83" stroke-miterlimit="10"/>
<path d="M746.396 635.758H892.421" stroke="#BEAA71" stroke-width="4.83" stroke-miterlimit="10"/>
<path d="M780.308 649.361H858.498" stroke="#BEAA71" stroke-width="4.83" stroke-miterlimit="10"/>
<path d="M932.291 616.891C945.169 633.078 957.419 653.139 968.496 677.858C1035.94 828.48 951.639 904.921 951.639 904.921" stroke="#9B8B5E" stroke-width="4.83" stroke-miterlimit="10"/>
<path d="M227.817 736.326C227.817 736.326 127.734 622.8 252.536 566.586C377.339 510.373 402.048 502.562 393.044 444.087C384.039 385.612 454.817 326.069 566.123 365.416C677.43 404.762 679.66 478.91 671.766 536.234C667.284 568.911 685.827 576.763 708.411 575.119" stroke="#9B8B5E" stroke-width="4.83" stroke-miterlimit="10"/>
<path d="M925.234 953.912C924.979 960.18 923.358 966.315 920.48 971.889C920.367 972.167 920.234 972.436 920.083 972.695C915.036 981.761 907.976 989.549 899.446 995.457L899.143 995.667C891.443 1000.82 882.782 1004.36 873.68 1006.08H970.569C970.569 1006.08 957.607 821.236 838.479 731.299C723.194 644.273 615.259 686.215 608.412 689.021C610.533 695.01 611.481 701.352 611.207 707.7C611.207 707.7 619.876 712.212 621.321 728.368C622.766 744.523 625.781 789.439 596.79 797.899C596.79 797.899 570.762 797.26 563.883 787.272C557.004 777.283 555.35 779.315 552.648 781.848C550.554 783.764 537.917 790.612 532.085 793.753C532.822 793.788 533.554 793.89 534.274 794.056C534.274 794.056 537.613 822.242 578.478 866.414C579.862 867.873 581.17 869.404 582.394 871C588.564 876.396 595.499 881.903 603.198 887.522L649.831 921.644C650.883 922.539 652.131 923.173 653.475 923.497C656.084 924.154 658.811 924.18 661.432 923.57C666.855 922.523 703.888 918.744 727.853 916.356C728.398 916.356 728.974 916.252 729.508 916.189L732.649 915.885C733.151 915.885 733.696 915.781 734.135 915.749L736.962 915.477C738.344 915.341 739.59 915.205 740.742 915.11L743.883 914.807C746.657 914.535 748.301 914.367 748.437 914.367C754.147 914.205 759.838 913.652 765.472 912.713C770.864 911.666 775.785 909.98 777.062 907.185C777.304 906.595 777.394 905.953 777.324 905.321C777.035 903.542 776.292 901.869 775.167 900.463C770.246 893.856 758.813 888.192 757.976 887.784C757.952 887.775 757.926 887.775 757.902 887.784L757.672 887.616L689.617 834.743H689.544C689.544 834.743 699.794 725.394 793.197 752.302C793.197 752.302 793.636 752.606 794.443 753.276C798.086 756.082 809.551 765.379 826.407 782.749C826.847 783.22 827.318 783.691 827.79 784.194C829.58 786.015 831.339 787.91 833.087 789.764C844.918 802.411 858.917 818.525 874.36 838.617L874.465 838.721C892.159 861.755 904.912 882.863 913.204 901.541V901.604C922.177 921.905 925.956 939.296 925.213 953.169C925.236 953.416 925.243 953.664 925.234 953.912ZM643.518 765.965C640.753 734.105 656.26 722.567 657.129 721.929C635.079 761.819 675.975 822.964 677.409 825.33C676.236 824.346 646.282 797.815 643.518 765.965Z" fill="#9B8B5E"/>
<path d="M584.948 759.715C583.801 760.559 582.605 761.335 581.368 762.039L574.185 749.475C590.749 741.005 595.397 726.075 588.11 717.877C586.073 715.634 583.446 714.009 580.53 713.186C573.201 710.967 568.123 714.233 564.678 718.62C561.867 722.433 559.806 726.747 558.606 731.331L555.109 691L554.837 687.859C554.837 687.859 547.215 684.08 526.568 687.451C505.921 690.822 502.12 702.224 493.252 697.167C484.384 692.11 479.358 692.518 479.358 692.518C476.835 701.784 470.082 701.784 470.082 701.784C468.482 701.591 466.911 701.208 465.402 700.643C455.822 691.838 453.225 676.562 453.225 676.562C463.277 675.316 464.051 665.642 462.9 657.716C468.47 661.025 476.322 661.255 487.347 654.177C518.977 633.949 551.413 644.901 562.815 646.586C567.903 647.33 573.473 645.539 578.091 643.445C578.687 644.514 579.518 645.434 580.52 646.136C588.216 651.498 594.564 658.572 599.062 666.804C628.744 722.285 596.204 751.747 584.948 759.715Z" fill="#BEAA71"/>
<path d="M466.459 1006.1H478.395C483.5 1006.1 488.394 1004.07 492.004 1000.46C495.613 996.848 497.644 991.954 497.65 986.849V973.489C497.65 972.271 497.41 971.065 496.943 969.941C496.477 968.815 495.793 967.793 494.932 966.933C494.07 966.072 493.048 965.391 491.922 964.926C490.797 964.46 489.591 964.222 488.373 964.223H416.989C416.992 967.067 416.433 969.883 415.346 972.51C414.259 975.138 412.664 977.525 410.652 979.536C408.641 981.546 406.253 983.139 403.625 984.226C400.997 985.312 398.18 985.869 395.337 985.865H137.387C137.39 991.232 139.523 996.378 143.319 1000.17C147.113 1003.97 152.259 1006.1 157.626 1006.1H507.324C507.78 1006.1 508.234 1006.02 508.656 1005.84C509.078 1005.67 509.462 1005.41 509.785 1005.09C510.108 1004.77 510.364 1004.38 510.538 1003.96C510.712 1003.54 510.801 1003.08 510.8 1002.63V980.944C510.8 976.731 512.473 972.691 515.452 969.713C518.43 966.734 522.471 965.061 526.683 965.061C530.895 965.061 534.935 966.734 537.914 969.713C540.893 972.691 542.566 976.731 542.566 980.944V1002.63C542.565 1003.08 542.653 1003.53 542.827 1003.96C543 1004.38 543.255 1004.76 543.577 1005.08C543.899 1005.41 544.282 1005.66 544.703 1005.84C545.124 1006.01 545.575 1006.1 546.031 1006.1H970.569C970.569 1006.1 957.607 821.213 838.479 731.287C723.194 644.26 615.259 686.203 608.412 689.009L608.077 689.134" stroke="black" stroke-width="4.83" stroke-miterlimit="10"/>
<path d="M489.043 734.261C489.039 735.423 488.69 736.559 488.042 737.524C487.393 738.488 486.474 739.24 485.399 739.681C484.323 740.124 483.142 740.238 482.002 740.009C480.862 739.781 479.816 739.22 478.995 738.398C478.173 737.575 477.614 736.527 477.388 735.387C477.161 734.247 477.277 733.066 477.722 731.991C478.166 730.917 478.919 729.999 479.884 729.352C480.85 728.705 481.986 728.358 483.149 728.356C483.604 728.358 484.057 728.415 484.499 728.524C483.89 728.716 483.358 729.098 482.981 729.615C482.604 730.131 482.402 730.754 482.405 731.392C482.402 731.793 482.478 732.191 482.63 732.563C482.781 732.934 483.004 733.272 483.287 733.557C483.568 733.841 483.904 734.069 484.274 734.223C484.644 734.378 485.04 734.459 485.441 734.46C486.174 734.445 486.88 734.175 487.434 733.695C487.989 733.215 488.358 732.556 488.478 731.832C488.839 732.592 489.032 733.42 489.043 734.261Z" fill="black"/>
<path d="M529.887 735.903C529.889 737.071 529.544 738.215 528.896 739.187C528.249 740.159 527.328 740.918 526.248 741.366C525.17 741.815 523.983 741.934 522.836 741.706C521.69 741.48 520.636 740.918 519.809 740.093C518.983 739.268 518.42 738.216 518.191 737.069C517.962 735.924 518.079 734.737 518.525 733.656C518.972 732.577 519.729 731.654 520.7 731.005C521.671 730.355 522.813 730.008 523.982 730.008C524.263 730.006 524.545 730.039 524.819 730.103C524.297 730.343 523.855 730.729 523.545 731.213C523.234 731.697 523.07 732.26 523.071 732.835C523.035 733.641 523.32 734.428 523.863 735.022C524.408 735.617 525.166 735.972 525.971 736.008C526.776 736.044 527.562 735.758 528.158 735.215C528.753 734.671 529.108 733.914 529.143 733.107C529.627 733.961 529.882 734.923 529.887 735.903Z" fill="black"/>
<path d="M576.991 635.153C576.311 639.739 577.159 643.76 580.53 646.147C588.226 651.508 594.574 658.583 599.072 666.814C634.482 732.974 581.368 762.091 581.368 762.091L574.185 749.527C594.863 738.974 596.978 718.306 580.53 713.238C564.082 708.171 558.606 731.383 558.606 731.383L554.837 687.88C554.837 687.88 547.214 684.1 526.568 687.472C505.921 690.843 502.12 702.245 493.252 697.188C484.384 692.131 479.358 692.539 479.358 692.539C476.835 701.805 470.082 701.805 470.082 701.805C450.294 699.282 445.645 671.903 445.645 671.903C455.686 670.647 456.461 660.972 455.319 653.057C460.879 656.365 468.742 656.606 479.767 649.518C511.397 629.29 543.833 640.252 555.224 641.938C563.097 643.079 572.133 638.263 576.991 635.153Z" stroke="black" stroke-width="4.83" stroke-linecap="round" stroke-linejoin="round"/>
<path d="M595.251 963.24L603.072 960.099L608.935 975.919L608.014 1004.63L600.088 1006.06L570.008 1004.76C570.008 1004.76 572.102 987.258 578.499 978.935C584.896 970.611 595.251 963.24 595.251 963.24Z" fill="#BEAA71"/>
<path d="M458.293 711.479C458.293 711.479 466.302 697.104 483.159 698.601" stroke="black" stroke-width="4.83" stroke-miterlimit="10"/>
<path d="M516.171 698.598C516.171 698.598 535.436 694.274 542.179 704.985" stroke="black" stroke-width="4.83" stroke-miterlimit="10"/>
<path d="M546.021 763.682C546.021 763.682 534.504 757.012 526.076 768.226" stroke="black" stroke-width="4.83" stroke-miterlimit="10"/>
<path d="M473.244 700.905C473.244 700.905 465.046 797.344 526.18 795.564C536.65 795.26 547.057 788.382 557.004 777.315" stroke="black" stroke-width="4.83" stroke-miterlimit="10"/>
<path d="M581.368 786.087L557.004 777.313C557.004 777.313 563.045 796.619 592.968 798.096C622.892 799.572 632.932 730.899 610.945 703.269" stroke="black" stroke-width="4.83" stroke-linejoin="round"/>
<path d="M676.624 979.55C676.624 979.55 654.291 997.674 669.462 1006.1" stroke="black" stroke-width="4.83" stroke-miterlimit="10"/>
<path d="M659.348 962.684C659.348 962.684 620.609 984.608 653.872 1006.1" stroke="black" stroke-width="4.83" stroke-miterlimit="10"/>
<path d="M646.282 945.829C646.282 945.829 594.864 969.91 634.482 1006.11" stroke="black" stroke-width="4.83" stroke-miterlimit="10"/>
<path d="M862.508 1006.1C862.508 1006.1 924.888 1006.1 925.726 945.827C926.564 885.552 804.766 734.197 725.948 713.142C647.13 692.087 643.748 749.787 643.748 752.153C643.748 754.52 639.12 779.375 659.348 805.896C674.969 826.396 743.967 877.573 774.581 899.812C775.705 900.63 776.555 901.771 777.015 903.084C777.475 904.395 777.525 905.816 777.158 907.157C776.791 908.499 776.024 909.696 774.96 910.592C773.895 911.486 772.583 912.035 771.199 912.166L635.801 925.17H635.717C634.44 925.4 586.655 934.216 572.102 949.188C572.102 949.188 563.946 955.229 568.165 964.506C572.384 973.782 585.346 970.725 585.702 970.379" stroke="black" stroke-width="4.83" stroke-miterlimit="10"/>
<path opacity="0.26" d="M523.992 746.855C533.302 746.855 540.849 739.309 540.849 729.999C540.849 720.689 533.302 713.142 523.992 713.142C514.682 713.142 507.135 720.689 507.135 729.999C507.135 739.309 514.682 746.855 523.992 746.855Z" fill="white"/>
<path opacity="0.26" d="M481.212 745.191C490.522 745.191 498.068 737.644 498.068 728.334C498.068 719.024 490.522 711.477 481.212 711.477C471.902 711.477 464.355 719.024 464.355 728.334C464.355 737.644 471.902 745.191 481.212 745.191Z" fill="white"/>
<path d="M626.923 960.582C620.997 958.928 611.312 957.441 601.334 960.645C596.455 962.216 591.953 964.779 588.11 968.173C587.273 968.905 586.467 969.649 585.692 970.392C584.022 972.03 582.445 973.759 580.97 975.575C580.776 975.815 580.5 975.975 580.195 976.025C576.478 976.538 552.01 980.412 552.135 992.777C552.251 1003.89 564.417 1005.71 568.605 1006C568.777 1006.02 568.951 1006 569.116 1005.94C569.28 1005.89 569.432 1005.8 569.561 1005.68C569.689 1005.57 569.793 1005.42 569.864 1005.27C569.937 1005.11 569.974 1004.94 569.976 1004.77C569.976 1000.81 570.877 988.401 580.666 975.92" stroke="black" stroke-width="4.83" stroke-miterlimit="10"/>
<path d="M406.466 873.312C409.335 896.44 391.358 906.9 371.706 908.45" stroke="black" stroke-width="4.83" stroke-miterlimit="10"/>
<path d="M343.144 903.624C335.65 899.576 329.581 893.323 325.756 885.714C321.933 878.103 320.539 869.502 321.764 861.074C324.905 838.825 343.751 821.759 362.199 810.933C400.938 788.203 488.237 804.651 502.905 808.001C514.15 810.577 523.552 801.782 527.363 797.531C527.526 797.351 527.735 797.22 527.969 797.157C528.202 797.092 528.449 797.096 528.681 797.167C528.912 797.239 529.118 797.375 529.274 797.561C529.43 797.746 529.531 797.971 529.562 798.212C537.614 845.327 631.121 909.278 652.752 923.59" stroke="black" stroke-width="4.83" stroke-miterlimit="10"/>
<path d="M430.055 857.317L399.095 876.53C397.251 877.678 395.185 878.428 393.033 878.729C390.881 879.031 388.689 878.877 386.599 878.279C384.51 877.681 382.569 876.652 380.902 875.259C379.234 873.864 377.878 872.135 376.92 870.185C375.193 866.681 374.851 862.655 375.961 858.91C377.071 855.164 379.552 851.974 382.909 849.978L430.024 821.908" stroke="black" stroke-width="4.83" stroke-miterlimit="10"/>
<path d="M523.992 746.855C533.302 746.855 540.849 739.309 540.849 729.999C540.849 720.689 533.302 713.142 523.992 713.142C514.682 713.142 507.135 720.689 507.135 729.999C507.135 739.309 514.682 746.855 523.992 746.855Z" stroke="black" stroke-width="4.83" stroke-miterlimit="10"/>
<path d="M481.212 742.667C489.128 742.667 495.545 736.25 495.545 728.334C495.545 720.418 489.128 714.001 481.212 714.001C473.295 714.001 466.878 720.418 466.878 728.334C466.878 736.25 473.295 742.667 481.212 742.667Z" stroke="white" stroke-width="4.83" stroke-miterlimit="10"/>
<path d="M481.212 745.191C490.522 745.191 498.068 737.644 498.068 728.334C498.068 719.024 490.522 711.477 481.212 711.477C471.902 711.477 464.355 719.024 464.355 728.334C464.355 737.644 471.902 745.191 481.212 745.191Z" stroke="black" stroke-width="4.83" stroke-miterlimit="10"/>
<path d="M507.219 728.336H498.068" stroke="black" stroke-width="4.83" stroke-miterlimit="10"/>
<path d="M507.219 752.155H501.188C500.809 752.155 500.434 752.073 500.091 751.912C499.748 751.75 499.444 751.515 499.202 751.223C498.959 750.93 498.785 750.589 498.69 750.222C498.596 749.854 498.583 749.471 498.655 749.098L502.644 728.336" stroke="black" stroke-width="4.83" stroke-miterlimit="10"/>
<path d="M386.217 809.687C386.217 809.687 364.722 814.325 357.142 846.782C352.535 866.487 346.211 891.625 341.961 908.335C341.415 910.479 341.367 912.718 341.818 914.883C342.271 917.049 343.212 919.082 344.569 920.828C345.927 922.575 347.665 923.988 349.651 924.96C351.638 925.932 353.82 926.438 356.032 926.438C359.335 926.438 362.539 925.314 365.116 923.248C367.694 921.183 369.489 918.301 370.209 915.078L379.202 874.727" stroke="black" stroke-width="4.83" stroke-miterlimit="10"/>
<path d="M405.87 885.555C405.87 885.555 428.432 872.069 472.878 885.555C517.323 899.04 568.416 908.191 585.273 872.425" stroke="black" stroke-width="4.83" stroke-miterlimit="10"/>
<path d="M601.344 960.644C601.344 960.644 617.049 978.568 607.501 1006.1" stroke="black" stroke-width="4.83" stroke-miterlimit="10"/>
<path d="M82.3779 737.747H330.517C338.51 737.736 346.273 740.415 352.557 745.353C358.841 750.292 363.282 757.201 365.162 764.969L404.665 928.573C405.731 932.987 405.782 937.586 404.813 942.023C403.845 946.46 401.881 950.619 399.072 954.188C396.262 957.756 392.68 960.64 388.595 962.623C384.51 964.606 380.027 965.637 375.486 965.637H127.985C120.008 965.644 112.259 962.972 105.983 958.049C99.7062 953.126 95.2648 946.237 93.3714 938.488L53.2294 774.915C52.1455 770.496 52.0804 765.888 53.0389 761.44C53.9974 756.993 55.9546 752.82 58.7623 749.241C61.5702 745.66 65.1552 742.765 69.2463 740.773C73.3376 738.782 77.8279 737.748 82.3779 737.747Z" fill="#BEAA71"/>
<path d="M91.4135 744.786H324.224C331.724 744.795 339.004 747.32 344.897 751.959C350.792 756.596 354.96 763.077 356.734 770.364L393.818 923.844C394.819 927.984 394.869 932.298 393.96 936.461C393.052 940.624 391.211 944.526 388.576 947.873C385.941 951.222 382.581 953.927 378.748 955.788C374.915 957.648 370.71 958.614 366.45 958.614H134.204C126.728 958.599 119.471 956.082 113.59 951.467C107.708 946.85 103.539 940.399 101.747 933.141L64.0554 779.651C63.0376 775.504 62.9762 771.181 63.876 767.006C64.7757 762.833 66.613 758.918 69.2487 755.559C71.8844 752.201 75.2496 749.485 79.0896 747.618C82.9296 745.752 87.1439 744.783 91.4135 744.786Z" fill="#BEAA71"/>
<path d="M82.3779 737.747H330.517C338.51 737.736 346.273 740.415 352.557 745.353C358.841 750.292 363.282 757.201 365.162 764.969L404.665 928.573C405.731 932.987 405.782 937.586 404.813 942.023C403.845 946.46 401.881 950.619 399.072 954.188C396.262 957.756 392.68 960.64 388.595 962.623C384.51 964.606 380.027 965.637 375.486 965.637H127.985C120.008 965.644 112.259 962.972 105.983 958.049C99.7062 953.126 95.2648 946.237 93.3714 938.488L53.2294 774.915C52.1455 770.496 52.0804 765.888 53.0389 761.44C53.9974 756.993 55.9546 752.82 58.7623 749.241C61.5702 745.66 65.1552 742.765 69.2463 740.773C73.3376 738.782 77.8279 737.748 82.3779 737.747Z" stroke="black" stroke-width="4.83" stroke-miterlimit="10"/>
<path d="M198.595 846.719L183.801 777.754C183.494 776.295 182.694 774.986 181.537 774.047C180.38 773.107 178.936 772.594 177.446 772.592H104.239C103.254 772.595 102.283 772.821 101.399 773.255C100.515 773.688 99.7406 774.316 99.1354 775.093C98.5301 775.87 98.1095 776.775 97.9054 777.738C97.7013 778.701 97.719 779.699 97.9573 780.654L115.076 850.426C115.288 851.398 115.742 852.302 116.395 853.054C116.981 853.799 117.728 854.401 118.58 854.817C119.432 855.233 120.368 855.449 121.316 855.451H121.452L192.302 854.614C193.259 854.6 194.201 854.375 195.06 853.955C195.92 853.535 196.677 852.931 197.276 852.185C197.886 851.428 198.321 850.545 198.549 849.601C198.777 848.655 198.793 847.671 198.595 846.719ZM102.847 779.418C102.794 779.212 102.789 778.996 102.832 778.787C102.876 778.579 102.967 778.383 103.098 778.214C103.232 778.039 103.405 777.897 103.603 777.8C103.801 777.701 104.018 777.65 104.239 777.649H177.446C177.775 777.648 178.096 777.76 178.351 777.968C178.608 778.177 178.783 778.467 178.849 778.79L190.114 831.318C152.496 794.998 148.234 836.668 148.234 836.668C127.001 825.612 120.866 837.715 119.086 845.683L102.847 779.418Z" fill="#D7E8F0"/>
<path d="M123.986 804.453C128.069 803.186 130.006 797.773 128.331 792.36C126.656 786.947 121.975 783.597 117.861 784.864C113.746 786.131 111.841 791.544 113.526 796.946C115.212 802.349 119.913 805.72 123.986 804.453Z" fill="#D7E8F0"/>
<path d="M141.91 803.217H165.929C168.912 803.217 171.907 803.217 174.891 803.217H175.32C176.16 803.24 176.995 803.083 177.77 802.756C178.305 802.491 178.761 802.088 179.088 801.59C179.417 801.09 179.607 800.513 179.639 799.916C179.67 799.32 179.544 798.726 179.27 798.194C178.997 797.663 178.588 797.214 178.084 796.893C177.52 796.636 177.006 796.282 176.566 795.846C176.275 795.386 176.075 794.874 175.98 794.338C175.425 792.823 174.354 791.551 172.954 790.747C171.935 790.062 170.79 789.59 169.584 789.357C168.379 789.125 167.139 789.139 165.939 789.396C164.755 789.696 163.671 790.302 162.798 791.155C162.055 791.888 161.908 792.872 161.332 793.689C160.955 794.223 160.714 794.055 160.201 793.762C159.688 793.469 159.406 793.249 158.987 793.04C158.161 792.598 157.303 792.217 156.422 791.898C154.626 791.234 152.711 790.952 150.799 791.071C147.439 791.333 144.088 793.333 142.915 796.495C141.859 796.509 140.841 796.9 140.048 797.596C139.253 798.293 138.733 799.251 138.581 800.295C138.512 800.699 138.538 801.113 138.657 801.504C138.778 801.895 138.988 802.252 139.272 802.546C140.035 803.095 140.977 803.334 141.91 803.217Z" fill="#D7E8F0"/>
<path d="M314.1 801.728L312.174 793.802C310.882 788.474 307.836 783.735 303.524 780.347C299.214 776.959 293.89 775.119 288.407 775.124H261.949C258.93 775.12 255.952 775.814 253.244 777.149C250.538 778.485 248.176 780.428 246.341 782.826C244.508 785.224 243.253 788.013 242.673 790.975C242.093 793.937 242.205 796.994 242.998 799.906L245.186 807.957C246.584 813.138 249.651 817.712 253.911 820.974C258.172 824.235 263.389 826 268.754 825.997H295.055C298.025 825.995 300.957 825.318 303.628 824.017C306.299 822.716 308.64 820.826 310.473 818.489C312.308 816.152 313.587 813.429 314.215 810.526C314.843 807.622 314.804 804.614 314.1 801.728ZM285.004 803.686L275.968 809.245C275.621 809.466 275.226 809.604 274.816 809.647C274.405 809.69 273.99 809.638 273.604 809.493C273.218 809.35 272.87 809.118 272.588 808.817C272.306 808.515 272.098 808.153 271.979 807.759L268.576 796.639C268.434 796.146 268.434 795.622 268.577 795.129C268.721 794.635 269.002 794.193 269.386 793.853C269.771 793.513 270.245 793.289 270.752 793.208C271.26 793.127 271.779 793.192 272.251 793.394L284.784 798.932C285.232 799.134 285.616 799.455 285.895 799.86C286.172 800.265 286.334 800.738 286.361 801.229C286.388 801.721 286.279 802.208 286.048 802.642C285.815 803.075 285.469 803.436 285.046 803.686H285.004Z" fill="white"/>
<path d="M308.195 872.924H261.907C259.788 872.921 257.716 872.301 255.942 871.141C254.169 869.982 252.771 868.331 251.919 866.39C251.655 865.794 251.512 865.149 251.5 864.495C251.511 863.233 252.019 862.026 252.915 861.136C253.812 860.246 255.022 859.745 256.285 859.742H305.494C303.18 863.658 304.352 869.071 308.195 872.924Z" fill="#D7E8F0"/>
<path d="M338.181 868.17C338.178 869.431 337.676 870.638 336.785 871.529C335.895 872.42 334.687 872.922 333.428 872.924H308.195C304.352 869.071 303.18 863.658 305.494 859.742H327.711C329.827 859.743 331.896 860.359 333.669 861.513C335.442 862.666 336.842 864.31 337.699 866.244C337.989 866.847 338.153 867.502 338.181 868.17Z" fill="#BEAA71"/>
<path d="M326.549 872.925C326.418 873.177 326.267 873.419 326.099 873.647C322.79 878.16 315.629 878.579 310.069 874.516C309.405 874.035 308.778 873.503 308.195 872.925C304.352 869.072 303.18 863.659 305.494 859.743C305.623 859.494 305.774 859.256 305.944 859.031C309.221 854.487 316.414 854.089 321.942 858.12C322.612 858.614 323.246 859.157 323.837 859.743C327.711 863.596 328.831 869.009 326.549 872.925Z" fill="white"/>
<path d="M349.771 897.28C349.76 898.543 349.252 899.75 348.356 900.64C347.459 901.53 346.249 902.03 344.986 902.034H161.531C163.876 898.097 162.704 892.705 158.851 888.862H339.364C341.481 888.861 343.553 889.478 345.325 890.637C347.097 891.795 348.493 893.445 349.342 895.385C349.613 895.981 349.76 896.626 349.771 897.28Z" fill="#BEAA71"/>
<path d="M161.531 901.98H138.675C136.559 901.981 134.489 901.367 132.716 900.212C130.943 899.058 129.543 897.413 128.687 895.478C128.418 894.872 128.275 894.216 128.268 893.552C128.267 892.928 128.388 892.31 128.627 891.733C128.866 891.156 129.215 890.633 129.657 890.192C130.099 889.75 130.624 889.402 131.202 889.164C131.779 888.927 132.397 888.807 133.021 888.809H158.851C162.704 892.651 163.876 898.043 161.531 901.98Z" fill="#D7E8F0"/>
<path d="M161.531 901.98C161.423 902.238 161.283 902.481 161.112 902.702C157.835 907.246 150.642 907.634 145.104 903.603C144.437 903.109 143.806 902.566 143.219 901.98C139.397 898.127 138.225 892.745 140.507 888.809C140.634 888.554 140.785 888.312 140.958 888.086C144.266 883.574 151.428 883.155 156.987 887.207C157.651 887.69 158.274 888.226 158.851 888.809C162.704 892.651 163.876 898.043 161.531 901.98Z" fill="white"/>
<path d="M177.718 930.784H148.674C146.559 930.782 144.489 930.167 142.717 929.013C140.944 927.859 139.544 926.216 138.686 924.282C138.398 923.698 138.233 923.059 138.204 922.408C138.207 921.143 138.711 919.931 139.606 919.036C140.5 918.141 141.712 917.637 142.978 917.634H174.985C172.755 921.591 173.896 926.973 177.718 930.784Z" fill="#BEAA71"/>
<path d="M359.728 926.105C359.711 927.361 359.197 928.559 358.298 929.437C357.4 930.314 356.189 930.799 354.933 930.785H177.718C173.896 926.932 172.724 921.551 175.006 917.614H349.321C351.438 917.613 353.51 918.23 355.282 919.389C357.054 920.547 358.45 922.197 359.299 924.137C359.576 924.757 359.722 925.427 359.728 926.105Z" fill="#D7E8F0"/>
<path d="M196.061 930.784C195.934 931.039 195.784 931.28 195.611 931.507C192.334 936.051 185.141 936.438 179.613 932.407C178.943 931.914 178.309 931.371 177.718 930.784C173.896 926.931 172.724 921.55 175.006 917.613C175.137 917.362 175.288 917.12 175.456 916.89C178.765 912.378 185.926 911.98 191.486 916.011C192.152 916.492 192.775 917.028 193.349 917.613C197.202 921.497 198.375 926.91 196.061 930.784Z" fill="white"/>
<g opacity="0.21">
<path opacity="0.21" d="M201.129 849.241L186.366 780.275C186.06 778.816 185.261 777.508 184.103 776.569C182.946 775.631 181.501 775.12 180.011 775.124H106.794C105.802 775.124 104.825 775.351 103.935 775.788C103.045 776.225 102.268 776.862 101.664 777.647C101.064 778.416 100.648 779.313 100.449 780.266C100.249 781.221 100.271 782.21 100.512 783.154L117.63 852.937C117.84 853.908 118.289 854.813 118.939 855.565C119.528 856.309 120.277 856.911 121.131 857.325C121.985 857.738 122.922 857.952 123.871 857.952H124.038L194.878 857.104C195.833 857.092 196.773 856.869 197.631 856.451C198.489 856.034 199.244 855.429 199.841 854.685C200.443 853.928 200.87 853.048 201.093 852.106C201.315 851.166 201.328 850.187 201.129 849.241ZM105.37 781.95C105.317 781.743 105.312 781.526 105.359 781.317C105.404 781.108 105.498 780.912 105.632 780.746C105.763 780.57 105.933 780.427 106.13 780.329C106.326 780.231 106.543 780.18 106.763 780.181H179.969C180.299 780.178 180.619 780.289 180.877 780.495C181.134 780.701 181.312 780.989 181.382 781.311L192.648 833.839C155.019 797.508 150.768 839.189 150.768 839.189C129.545 828.133 123.399 840.236 121.63 848.204L105.37 781.95Z" fill="#D7E8F0"/>
<path opacity="0.21" d="M126.519 806.975C130.592 805.708 132.54 800.296 130.854 794.893C129.168 789.49 124.509 786.119 120.384 787.386C116.259 788.653 114.364 794.066 116.039 799.479C117.714 804.892 122.499 808.284 126.519 806.975Z" fill="#D7E8F0"/>
<path opacity="0.21" d="M144.486 805.747H168.494C171.488 805.747 174.472 805.747 177.466 805.747H177.885C178.726 805.771 179.56 805.614 180.335 805.286C180.873 805.024 181.331 804.622 181.661 804.123C181.992 803.624 182.183 803.045 182.215 802.448C182.247 801.85 182.118 801.254 181.843 800.723C181.569 800.191 181.156 799.743 180.649 799.423C180.09 799.158 179.578 798.804 179.131 798.376C178.848 797.909 178.651 797.395 178.545 796.858C177.99 795.348 176.923 794.081 175.529 793.277C174.511 792.591 173.362 792.116 172.155 791.884C170.948 791.651 169.706 791.666 168.504 791.927C167.34 792.228 166.277 792.836 165.426 793.686C164.672 794.419 164.536 795.392 163.96 796.219C163.583 796.753 163.342 796.586 162.829 796.282C162.316 795.979 162.034 795.78 161.615 795.56C160.789 795.121 159.931 794.744 159.05 794.429C157.254 793.762 155.339 793.476 153.427 793.591C150.066 793.853 146.716 795.863 145.533 799.015C144.477 799.033 143.461 799.425 142.668 800.124C141.876 800.822 141.359 801.781 141.209 802.826C141.141 803.229 141.168 803.642 141.285 804.032C141.404 804.422 141.61 804.78 141.889 805.077C142.645 805.607 143.568 805.846 144.486 805.747Z" fill="#D7E8F0"/>
<path opacity="0.21" d="M316.675 804.251L314.749 796.336C313.455 791.005 310.407 786.266 306.096 782.875C301.783 779.486 296.457 777.645 290.972 777.647H264.472C261.457 777.645 258.482 778.338 255.778 779.673C253.073 781.007 250.713 782.946 248.881 785.34C247.048 787.734 245.792 790.519 245.208 793.476C244.626 796.435 244.733 799.488 245.521 802.398L247.71 810.46C249.109 815.641 252.178 820.217 256.441 823.477C260.703 826.738 265.921 828.504 271.288 828.5H297.589C300.56 828.501 303.493 827.827 306.166 826.53C308.839 825.233 311.183 823.345 313.02 821.01C314.859 818.676 316.143 815.954 316.775 813.051C317.408 810.149 317.375 807.14 316.675 804.251ZM287.569 806.188L278.502 811.779C278.154 812.001 277.761 812.138 277.351 812.181C276.942 812.224 276.528 812.172 276.142 812.027C275.757 811.884 275.409 811.651 275.128 811.351C274.848 811.049 274.641 810.687 274.523 810.292L271.173 799.163C271.033 798.671 271.035 798.148 271.179 797.656C271.324 797.165 271.604 796.724 271.99 796.385C272.374 796.047 272.846 795.824 273.353 795.743C273.858 795.662 274.377 795.726 274.848 795.927L287.286 801.456C287.728 801.66 288.105 801.98 288.379 802.382C288.654 802.783 288.814 803.252 288.842 803.738C288.871 804.223 288.769 804.707 288.544 805.139C288.32 805.57 287.982 805.932 287.569 806.188Z" fill="#D7E8F0"/>
<path opacity="0.21" d="M310.729 875.446H264.441C262.324 875.442 260.253 874.823 258.479 873.665C256.707 872.508 255.308 870.86 254.452 868.923C254.126 868.2 253.987 867.406 254.05 866.616C254.112 865.825 254.374 865.063 254.809 864.399C255.244 863.736 255.84 863.194 256.541 862.822C257.242 862.451 258.025 862.262 258.818 862.275H308.027C305.724 866.18 306.876 871.603 310.729 875.446Z" fill="#D7E8F0"/>
<path opacity="0.21" d="M340.652 870.692C340.652 871.951 340.152 873.158 339.264 874.049C338.375 874.94 337.167 875.443 335.909 875.445H310.729C306.876 871.602 305.703 866.179 308.017 862.274H330.245C332.361 862.273 334.432 862.886 336.205 864.041C337.979 865.195 339.378 866.841 340.233 868.776C340.501 869.38 340.643 870.032 340.652 870.692Z" fill="#BEAA71"/>
<path opacity="0.21" d="M329.072 875.447C328.948 875.704 328.798 875.945 328.622 876.169C325.313 880.682 318.152 881.101 312.592 877.049C311.931 876.563 311.308 876.028 310.729 875.447C306.876 871.605 305.703 866.181 308.017 862.276C308.148 862.021 308.302 861.779 308.478 861.553C311.755 857.009 318.948 856.622 324.476 860.653C325.147 861.146 325.78 861.688 326.371 862.276C330.192 866.129 331.365 871.51 329.072 875.447Z" fill="white"/>
<path opacity="0.21" d="M352.295 899.756C352.283 901.018 351.774 902.225 350.878 903.113C349.983 904.001 348.771 904.499 347.51 904.499H164.065C166.41 900.562 165.237 895.181 161.385 891.328H341.887C344.007 891.328 346.082 891.946 347.855 893.107C349.63 894.267 351.027 895.919 351.876 897.861C352.145 898.458 352.287 899.103 352.295 899.756Z" fill="#BEAA71"/>
<path opacity="0.21" d="M164.065 904.499H141.198C139.085 904.498 137.016 903.885 135.243 902.733C133.471 901.58 132.07 899.939 131.21 898.008C130.947 897.399 130.805 896.745 130.791 896.081C130.791 894.821 131.292 893.612 132.184 892.72C133.075 891.829 134.284 891.328 135.545 891.328H161.385C165.238 895.181 166.41 900.562 164.065 904.499Z" fill="#D7E8F0"/>
<path opacity="0.21" d="M164.065 904.502C163.957 904.762 163.813 905.006 163.636 905.225C160.358 909.769 153.166 910.167 147.637 906.136C146.966 905.638 146.333 905.092 145.742 904.502C141.921 900.66 140.748 895.268 143.041 891.331C143.165 891.075 143.315 890.832 143.491 890.609C146.8 886.096 153.961 885.677 159.521 889.74C160.179 890.224 160.802 890.756 161.385 891.331C165.237 895.184 166.41 900.566 164.065 904.502Z" fill="white"/>
<path opacity="0.21" d="M180.241 933.345H151.155C149.041 933.341 146.975 932.726 145.202 931.575C143.431 930.423 142.029 928.783 141.167 926.854C140.904 926.256 140.762 925.612 140.748 924.959C140.753 923.692 141.259 922.477 142.155 921.582C143.052 920.686 144.266 920.179 145.533 920.174H177.54C175.247 924.111 176.419 929.503 180.241 933.345Z" fill="#BEAA71"/>
<path opacity="0.21" d="M362.262 928.623C362.261 929.246 362.136 929.862 361.897 930.436C361.657 931.01 361.306 931.532 360.865 931.97C360.423 932.409 359.9 932.757 359.324 932.992C358.748 933.228 358.13 933.348 357.509 933.345H180.241C176.419 929.503 175.247 924.111 177.54 920.174H351.844C353.964 920.174 356.039 920.792 357.812 921.952C359.586 923.113 360.984 924.765 361.833 926.707C362.105 927.31 362.25 927.962 362.262 928.623Z" fill="#D7E8F0"/>
<path opacity="0.21" d="M198.595 933.347C198.464 933.602 198.31 933.843 198.134 934.07C194.857 938.614 187.664 939.011 182.136 934.98C181.465 934.483 180.831 933.938 180.241 933.347C176.419 929.505 175.247 924.113 177.54 920.176C177.663 919.919 177.814 919.678 177.99 919.453C181.298 914.941 188.46 914.554 194.02 918.584C194.678 919.069 195.301 919.601 195.883 920.176C199.736 924.029 200.909 929.442 198.595 933.347Z" fill="white"/>
</g>
</svg>
