<svg width="54" height="54" viewBox="0 0 54 54" fill="none" xmlns="http://www.w3.org/2000/svg">
<path d="M21.8955 42.2803L17.7063 34.02C17.7063 34.02 16.9975 29.3751 17.47 23.2242C17.8835 17.858 18.9255 14.0822 21.7141 10.7198C23.8783 8.11265 27.3208 5.46749 30.7422 4.22718C34.1636 2.98687 34.518 2.9278 34.518 3.34124C34.518 3.75468 29.1518 6.18046 25.435 11.3695C21.7183 16.5586 21.8955 21.5156 21.6593 24.7598C21.423 28.0041 21.8955 42.2803 21.8955 42.2803Z" fill="#717F35"/>
<path d="M8.20978 20.3386C10.4626 24.3759 12.6015 31.9148 15.0695 37.6017C17.3687 42.9089 19.7734 47.0011 21.8954 49.005C24.0174 51.0089 25.9538 50.8317 26.7934 50.1272C28.0548 49.0641 27.3924 46.1152 27.384 44.4066C27.3671 41.3522 27.9493 39.2428 28.8606 37.6819C29.6621 36.3108 31.164 34.9186 32.7545 35.3953C34.6656 35.9691 35.9396 37.8591 36.5302 38.745C37.1209 39.6309 38.0068 41.3986 38.416 41.3986C38.8252 41.3986 38.1545 36.8381 36.2096 34.1634C34.2859 31.5183 31.5226 30.9994 29.042 32.0794C23.5028 34.4925 23.3467 41.8163 23.3467 41.8163C23.3467 41.8163 19.8367 38.8589 17.4193 31.1344C16.8287 29.2486 14.9724 22.5492 13.1288 19.8155C10.2938 15.6094 7.26478 14.7319 5.55619 14.1413C3.8476 13.5506 1.78041 12.96 1.72135 13.3144C1.66229 13.673 5.67432 15.795 8.20978 20.3386Z" fill="#94A61D"/>
<path d="M25.0764 44.5458C24.9076 43.373 24.3761 40.306 24.587 36.4542C24.7304 33.7753 25.4687 29.3245 29.5272 27.8649C32.7925 26.692 35.3406 26.6794 38.8168 28.35C42.04 29.8983 40.4875 27.8311 38.9729 27.0464C37.9225 26.5022 33.4464 24.2409 29.0125 25.747C23.8571 27.4978 22.4818 33.6572 22.4818 33.6572C22.4818 33.6572 22.1064 26.9578 23.4859 23.6545C24.8654 20.347 27.3461 17.6428 26.6668 17.4192C26.4137 17.3348 23.2834 18.6131 21.52 22.6505C19.6384 26.962 19.554 30.8559 19.6764 33.075C19.7987 35.2941 20.1151 37.4752 20.1151 37.4752C20.1151 37.4752 20.9926 39.5128 22.0262 40.8333C22.9839 42.061 25.127 44.9044 25.0764 44.5458Z" fill="#FFBD13"/>
<path d="M28.3625 11.3273C28.1558 11.2851 25.962 12.1289 24.8567 14.7783C23.7514 17.4276 24.6922 19.613 24.6922 19.613C24.6922 19.613 27.6453 17.0437 28.198 15.4448C28.7506 13.8417 28.6409 11.3822 28.3625 11.3273Z" fill="#FFBD13"/>
<path d="M33.889 18.8367C33.9186 18.7017 31.6531 16.7948 29.9108 16.7653C28.1726 16.7358 26.0464 18.2292 26.0464 18.2292C26.0464 18.2292 26.772 19.9673 29.5269 20.2711C31.5139 20.4947 33.8342 19.0856 33.889 18.8367ZM29.1936 15.6347C29.3876 15.7992 31.6236 15.5503 32.9187 14.0189C34.2814 12.4073 34.3025 8.75812 33.889 8.75812C33.3954 8.75812 33.0622 9.28125 32.2058 9.80859C31.3493 10.3317 29.7758 11.88 29.3623 13.0655C28.9447 14.2552 28.9995 15.4702 29.1936 15.6347ZM31.3915 15.8962C31.4379 16.3856 33.1676 18.0014 35.0872 18.0858C37.0067 18.1702 38.7026 17.4445 38.7026 17.1577C38.7026 16.8708 37.4792 14.7234 35.3572 14.5125C33.0622 14.2889 31.3704 15.6727 31.3915 15.8962ZM34.2181 13.8122C34.4459 14.2045 37.0868 13.7109 38.3272 12.015C39.4704 10.4541 39.2553 8.69062 39.1329 8.46281C39.0106 8.235 37.1712 8.42062 35.7031 10.1166C34.4881 11.5214 34.0114 13.4494 34.2181 13.8122ZM36.9645 13.8122C36.9518 14.1834 38.0572 15.6937 39.3186 16.2717C41.217 17.1408 43.6343 16.6219 43.7398 16.2928C43.8411 15.9637 42.7062 13.7362 41.179 13.0697C39.3818 12.285 36.9856 13.2131 36.9645 13.8122ZM39.6729 12.1162C39.6729 12.6141 42.6472 12.5297 43.7018 11.8083C44.7565 11.0869 45.8492 9.14203 46.0981 8.87625C46.347 8.61047 46.3892 8.34047 45.8492 8.17594C45.3134 8.0114 42.6682 7.92703 41.1411 9.06609C39.6139 10.2052 39.6729 12.015 39.6729 12.1162ZM43.0184 12.7786C42.7442 12.9347 43.1618 13.462 43.3686 13.8923C43.5753 14.3269 44.2756 16.0819 45.807 16.8455C47.2709 17.5753 49.2579 17.5289 49.3381 17.4234C49.4225 17.3222 48.9922 14.8669 47.4987 13.7489C45.6804 12.3862 43.5331 12.4917 43.0184 12.7786ZM45.267 11.8294C45.3176 12.0698 47.3342 13.1287 49.047 13.2764C50.7598 13.4241 52.4557 11.707 52.4768 11.5214C52.4979 11.3358 50.9286 9.66094 49.1525 9.72422C46.8195 9.80437 45.2079 11.5383 45.267 11.8294ZM37.7112 20.9587C37.6775 20.5664 34.467 20.5031 32.8386 22.1991C31.2059 23.8908 31.1637 25.5023 31.1637 25.5023L32.3408 26.2659C32.3408 26.2659 34.5936 25.2745 35.8086 24.0975C37.2261 22.7264 37.7492 21.4312 37.7112 20.9587Z" fill="#FFBD13"/>
<path d="M34.7876 31.86C35.3065 31.8811 35.2011 29.6916 34.7032 28.3289C34.1759 26.8819 32.7837 25.8525 32.7837 25.8525L31.0498 26.2238C31.0498 26.2238 31.0878 27.9408 31.9231 29.43C33.0326 31.3959 34.3109 31.8389 34.7876 31.86ZM35.2728 26.5739C35.2728 26.5739 35.0998 28.3416 35.914 29.9827C36.762 31.6955 38.6182 32.6869 39.0317 32.5224C39.4451 32.3578 39.2384 30.2695 38.9684 29.2781C38.6984 28.2867 37.4623 26.7384 37.4623 26.7384L35.2728 26.5739ZM35.045 25.7091C35.045 25.7091 36.3654 23.5617 37.977 22.8994C40.2762 21.9544 43.204 23.1272 43.2209 23.5617C43.242 23.9963 41.2381 25.4602 40.2467 25.8356C39.2553 26.2069 37.2303 26.557 37.2303 26.557L35.045 25.7091ZM43.3053 25.7681C41.5503 25.8441 39.8164 26.8439 39.7742 27.4008C39.732 27.9577 41.2803 29.198 43.4487 29.198C45.6172 29.198 46.9587 27.7509 46.9587 27.5442C46.9629 27.3375 45.7226 25.6669 43.3053 25.7681Z" fill="#FFBD13"/>
<path d="M40.2931 28.1728C39.8332 28.0884 39.3438 30.4256 40.1285 32.2819C40.9132 34.1423 43.0184 35.0705 43.1871 35.1338C43.7271 35.3363 43.5795 32.0372 42.9382 30.6914C42.3518 29.468 40.9512 28.2994 40.2931 28.1728ZM43.3052 29.8139C43.1238 30.1303 43.5331 32.2523 44.4823 33.4884C45.9673 35.4291 48.2201 35.5725 48.4479 35.4713C48.6757 35.37 48.4057 32.4127 46.9629 31.012C45.5749 29.6663 43.4698 29.5228 43.3052 29.8139Z" fill="#FFBD13"/>
</svg>
