<svg width="904" height="1024" viewBox="0 0 904 1024" fill="none" xmlns="http://www.w3.org/2000/svg">
<g clip-path="url(#clip0_390_936)">
<mask id="mask0_390_936" style="mask-type:luminance" maskUnits="userSpaceOnUse" x="-30" y="0" width="934" height="1069">
<path d="M904 0H-30V1069H904V0Z" fill="white"/>
</mask>
<g mask="url(#mask0_390_936)">
<path d="M583.078 201.443V-383.107H817.045V278.069" stroke="#A0977C" stroke-width="4.82" stroke-miterlimit="10"/>
<path d="M606.334 8.55324V42.7613H636.222V-20.0105H606.334V8.55324ZM611.247 -14.4089H631.272V8.55324H611.247V-14.4089ZM611.247 14.1654H631.272V37.149H611.247V14.1654Z" fill="#9B8B5E"/>
<path d="M659.031 8.55324V42.7613H688.919V-20.0105H659.031V8.55324ZM663.962 -14.3876H684.024V8.55324H663.962V-14.3876ZM663.962 14.1868H684.024V37.149H663.962V14.1868Z" fill="#9B8B5E"/>
<path d="M710.288 8.55324V42.7613H740.176V-20.0105H710.288V8.55324ZM715.201 -14.4089H735.264V8.55324H715.201V-14.4089ZM715.201 14.1654H735.264V37.149H715.201V14.1654Z" fill="#9B8B5E"/>
<path d="M758.539 8.55324V42.7613H788.427V-20.0105H758.539V8.55324ZM763.442 -14.4089H783.514V8.55324H763.442V-14.4089ZM763.442 14.1654H783.514V37.149H763.442V14.1654Z" fill="#9B8B5E"/>
<path d="M572.757 728.127C564.865 737.235 557.047 747.369 548.716 756.573C546.425 759.132 544.08 761.605 541.683 763.992C539.021 766.643 536.275 769.166 533.464 771.475C533.259 770.801 533.01 770.148 532.716 769.518C528 758.828 515.204 752.062 513.616 739.939C512.169 728.619 521.088 718.217 519.631 707.121C517.987 694.571 504.5 687.12 502.007 674.859C500.419 667.247 501.838 658.471 501.259 650.624C500.597 641.851 499.301 633.155 497.383 624.626C498.317 624.551 499.251 624.519 500.185 624.487C519.146 624.124 537.807 636.31 543.943 653.436C548.884 667.333 546.372 683.272 552.938 696.26C553.333 697.1 553.779 697.907 554.273 698.676C555.144 700.039 556.079 701.345 557.075 702.588L559.158 705.069C559.504 705.464 559.887 705.827 560.232 706.255C560.578 706.683 560.951 707.057 561.297 707.484C564.566 711.066 567.9 714.668 570.067 718.944C570.263 719.316 570.438 719.701 570.59 720.099C570.787 720.495 570.962 720.907 571.113 721.328C571.309 721.788 571.459 722.226 571.599 722.654C571.739 723.081 571.916 723.723 572.066 724.172C572.271 724.973 572.468 725.732 572.617 726.523C572.617 726.726 572.617 726.898 572.673 727.058C572.729 727.218 572.673 727.186 572.673 727.261C572.686 727.324 572.686 727.39 572.673 727.453C572.673 727.592 572.673 727.689 572.729 727.785V727.849C572.715 727.943 572.725 728.039 572.757 728.127Z" fill="white"/>
<path d="M572.878 728.791H572.908L572.878 728.824V728.791Z" fill="white"/>
<path d="M572.934 728.729C573.168 728.493 573.364 728.333 573.597 728.098C573.401 728.301 573.168 728.525 572.962 728.761C572.962 728.761 572.962 728.761 572.906 728.761L572.934 728.729Z" fill="white"/>
<path d="M639.314 676.1C639.113 679.827 639.113 683.564 639.314 687.292C633.616 688.885 628.003 690.638 622.502 692.755C619.083 694.048 615.73 695.47 612.377 697.095C603.075 701.413 594.315 707.129 586.328 714.092C588.068 710.696 589.293 706.987 589.952 703.124C589.952 702.964 590.008 702.793 590.036 702.6C591.484 694.593 591.596 686.18 594.893 678.526C601.029 664.415 618.971 654.185 637.754 653.522H638.099C639.809 653.522 641.546 653.522 643.283 653.619C641.338 660.951 640.009 668.479 639.314 676.1Z" fill="white"/>
<path d="M630.777 665.795L622.446 692.712C619.027 694.005 615.674 695.427 612.321 697.052C617.673 685.143 623.8 674.379 630.777 665.795Z" fill="white"/>
<path d="M572.972 728.832C572.972 728.619 572.943 728.406 572.888 728.202C572.944 728.597 572.972 728.832 572.972 728.832Z" fill="white"/>
<path d="M509.619 638.74C528.299 666.459 540.702 713.57 548.716 756.576C546.425 759.134 544.08 761.607 541.683 763.995L509.619 638.74Z" fill="white"/>
<path d="M575.578 685.475C571.842 698.527 571.701 711.709 572.14 720.058C572.253 722.755 572.503 725.443 572.888 728.107L575.578 685.475Z" fill="white"/>
<path d="M572.757 728.127C564.865 737.235 557.047 747.369 548.716 756.573C546.425 759.132 544.08 761.605 541.683 763.992C539.021 766.643 536.275 769.166 533.464 771.475C533.259 770.801 533.01 770.148 532.716 769.518C528 758.828 515.204 752.062 513.616 739.939C512.169 728.619 521.088 718.217 519.631 707.121C517.987 694.571 504.5 687.12 502.007 674.859C500.419 667.247 501.838 658.471 501.259 650.624C500.597 641.851 499.301 633.155 497.383 624.626C498.317 624.551 499.251 624.519 500.185 624.487C519.146 624.124 537.807 636.31 543.943 653.436C548.884 667.333 546.372 683.272 552.938 696.26C553.333 697.1 553.779 697.907 554.273 698.676C555.144 700.039 556.079 701.345 557.075 702.588L559.158 705.069C559.504 705.464 559.887 705.827 560.232 706.255C560.578 706.683 560.951 707.057 561.297 707.484C564.566 711.066 567.9 714.668 570.067 718.944C570.263 719.316 570.438 719.701 570.59 720.099C570.787 720.495 570.962 720.907 571.113 721.328C571.309 721.788 571.459 722.226 571.599 722.654C571.739 723.081 571.916 723.723 572.066 724.172C572.271 724.973 572.468 725.732 572.617 726.523C572.617 726.726 572.617 726.898 572.673 727.058C572.729 727.218 572.673 727.186 572.673 727.261C572.686 727.324 572.686 727.39 572.673 727.453C572.673 727.592 572.673 727.689 572.729 727.785V727.849C572.715 727.943 572.725 728.039 572.757 728.127Z" stroke="#A0977C" stroke-width="4.65" stroke-miterlimit="10"/>
<path d="M589.952 703.156C589.291 707.009 588.065 710.705 586.328 714.092" stroke="#A0977C" stroke-width="4.65" stroke-miterlimit="10"/>
<path d="M639.286 687.29C639.085 683.563 639.085 679.825 639.286 676.098C639.982 668.487 641.312 660.97 643.255 653.649C641.518 653.52 639.781 653.52 638.071 653.552H637.726C618.943 654.215 601.001 664.445 594.865 678.556C591.568 686.21 591.456 694.591 590.008 702.63" stroke="#A0977C" stroke-width="4.65" stroke-miterlimit="10"/>
<path d="M589.961 703.168C589.961 702.997 590.017 702.837 590.045 702.633" stroke="#A0977C" stroke-width="4.65" stroke-miterlimit="10"/>
<path d="M590.036 702.587C590.036 702.78 589.98 702.951 589.952 703.111C589.294 706.979 588.069 710.691 586.328 714.09" stroke="#A0977C" stroke-width="4.65" stroke-miterlimit="10"/>
<path d="M589.961 703.168C589.961 702.997 590.017 702.837 590.045 702.633" stroke="#A0977C" stroke-width="4.65" stroke-miterlimit="10"/>
<path d="M572.878 728.632V728.795" stroke="#A0977C" stroke-width="4.65" stroke-miterlimit="10"/>
<path d="M630.777 665.795C623.8 674.347 617.701 685.143 612.321 697.095" stroke="#A0977C" stroke-width="4.65" stroke-miterlimit="10"/>
<path d="M572.972 728.832C572.972 728.619 572.943 728.406 572.888 728.202C572.944 728.597 572.972 728.832 572.972 728.832Z" stroke="#A0977C" stroke-width="4.65" stroke-miterlimit="10"/>
<path d="M509.619 638.74C528.299 666.459 540.702 713.57 548.716 756.576" stroke="#A0977C" stroke-width="4.65" stroke-miterlimit="10"/>
<path d="M575.578 685.475C571.842 698.527 571.701 711.709 572.14 720.058C572.253 722.755 572.503 725.443 572.888 728.107" stroke="#A0977C" stroke-width="4.65" stroke-miterlimit="10"/>
<path d="M774.249 377.762C786.139 428.732 798.402 483.647 797.393 536.038C796.319 591.252 771.755 637.593 727.745 661.111C699.099 676.409 668.305 679.22 639.286 687.27C633.588 688.862 627.975 690.616 622.474 692.732C619.055 694.026 615.702 695.447 612.349 697.072C603.055 701.401 594.304 707.123 586.328 714.091" stroke="#A0977C" stroke-width="4.65" stroke-miterlimit="10"/>
<path d="M299.02 87.6576C299.02 87.6576 243.578 73.1727 197.429 91.025C191.68 93.1929 186.11 95.9402 180.785 99.2349C154.633 115.431 134.898 145.865 136.345 201.143C137.121 230.006 135.645 258.473 130.676 286.096C129.051 295.061 127.043 303.934 124.652 312.714C118.795 334.182 110.341 354.605 99.5365 373.391C65.128 433.105 70.3397 495.171 108.503 552.726C110.502 555.741 112.556 558.723 114.667 561.642" stroke="#A0977C" stroke-width="4.65" stroke-miterlimit="10"/>
<path d="M702.994 61.2126H361.748C322.39 61.2126 290.483 97.7304 290.483 142.778V510.877C290.483 555.924 322.39 592.442 361.748 592.442H702.994C742.352 592.442 774.258 555.924 774.258 510.877V142.778C774.258 97.7304 742.352 61.2126 702.994 61.2126Z" fill="#BEAA71"/>
<path d="M698.258 53.45H359.422C317.449 53.45 283.422 92.3943 283.422 140.434V505.455C283.422 553.495 317.449 592.44 359.422 592.44H698.258C740.231 592.44 774.258 553.495 774.258 505.455V140.434C774.258 92.3943 740.231 53.45 698.258 53.45Z" stroke="black" stroke-width="4.65" stroke-miterlimit="10"/>
<path d="M693.476 71.6562H371.265C331.907 71.6562 300.001 108.174 300.001 153.221V500.421C300.001 545.469 331.907 581.986 371.265 581.986H693.476C732.834 581.986 764.741 545.469 764.741 500.421V153.221C764.741 108.174 732.834 71.6562 693.476 71.6562Z" fill="#BEAA71"/>
<path d="M709.831 98.444H612.517C599.292 98.444 588.56 111.657 588.56 127.917V385.717C588.56 402.008 599.292 415.253 612.517 415.253H709.831C723.084 415.253 733.853 402.008 733.853 385.717V127.917C733.853 111.657 723.084 98.444 709.831 98.444ZM726.96 386.839C726.944 392.258 725.054 397.45 721.705 401.281C718.355 405.112 713.819 407.272 709.084 407.289H613.33C608.588 407.272 604.044 405.11 600.689 401.276C597.333 397.441 595.438 392.245 595.416 386.818V126.858C595.438 121.431 597.333 116.233 600.689 112.399C604.044 108.564 608.588 106.404 613.33 106.387H709.084C713.822 106.404 718.362 108.567 721.711 112.402C725.061 116.238 726.948 121.435 726.96 126.858V386.839Z" fill="#9B8B5E"/>
<path d="M708.551 445.506H611.238C598.022 445.506 587.281 458.718 587.281 474.978V514.189C587.281 530.491 598.022 543.736 611.238 543.736H708.551C721.805 543.736 732.574 530.491 732.574 514.189V474.978C732.574 458.718 721.805 445.506 708.551 445.506ZM725.681 515.322C725.669 520.744 723.781 525.94 720.431 529.774C717.082 533.608 712.541 535.769 707.804 535.783H612.05C607.309 535.769 602.766 533.609 599.41 529.777C596.054 525.944 594.159 520.748 594.136 515.322V473.92C594.159 468.492 596.054 463.296 599.41 459.461C602.765 455.626 607.308 453.465 612.05 453.448H707.804C712.542 453.465 717.082 455.628 720.432 459.464C723.781 463.299 725.669 468.497 725.681 473.92V515.322Z" fill="#9B8B5E"/>
<path d="M490.472 474.007L347.868 471.613C346.334 471.584 344.872 470.86 343.805 469.6C342.736 468.339 342.149 466.644 342.171 464.889C342.169 464.28 342.245 463.675 342.395 463.093C342.763 461.711 343.513 460.504 344.532 459.652C345.551 458.8 346.784 458.349 348.046 458.368L490.649 460.741C489.582 462.636 488.986 464.827 488.921 467.08C488.844 469.512 489.383 471.917 490.472 474.007Z" fill="#BEAA71"/>
<path d="M525.048 469.729C524.687 471.108 523.946 472.317 522.937 473.176C521.927 474.035 520.703 474.498 519.444 474.497L509.17 474.326C510.273 472.356 510.872 470.072 510.904 467.732C510.935 465.393 510.397 463.09 509.348 461.081L519.622 461.252C521.154 461.288 522.612 462.015 523.678 463.275C524.745 464.533 525.334 466.223 525.319 467.976C525.302 468.573 525.21 469.163 525.048 469.729Z" fill="#9B8B5E"/>
<path d="M524.712 496.015C524.351 497.392 523.609 498.598 522.599 499.451C521.589 500.305 520.364 500.761 519.108 500.751L377.374 498.377C378.697 496.571 379.546 494.372 379.822 492.035C380.098 489.698 379.79 487.32 378.933 485.175L519.239 487.463C520.771 487.497 522.23 488.223 523.298 489.482C524.365 490.742 524.954 492.433 524.936 494.187C524.941 494.806 524.865 495.422 524.712 496.015Z" fill="#9B8B5E"/>
<path d="M360.319 498.079L347.542 497.865C346.011 497.84 344.551 497.122 343.481 495.867C342.412 494.613 341.82 492.925 341.835 491.173C341.841 490.556 341.92 489.94 342.068 489.345C342.427 487.97 343.168 486.765 344.18 485.916C345.192 485.067 346.418 484.619 347.672 484.642L359.058 484.845C358.392 486.426 358.016 488.147 357.956 489.901C357.861 492.863 358.699 495.766 360.319 498.079Z" fill="#BEAA71"/>
<path d="M480.384 526.675L348.065 524.473C346.534 524.434 345.078 523.706 344.011 522.448C342.945 521.19 342.354 519.502 342.367 517.749C342.371 517.154 342.452 516.563 342.61 515.996C342.969 514.615 343.709 513.404 344.719 512.545C345.73 511.686 346.955 511.224 348.214 511.228L480.338 513.451C479.259 515.436 478.687 517.726 478.687 520.063C478.687 522.401 479.259 524.691 480.338 526.675H480.384Z" fill="#BEAA71"/>
<path d="M525.263 522.601C524.904 523.979 524.163 525.185 523.152 526.037C522.141 526.89 520.914 527.342 519.659 527.326L498.868 527.016L480.384 526.727C479.306 524.743 478.734 522.453 478.734 520.115C478.734 517.779 479.306 515.489 480.384 513.504L499.214 513.824L519.762 514.166C521.291 514.195 522.749 514.915 523.816 516.169C524.884 517.423 525.474 519.108 525.459 520.858C525.466 521.447 525.4 522.034 525.263 522.601Z" fill="#9B8B5E"/>
<path d="M509.114 474.327C507.678 476.896 505.476 478.782 502.918 479.632C500.359 480.483 497.618 480.243 495.202 478.956C492.786 477.669 490.861 475.422 489.784 472.633C488.706 469.843 488.549 466.701 489.343 463.79C490.137 460.878 491.827 458.396 494.098 456.802C496.371 455.209 499.071 454.614 501.697 455.127C504.324 455.64 506.698 457.226 508.38 459.591C510.062 461.957 510.937 464.94 510.842 467.988C510.774 470.24 510.177 472.43 509.114 474.327Z" fill="white"/>
<g opacity="0.72">
<path opacity="0.72" d="M504.976 466.629C504.729 468.133 504.11 469.525 503.192 470.638C502.746 471.204 502.258 471.726 501.735 472.199C501.446 472.434 499.942 473.813 499.653 473.642C497.673 472.498 495.179 469.622 494.871 466.811C494.819 466.37 494.819 465.925 494.871 465.485C494.98 464.728 495.323 464.041 495.837 463.549C496.351 463.056 497.002 462.791 497.673 462.802C498.112 462.82 498.541 462.957 498.925 463.2C499.31 463.443 499.639 463.787 499.886 464.202C500.166 463.815 500.519 463.507 500.919 463.297C501.319 463.088 501.754 462.985 502.193 462.994C502.588 463.009 502.977 463.117 503.334 463.312C503.692 463.505 504.012 463.781 504.272 464.122C504.533 464.462 504.73 464.861 504.851 465.292C504.973 465.724 505.015 466.178 504.976 466.629Z" fill="#BEAA71"/>
</g>
<path d="M377.355 498.379C376.309 499.814 374.995 500.964 373.51 501.744C372.025 502.523 370.408 502.912 368.774 502.883C367.142 502.855 365.534 502.409 364.072 501.578C362.608 500.746 361.326 499.551 360.319 498.08C358.707 495.764 357.874 492.861 357.974 489.902C358.036 488.148 358.411 486.427 359.076 484.846C360.014 482.665 361.483 480.841 363.307 479.595C365.129 478.349 367.228 477.733 369.35 477.823C371.394 477.896 373.379 478.629 375.076 479.935C376.772 481.242 378.112 483.069 378.943 485.209C379.799 487.354 380.107 489.731 379.832 492.068C379.555 494.405 378.706 496.604 377.383 498.412L377.355 498.379Z" fill="white"/>
<g opacity="0.72">
<path opacity="0.72" d="M374.039 489.433C373.786 490.934 373.164 492.32 372.246 493.431C371.807 494.005 371.318 494.528 370.789 494.992C370.509 495.227 368.996 496.617 368.715 496.435C366.735 495.302 364.242 492.426 363.924 489.604C363.873 489.164 363.873 488.718 363.924 488.279C364.02 487.652 364.277 487.073 364.661 486.614C365.046 486.155 365.541 485.838 366.083 485.701C366.625 485.565 367.191 485.616 367.708 485.849C368.225 486.081 368.67 486.484 368.986 487.006C369.357 486.417 369.891 485.989 370.502 485.792C371.113 485.595 371.763 485.642 372.348 485.924C372.932 486.206 373.416 486.706 373.721 487.344C374.024 487.981 374.13 488.718 374.021 489.433H374.039Z" fill="#BEAA71"/>
</g>
<path d="M498.868 527.016C497.549 529.295 495.617 531.02 493.364 531.93C491.111 532.84 488.661 532.885 486.384 532.056C484.107 531.229 482.128 529.573 480.748 527.342C479.366 525.111 478.658 522.426 478.731 519.693C478.8 517.503 479.364 515.37 480.366 513.504C481.134 512.097 482.139 510.878 483.321 509.918C484.503 508.959 485.84 508.277 487.254 507.912C488.668 507.546 490.132 507.506 491.559 507.791C492.987 508.076 494.351 508.684 495.573 509.575C496.795 510.468 497.85 511.629 498.678 512.991C499.506 514.353 500.09 515.888 500.396 517.509C500.703 519.131 500.725 520.806 500.464 522.437C500.201 524.069 499.658 525.625 498.868 527.016Z" fill="white"/>
<g opacity="0.72">
<path opacity="0.72" d="M494.805 519.17C494.555 520.676 493.932 522.066 493.012 523.179C492.573 523.753 492.085 524.276 491.555 524.74C491.275 524.975 489.762 526.354 489.482 526.183C487.501 525.039 485.008 522.174 484.69 519.352C484.639 518.912 484.639 518.466 484.69 518.027C484.786 517.4 485.043 516.821 485.427 516.362C485.812 515.904 486.307 515.586 486.849 515.449C487.391 515.313 487.957 515.365 488.474 515.597C488.991 515.829 489.436 516.232 489.752 516.754C490.123 516.167 490.657 515.74 491.265 515.544C491.874 515.348 492.525 515.394 493.108 515.674C493.692 515.954 494.176 516.452 494.48 517.087C494.785 517.722 494.893 518.456 494.787 519.17H494.805Z" fill="#BEAA71"/>
</g>
<path d="M341.078 129.733L341.321 168.42C341.384 175.167 343.723 181.627 347.85 186.446C351.977 191.265 357.573 194.073 363.466 194.279L396.922 194.942C399.799 194.992 402.656 194.381 405.323 193.144C407.989 191.906 410.411 190.068 412.445 187.739C414.48 185.411 416.084 182.638 417.164 179.585C418.244 176.533 418.777 173.262 418.731 169.97L418.479 131.283C418.421 124.535 416.084 118.076 411.958 113.257C407.831 108.439 402.236 105.635 396.343 105.434L362.887 104.761C360.011 104.71 357.153 105.322 354.487 106.559C351.82 107.796 349.398 109.633 347.364 111.963C345.33 114.292 343.725 117.065 342.646 120.117C341.566 123.17 341.033 126.44 341.078 129.733Z" fill="white"/>
<path d="M346.225 139.441L346.402 167.449C346.457 173.308 348.49 178.916 352.074 183.099C355.658 187.283 360.517 189.72 365.633 189.898L394.69 190.475C397.188 190.519 399.67 189.988 401.985 188.914C404.302 187.84 406.406 186.245 408.174 184.224C409.942 182.202 411.337 179.795 412.278 177.145C413.219 174.495 413.686 171.657 413.65 168.796V166.904C409.568 157.347 401.62 143.044 393.102 151.596C380.876 163.889 375.281 154.536 368.155 142.467C362.205 132.365 353.155 124.989 346.225 139.441Z" fill="#BEAA71"/>
<path d="M400.892 135.573C404.583 132.767 405.534 126.975 403.015 122.638C400.498 118.301 395.465 117.06 391.774 119.866C388.084 122.673 387.133 128.464 389.651 132.801C392.168 137.138 397.201 138.379 400.892 135.573Z" fill="#BEAA71"/>
<path d="M535.425 145.385C530.197 145.383 525.095 147.233 520.823 150.683C516.55 154.132 513.314 159.011 511.561 164.648C509.808 170.286 509.622 176.407 511.031 182.17C512.439 187.933 515.371 193.057 519.426 196.836L453.112 351.531C452.703 351.457 452.292 351.411 451.879 351.392C450.821 351.408 449.771 351.595 448.759 351.948L405.618 290.598C407.544 287.556 408.635 283.925 408.751 280.171C408.867 276.416 408.003 272.706 406.27 269.516C404.536 266.325 402.013 263.798 399.018 262.257C396.025 260.714 392.698 260.229 389.461 260.86C386.226 261.491 383.228 263.211 380.849 265.802C378.471 268.392 376.821 271.733 376.109 275.401C375.397 279.069 375.657 282.897 376.853 286.395C378.05 289.894 380.13 292.905 382.828 295.045L352.595 393.521C349.959 393.702 347.458 394.922 345.519 396.972C343.58 399.024 342.32 401.78 341.955 404.774C341.59 407.767 342.141 410.814 343.516 413.394C344.891 415.975 347.004 417.931 349.496 418.93C351.988 419.93 354.705 419.912 357.187 418.878C359.669 417.844 361.761 415.859 363.109 413.26C364.456 410.661 364.977 407.608 364.58 404.62C364.184 401.631 362.896 398.892 360.935 396.867L391.169 298.38C391.542 298.38 391.907 298.445 392.28 298.445C394.528 298.445 396.752 297.921 398.818 296.905L441.95 358.234C441.042 360.12 440.56 362.237 440.549 364.391C440.505 366.138 440.769 367.876 441.322 369.504C441.876 371.132 442.709 372.616 443.773 373.869C444.836 375.122 446.109 376.117 447.515 376.798C448.921 377.478 450.432 377.828 451.958 377.828C453.484 377.828 454.995 377.478 456.401 376.798C457.807 376.117 459.08 375.122 460.144 373.869C461.207 372.616 462.041 371.132 462.594 369.504C463.147 367.876 463.411 366.138 463.367 364.391C463.359 361.487 462.497 358.67 460.92 356.395L527.234 201.7C530.72 203.105 534.431 203.619 538.109 203.207C541.787 202.796 545.342 201.467 548.523 199.316C551.706 197.164 554.437 194.242 556.527 190.753C558.616 187.265 560.014 183.296 560.621 179.124C561.228 174.951 561.029 170.678 560.04 166.603C559.05 162.528 557.293 158.75 554.891 155.535C552.49 152.32 549.503 149.746 546.141 147.991C542.778 146.238 539.12 145.349 535.425 145.385Z" fill="#9B8B5E"/>
<path d="M615.562 201.13H704.292" stroke="white" stroke-width="4.65" stroke-miterlimit="10"/>
<path d="M615.562 216.814H704.292" stroke="white" stroke-width="4.65" stroke-miterlimit="10"/>
<path d="M615.562 232.486H704.292" stroke="white" stroke-width="4.65" stroke-miterlimit="10"/>
<path d="M615.562 248.159H704.292" stroke="white" stroke-width="4.65" stroke-miterlimit="10"/>
<path d="M615.562 263.839H704.292" stroke="white" stroke-width="4.65" stroke-miterlimit="10"/>
<path d="M615.562 355.388H704.292" stroke="white" stroke-width="4.65" stroke-miterlimit="10"/>
<path d="M615.562 369.223H704.292" stroke="white" stroke-width="4.65" stroke-miterlimit="10"/>
<path d="M685.649 475.148C686.541 475.995 687.256 477.059 687.741 478.264C688.225 479.468 688.468 480.782 688.451 482.107L688.246 513.461C688.239 514.644 688.027 515.815 687.624 516.904C687.22 517.995 686.634 518.982 685.896 519.811C685.158 520.64 684.285 521.295 683.326 521.737C682.366 522.179 681.341 522.4 680.307 522.387L639.211 521.981C637.127 521.958 635.136 520.99 633.675 519.288C632.214 517.586 631.404 515.291 631.421 512.905L631.664 481.53C631.743 479.166 632.608 476.927 634.081 475.27C635.555 473.612 637.528 472.663 639.594 472.615L680.69 473.021C682.51 473.039 684.267 473.793 685.649 475.148Z" fill="white"/>
<path d="M679.84 480.881L660.674 499.727C660.43 499.966 660.119 500.096 659.796 500.096C659.475 500.096 659.163 499.966 658.919 499.727L639.407 480.485C639.192 480.277 639.038 479.998 638.969 479.685C638.9 479.373 638.919 479.043 639.022 478.743C639.125 478.444 639.308 478.188 639.545 478.013C639.782 477.839 640.06 477.753 640.341 477.77L679.018 478.166C679.29 478.175 679.552 478.28 679.771 478.465C679.991 478.65 680.155 478.905 680.244 479.199C680.333 479.493 680.342 479.812 680.27 480.112C680.198 480.412 680.048 480.68 679.84 480.881Z" fill="#BEAA71"/>
<path d="M661.216 289.035C657.121 289.031 653.118 290.416 649.712 293.017C646.306 295.617 643.65 299.316 642.08 303.644C640.511 307.972 640.098 312.736 640.895 317.333C641.692 321.929 643.662 326.152 646.555 329.467C649.45 332.782 653.137 335.041 657.152 335.957C661.167 336.872 665.33 336.405 669.114 334.612C672.897 332.819 676.13 329.783 678.405 325.887C680.681 321.991 681.895 317.411 681.895 312.724C681.896 309.614 681.362 306.536 680.324 303.662C679.285 300.789 677.762 298.177 675.842 295.978C673.922 293.778 671.641 292.033 669.133 290.842C666.623 289.65 663.933 289.036 661.216 289.035ZM661.216 330.726C660.414 330.726 659.644 330.362 659.076 329.712C658.508 329.062 658.19 328.181 658.19 327.262C658.19 326.344 658.508 325.462 659.076 324.813C659.644 324.163 660.414 323.799 661.216 323.799C662.018 323.799 662.788 324.163 663.356 324.813C663.924 325.462 664.242 326.344 664.242 327.262C664.242 328.181 663.924 329.062 663.356 329.712C662.788 330.362 662.018 330.726 661.216 330.726ZM665.017 304.087C664.382 309.228 663.841 314.627 662.505 319.608C662.381 319.879 662.194 320.107 661.965 320.265C661.736 320.423 661.474 320.506 661.207 320.506C660.94 320.506 660.677 320.423 660.448 320.265C660.219 320.107 660.033 319.879 659.908 319.608C658.961 315.856 658.238 312.035 657.742 308.17C657.321 305.369 655.874 300.805 657.265 298.089C658.47 295.641 661.879 295.353 663.803 296.625C666.26 298.132 665.307 301.457 665.017 304.044V304.087Z" fill="white"/>
<path d="M535.789 196.193C546.054 196.193 554.376 186.67 554.376 174.92C554.376 163.172 546.054 153.647 535.789 153.647C525.525 153.647 517.203 163.172 517.203 174.92C517.203 186.67 525.525 196.193 535.789 196.193Z" fill="white"/>
<path d="M661.067 144.443C664.497 144.443 667.278 141.261 667.278 137.334C667.278 133.409 664.497 130.226 661.067 130.226C657.636 130.226 654.855 133.409 654.855 137.334C654.855 141.261 657.636 144.443 661.067 144.443Z" fill="white"/>
<path d="M643.722 169.478C643.722 164.213 645.55 159.163 648.802 155.441C652.055 151.718 656.467 149.627 661.067 149.627C665.667 149.627 670.078 151.718 673.331 155.441C676.584 159.163 678.411 164.213 678.411 169.478H643.722Z" fill="white"/>
<path d="M541.608 848.989C541.604 850.604 541.17 852.179 540.364 853.504C539.559 854.83 538.418 855.842 537.097 856.408L472.044 884.202C472.044 884.202 468.943 877.617 463.535 866.617L426.381 795.475C416.34 854.591 405.141 913.781 398.202 950.672L391.514 987.403L418.32 997.494C419.931 997.939 421.366 998.99 422.393 1000.48C423.422 1001.97 423.984 1003.81 423.989 1005.7C423.987 1006.99 423.729 1008.26 423.235 1009.42C422.741 1010.57 422.023 1011.58 421.137 1012.38C420.251 1013.17 419.219 1013.72 418.119 1013.99C417.02 1014.26 415.88 1014.24 414.79 1013.93L352.66 995.902V978.52L351.184 978.188L352.464 775.431L291.754 759.001C284.142 761.716 276.1 764.207 267.881 766.227C267.792 766.241 267.705 766.262 267.619 766.291C247.67 772.277 226.832 773.305 206.508 769.306C206.33 769.306 206.125 769.21 205.957 769.167C204.481 768.846 203.005 768.472 201.557 768.098C201.118 768.002 200.689 767.905 200.25 767.766C198.98 767.435 197.709 767.007 196.439 766.612C195.739 766.377 195.047 766.184 194.384 765.949C193.721 765.714 193.226 765.522 192.647 765.286C181.708 761.356 171.605 754.856 162.983 746.205C156.372 739.852 150.767 732.244 146.414 723.713C144.546 720.335 142.799 716.786 141.174 713.14C131.311 690.852 129.256 683.273 132.124 683.07C125.809 680.523 119.692 677.377 113.836 673.662C113.836 673.662 100.928 587.447 129.079 500.677C128.54 495.309 128.637 489.883 129.369 484.546C135.299 435.863 167.943 385.823 206.891 365.555C227.756 354.694 261.782 338.028 250.789 304.847C247.314 294.349 242.383 285.305 241.449 274.412C241.364 273.343 241.252 272.392 241.187 271.333C239.627 245.677 252.675 221.315 273.802 212.538C280.715 209.559 288.104 208.304 295.475 208.858C302.846 209.411 310.028 211.759 316.542 215.745C318.792 217.104 320.81 218.915 322.501 221.09C328.927 221.283 336.997 222.576 340.789 224.597C347.215 228.039 352.361 234.068 356.209 240.856C363.307 253.509 366.157 268.678 364.232 283.552C363.126 291.783 360.564 299.669 356.704 306.728C354.801 310.264 352.592 313.574 350.11 316.606C347.934 319.214 344.842 323.02 341.863 324.42C341.896 324.45 341.938 324.467 341.98 324.467C342.022 324.467 342.064 324.45 342.096 324.42L341.228 340.316C359.067 335.666 406.729 316.509 441.67 237.414C444.192 231.289 446.788 225.195 449.516 219.166C457.585 201.218 466.234 183.365 477.694 167.929C480.496 164.188 484.643 160.81 489.099 162.434C493.003 163.856 495.637 168.848 492.919 173.039L474.164 202.372L480.151 201.485C480.804 201.666 481.414 202.007 481.939 202.485C482.464 202.963 482.893 203.566 483.193 204.254C483.494 204.941 483.66 205.695 483.68 206.462C483.699 207.231 483.572 207.994 483.308 208.701L479.516 219.006L481.309 216.59C482.543 214.922 484.291 213.865 486.191 213.64C488.09 213.414 489.991 214.037 491.497 215.379C493.004 216.721 493.999 218.678 494.275 220.84C494.549 223.002 494.084 225.202 492.975 226.981L483.093 241.594C481.769 243.523 480.088 245.094 478.171 246.191L458.613 256.987C464.397 265.126 469.776 273.631 474.724 282.462C463.985 306.02 451.396 328.412 437.112 349.36C413.034 384.861 378.364 424.543 336.035 441.133C335.101 470.478 330.571 499.554 323.538 528C345.496 528 366.446 528 387.629 528L403.6 478.121C404.334 475.819 405.669 473.832 407.423 472.428C409.177 471.025 411.267 470.272 413.407 470.274H477.246C478.357 470.279 479.457 470.526 480.487 471.001C482.052 471.741 483.39 472.995 484.332 474.604C485.276 476.214 485.78 478.107 485.783 480.045C485.772 481.233 485.576 482.41 485.204 483.519L480.973 496.112H480.833H462.834L455.512 520.122L457.595 514.061H466.599C468.009 514.061 469.397 514.459 470.64 515.22C471.883 515.983 472.942 517.085 473.723 518.429C474.504 519.772 474.983 521.316 475.117 522.923C475.251 524.529 475.035 526.149 474.491 527.637L466.823 548.632C464.511 554.954 460.845 560.508 456.163 564.78C451.482 569.053 445.935 571.907 440.036 573.08L439.223 573.24L437.719 578.329L438.494 576.576C438.242 577.271 437.953 578.03 437.691 578.863H457.884C457.884 578.863 453.401 593.829 445.154 594.727C444.487 594.787 443.817 594.762 443.155 594.653H401.312C403.656 597.635 406.29 601.248 409.102 605.492C421.244 605.289 438.905 606.775 443.277 616.482C444.028 617.447 444.716 618.475 445.331 619.56C447.003 622.767 447.554 630.25 447.153 641.058C447.27 652.203 446.454 663.337 444.715 674.304C446.832 678.85 448.868 683.422 450.823 688.019C455.075 697.113 458.91 706.454 462.311 716.005C462.428 716.259 462.525 716.523 462.601 716.797C472.797 743.557 481.741 770.919 489.397 798.767L489.827 800.489C495.618 820.03 500.335 837.786 502.128 848.594L532.483 841.474C533.524 841.078 534.632 840.972 535.717 841.161C536.802 841.351 537.831 841.832 538.722 842.565C539.612 843.299 540.338 844.263 540.839 845.38C541.342 846.496 541.605 847.733 541.608 848.989Z" fill="white"/>
<path d="M436.86 580.145H457.053C456.224 582.752 455.17 585.259 453.905 587.628C451.412 592.096 447.563 596.768 442.473 595.977H381.212C378.83 595.995 376.511 595.108 374.618 593.454C374.199 591.233 374.318 588.922 374.964 586.773C399.705 582.433 425.054 577.761 436.393 575.078L438.532 574.65L436.86 580.145Z" fill="#BEAA71"/>
<path d="M484.952 481.455C484.94 482.643 484.744 483.82 484.372 484.929L480.151 497.511H462.143L454.746 521.671L452.056 529.389H393.364L406.963 486.992C407.7 484.692 409.038 482.706 410.793 481.302C412.549 479.9 414.638 479.147 416.779 479.146H480.608C481.72 479.148 482.82 479.395 483.849 479.873C484.207 480.04 484.557 480.229 484.896 480.439C484.924 480.76 484.952 481.124 484.952 481.455Z" fill="#BEAA71"/>
<path d="M484.961 481.444C484.949 482.632 484.753 483.809 484.382 484.919L480.151 497.501H462.153L468.41 478.066C469.102 475.911 470.433 474.104 472.173 472.96C473.913 471.817 475.948 471.412 477.923 471.815C479.898 472.218 481.685 473.403 482.971 475.164C484.258 476.925 484.963 479.148 484.961 481.444Z" fill="#BEAA71"/>
<path d="M457.044 580.146C457.044 580.146 451.253 599.623 440.736 595.433C434.198 592.857 435.179 585.406 436.888 580.103L457.044 580.146Z" fill="#BEAA71"/>
<path d="M442.249 497.503H412.894" stroke="white" stroke-width="4.65" stroke-linecap="round" stroke-linejoin="round"/>
<path d="M438.634 510.159H409.279" stroke="white" stroke-width="4.65" stroke-linecap="round" stroke-linejoin="round"/>
<path d="M461.63 717.298C456.546 703.229 450.617 689.581 443.884 676.451C446.611 659.914 448.47 630.944 442.557 617.795C438.186 608.078 420.543 606.603 408.364 606.806C398.958 592.578 391.356 585.244 391.356 585.244C391.356 585.244 334.737 595.742 321.81 595.828C308.883 595.913 308.893 604.112 308.893 604.112C308.893 604.112 299.889 635.209 289.708 650.656C279.528 666.104 252.143 684.865 212.681 692.091C173.22 699.317 142.183 690.413 135.066 685.88C127.949 681.348 127.715 685.72 140.455 714.444C153.195 743.168 172.809 763.821 205.751 770.63C226.069 774.635 246.902 773.606 266.844 767.616C266.844 767.616 318.971 752.575 334.26 741.105C349.55 729.634 351.941 745.231 351.941 745.231L350.446 979.534L390.795 988.749L425.652 796.832L462.825 868.027L501.446 849.854C496.898 822.52 473.538 750.437 461.63 717.298Z" fill="#2E2E2E"/>
<path d="M356.181 404.008C355.353 410.516 352.935 416.623 349.204 421.625C346.338 425.817 342.691 429.225 338.528 431.599C337.551 432.139 336.536 432.582 335.493 432.925C335.493 429.215 335.437 425.442 335.259 421.764C334.596 407.985 332.168 393.639 324.5 383.045C320.81 377.983 316.154 373.961 310.891 371.286C311.041 368.742 311.218 366.219 311.358 363.675C311.76 359.324 311.741 354.936 311.302 350.59C310.807 347.953 310.526 345.269 310.462 342.573C310.546 340.061 310.228 330.418 311.965 328.334C314.864 329.716 317.969 330.443 321.109 330.472C328.142 330.407 333.728 325.469 337.492 319.151C338.876 318.633 340.315 318.331 341.769 318.253C346.028 318.98 333.317 332.096 337.464 330.611C334.764 331.562 332.794 336.201 331.523 338.853C329.655 342.958 328.572 347.789 330.403 352.13C332.196 356.277 335.951 359.848 338.612 363.258C342.201 367.57 345.558 372.129 348.662 376.909C353.575 384.734 357.162 394.344 356.181 404.008Z" fill="#BEAA71"/>
<path d="M291.539 365.832C298.227 366.308 304.787 368.146 310.91 371.263C316.169 373.939 320.822 377.963 324.509 383.022C332.177 393.626 334.606 407.961 335.269 421.741C335.446 425.45 335.53 429.224 335.502 432.901C335.362 465.527 330.618 497.811 322.828 529.378C347.019 529.378 369.967 529.378 393.345 529.378H452.056L454.746 521.671L456.894 515.471H465.954C467.365 515.471 468.754 515.869 469.998 516.632C471.242 517.395 472.302 518.497 473.084 519.842C473.867 521.186 474.346 522.731 474.481 524.339C474.615 525.947 474.4 527.567 473.856 529.058L466.188 550.053C463.87 556.371 460.201 561.921 455.519 566.191C450.835 570.462 445.29 573.315 439.391 574.49L438.579 574.661L436.44 575.089C425.101 577.772 399.752 582.443 375.011 586.784C352.38 590.792 330.244 594.502 319.774 596.223C315.804 596.886 311.751 597.377 307.632 597.677C283.189 599.398 257.952 593.176 251.414 561.331C247.155 540.934 248.089 518.945 248.285 497.715" stroke="black" stroke-width="4.65" stroke-miterlimit="10"/>
<path d="M408.56 607.725C424.382 606.892 438.56 609.575 444.64 620.906C447.704 626.636 446.957 646.84 443.8 675.019" stroke="black" stroke-width="4.65" stroke-miterlimit="10"/>
<path d="M143.5 720.431C143.535 720.479 143.563 720.534 143.584 720.591C150.356 736.391 162.264 750.032 177.498 759.578C231.175 793.187 311.91 753.805 340.948 737.417C342.107 736.764 343.392 736.461 344.682 736.534C345.972 736.609 347.223 737.058 348.32 737.841C349.415 738.623 350.318 739.713 350.944 741.006C351.57 742.299 351.897 743.753 351.894 745.232V997.27L414.014 1015.28C414.976 1015.56 415.978 1015.62 416.959 1015.45C417.941 1015.28 418.882 1014.88 419.726 1014.28C420.57 1013.68 421.3 1012.89 421.869 1011.96C422.44 1011.03 422.841 1009.98 423.046 1008.87C423.455 1006.71 423.109 1004.45 422.08 1002.58C421.052 1000.71 419.423 999.375 417.545 998.863L390.749 988.761C391.991 978.798 410.166 887.687 425.615 796.843" stroke="black" stroke-width="4.65" stroke-miterlimit="10"/>
<path d="M390.16 584.058C406.038 599.451 417.442 623.119 428.118 643.227C454.13 692.219 473.585 745.541 488.697 800.102C493.264 816.586 497.467 833.242 501.437 849.897L531.773 842.766C533.494 842.126 535.367 842.282 536.989 843.201C538.612 844.121 539.856 845.73 540.455 847.685C541.054 849.64 540.961 851.787 540.195 853.664C539.43 855.542 538.053 857.002 536.359 857.732L471.306 885.526C471.306 885.526 452.271 844.829 425.671 796.799C386.686 726.331 314.646 617.72 295.63 640.886" stroke="black" stroke-width="4.65" stroke-miterlimit="10"/>
<path d="M333.41 342.913C333.41 342.913 397.202 337.856 440.932 238.771C440.932 238.771 454.755 249.685 474.024 283.829C474.024 283.829 419.964 409.405 335.269 442.544" stroke="black" stroke-width="4.65" stroke-miterlimit="10"/>
<path d="M327.638 227.053L331.374 233.553L333.625 237.508C335.909 243.597 337.916 249.817 339.64 256.141L339.752 256.59L344.03 275.297C344.037 275.319 344.037 275.341 344.03 275.361C345.467 278.07 347.45 280.346 349.811 282C350.37 282.345 350.89 282.765 351.362 283.251C353.93 286.201 347.159 287.056 345.758 288.029C345.139 288.515 344.632 289.164 344.28 289.921C343.927 290.679 343.738 291.523 343.731 292.38C335.689 330.682 340.863 320.623 337.408 329.143C340.406 326.235 347.859 316.988 347.859 316.988C348.793 316.293 349.671 314.209 350.278 313.172C352.207 309.785 353.867 306.207 355.238 302.482C359.499 291.355 360.483 278.944 358.04 267.119C354.182 248.743 345.188 230.357 327.638 227.053Z" fill="#BEAA71"/>
<path d="M326.872 238.611C326.188 242.586 324.541 246.261 322.118 249.216C319.487 252.507 316.424 255.31 313.039 257.522C306.67 261.862 299.581 265.144 294.229 271.002C288.87 276.9 285.663 284.901 285.253 293.398C284.879 302.099 287.597 311.111 289.25 319.257C294.49 345.586 292.809 370.889 289.914 397.39C287.168 422.394 281.321 446.863 269.982 468.628C256.607 494.284 234.649 514.82 209.935 525.36C189.387 534.136 149.459 541.919 134.356 517.503C131.75 509.795 131.722 500.976 132.731 492.67C138.662 443.945 171.305 393.937 210.253 373.669C231.118 362.808 265.144 346.121 254.151 312.928C250.648 302.463 245.745 293.43 244.811 282.494C244.727 281.5 244.643 280.506 244.559 279.447C242.989 253.791 256.037 229.439 277.165 220.652C284.076 217.664 291.466 216.405 298.838 216.959C306.21 217.511 313.393 219.864 319.904 223.859C322.216 225.267 324.286 227.143 326.013 229.397C326.131 229.549 326.238 229.714 326.33 229.888C326.462 230.267 326.568 230.656 326.648 231.054C327.163 233.53 327.24 236.1 326.872 238.611Z" fill="#BEAA71"/>
<path d="M335.549 431.801C346.832 428.819 356.732 419.572 359.562 406.06C362.196 393.542 358.03 380.692 351.576 370.622C345.589 361.322 333.121 353.518 334.101 340.327C334.419 336.051 336.268 332.309 338.678 328.995C339.547 327.841 340.443 326.772 341.424 325.681" stroke="black" stroke-width="4.65" stroke-miterlimit="10"/>
<path d="M312.283 328.032L311.76 371.679" stroke="black" stroke-width="4.65" stroke-miterlimit="10"/>
<path d="M250.079 306.15C246.595 295.674 241.673 286.641 240.739 275.715C240.645 274.71 240.561 273.706 240.496 272.637C238.917 246.981 251.975 222.639 273.092 213.842C280.006 210.857 287.397 209.599 294.771 210.152C302.144 210.705 309.328 213.057 315.842 217.049C318.148 218.462 320.211 220.342 321.931 222.597L322.37 223.206C323.895 225.34 325.004 227.822 325.621 230.486C326.238 233.151 326.349 235.936 325.948 238.653C325.268 242.617 323.63 246.284 321.221 249.236C318.581 252.534 315.513 255.347 312.124 257.574C305.754 261.915 298.675 265.175 293.304 271.033C287.943 276.947 284.744 284.972 284.356 293.482C283.974 302.184 286.701 311.185 288.326 319.352C293.566 345.681 291.894 370.974 288.998 397.464C286.253 422.468 280.415 446.948 269.058 468.713C255.683 494.369 233.734 514.915 209.011 525.444C188.061 534.381 146.984 542.292 132.553 516.133C127.706 507.357 127.388 496.25 128.64 485.966C134.571 437.252 167.233 387.223 206.162 366.965C227.065 355.976 261.091 339.332 250.079 306.15Z" stroke="black" stroke-width="4.65" stroke-miterlimit="10"/>
<path d="M330.281 276.527C332.287 276.527 333.914 274.666 333.914 272.368C333.914 270.072 332.287 268.21 330.281 268.21C328.275 268.21 326.648 270.072 326.648 272.368C326.648 274.666 328.275 276.527 330.281 276.527Z" fill="black"/>
<path d="M329.431 258.965C329.431 258.965 317.131 265.315 321.025 277.662" stroke="black" stroke-width="4.65" stroke-miterlimit="10"/>
<path d="M340.798 325.886C343.88 324.603 347.168 320.541 349.41 317.879C351.888 314.85 354.103 311.554 356.022 308.033C361.426 298.136 364.25 286.677 364.158 275.006C364.068 263.335 361.067 251.937 355.509 242.151C351.66 235.352 346.533 229.323 340.107 225.902C334.75 223.014 328.757 222.045 322.912 223.123C326.178 226.175 329.108 229.671 331.635 233.535C335.442 239.253 338.108 245.858 339.444 252.884C339.649 254.113 339.827 255.332 340.013 256.572C340.947 263.178 341.471 269.87 344.301 275.279C345.744 278.01 347.736 280.308 350.11 281.982C350.669 282.326 351.189 282.746 351.66 283.233C354.229 286.183 347.457 287.028 346.056 288C342.461 290.406 343.796 297.311 343.32 301.309C342.745 305.976 341.526 310.508 339.705 314.736C339.061 316.238 338.328 317.688 337.51 319.076C333.774 325.415 328.17 330.376 321.128 330.418C317.994 330.386 314.895 329.659 312.003 328.28C307.041 325.972 302.604 322.401 299.03 317.836" stroke="black" stroke-width="4.65" stroke-miterlimit="10"/>
<path d="M334.036 303.767C334.036 303.767 325.565 309.294 321.894 296.573" stroke="black" stroke-width="4.65" stroke-miterlimit="10"/>
<path d="M456.352 259.23L477.461 247.557C479.391 246.492 481.076 244.925 482.383 242.981L492.237 228.347C493.372 226.57 493.857 224.358 493.592 222.179C493.326 219.999 492.328 218.024 490.811 216.671C489.295 215.318 487.377 214.695 485.465 214.933C483.554 215.171 481.798 216.251 480.571 217.946L478.768 220.351L482.57 210.056C482.828 209.349 482.95 208.586 482.929 207.82C482.906 207.053 482.74 206.301 482.441 205.615C482.143 204.928 481.719 204.323 481.198 203.841C480.677 203.359 480.071 203.011 479.422 202.819L473.417 203.728L492.19 174.384C494.852 170.225 492.265 165.201 488.37 163.779C483.887 162.144 479.74 165.522 476.957 169.263C465.506 184.7 456.829 202.552 448.768 220.511C446.06 226.548 443.447 232.634 440.932 238.77" stroke="black" stroke-width="4.65" stroke-linejoin="round"/>
<path d="M473.426 203.728C473.426 203.728 461.181 221.163 478.778 220.351" stroke="black" stroke-width="4.65" stroke-miterlimit="10"/>
<path d="M439.335 574.478C439.335 574.478 430.257 591.336 440.829 595.473C451.402 599.61 457.184 580.155 457.184 580.155H436.776" stroke="black" stroke-width="4.65" stroke-miterlimit="10"/>
<path d="M442.585 595.968H400.481" stroke="black" stroke-width="4.65" stroke-miterlimit="10"/>
<path d="M485.092 481.444C485.079 482.632 484.883 483.809 484.513 484.919L480.291 497.501H462.293L468.541 478.066C469.232 475.911 470.565 474.104 472.304 472.96C474.043 471.817 476.079 471.412 478.054 471.815C480.028 472.218 481.816 473.403 483.103 475.164C484.389 476.925 485.094 479.148 485.092 481.444Z" stroke="black" stroke-width="4.65" stroke-miterlimit="10"/>
<path d="M397.212 497.502L386.938 529.369L402.881 479.521C403.619 477.217 404.958 475.228 406.718 473.825C408.478 472.42 410.572 471.671 412.716 471.675H476.546" stroke="black" stroke-width="4.65" stroke-miterlimit="10"/>
<path d="M452.075 529.37L462.293 497.503" stroke="black" stroke-width="4.65" stroke-miterlimit="10"/>
<path d="M128.397 502.012C100.237 588.783 113.145 675.019 113.145 675.019C155.679 702.107 215.988 699.756 259.185 675.949C274.465 667.504 290.941 654.783 297.61 636.139C302.504 622.488 307.594 608.944 311.788 595.101" stroke="black" stroke-width="4.65" stroke-miterlimit="10"/>
<path d="M104.113 772.749H351.931" stroke="black" stroke-width="4.65" stroke-miterlimit="10"/>
<path d="M322.847 529.401L320.175 539.738" stroke="black" stroke-width="4.65" stroke-miterlimit="10"/>
<path d="M143.584 720.593C143.584 720.593 132.675 698.315 129.126 683.488" stroke="black" stroke-width="4.65" stroke-miterlimit="10"/>
<path d="M197.429 91.0236V312.712H124.652C127.049 303.94 129.058 295.067 130.676 286.094C135.645 258.471 137.121 229.95 136.346 201.141C134.898 145.863 154.605 115.428 180.785 99.2335C186.11 95.9389 191.68 93.1915 197.429 91.0236Z" stroke="#A0977C" stroke-width="4.65" stroke-miterlimit="10"/>
<path d="M180.785 99.2332V286.094H130.648C135.617 258.471 137.093 229.95 136.317 201.141C134.898 145.863 154.605 115.45 180.785 99.2332Z" stroke="#A0977C" stroke-width="4.65" stroke-miterlimit="10"/>
</g>
</g>
<defs>
<clipPath id="clip0_390_936">
<rect width="934" height="1069" fill="white" transform="translate(-30)"/>
</clipPath>
</defs>
</svg>
