<svg width="82" height="82" viewBox="0 0 82 82" fill="none" xmlns="http://www.w3.org/2000/svg">
<path d="M52.2067 67.3767C51.1893 66.3839 50.3791 65.1991 49.8229 63.891C49.2667 62.5829 48.9755 61.1774 48.9663 59.756C48.9571 58.3345 49.23 56.9254 49.7692 55.6102C50.3084 54.295 51.1032 53.0998 52.1076 52.0939C53.1133 51.0884 54.3087 50.2927 55.6244 49.753C56.9402 49.2132 58.35 48.9402 59.7721 48.9497C61.1942 48.9593 62.6002 49.2512 63.9086 49.8085C65.217 50.3659 66.4016 51.1775 67.3938 52.1964M58.0082 40.9966H61.5854M59.7985 40.9966V49.0462M78.5902 57.9979V61.5752M78.5902 59.7883H70.5371C70.5371 62.6363 69.4057 65.3677 67.3918 67.3816C65.3779 69.3955 62.6466 70.5268 59.7985 70.5268V78.5799M74.3535 71.8115L71.8183 74.3398M73.0825 73.0757L67.3903 67.3767M61.5888 78.5799H58.0048M41.0068 61.5786V57.9945M41.0068 59.7883H49.0565M45.2469 47.765L47.7753 45.2367M46.5111 46.5008L52.2067 52.1964M78.5902 40.9966L41.0068 78.5799M29.0382 69.1807H13.6633C10.9448 69.1807 8.33765 68.1008 6.41541 66.1785C4.49316 64.2563 3.41325 61.6491 3.41325 58.9307V33.3091C3.41325 30.5906 4.49316 27.9835 6.41541 26.0612C8.33765 24.139 10.9448 23.0591 13.6633 23.0591H34.1633C36.8817 23.0591 39.4888 24.139 41.4111 26.0612C43.3333 27.9835 44.4133 30.5906 44.4133 33.3091V35.8716M3.41667 7.69433L5.53842 5.57258C6.48944 4.61948 7.61892 3.86309 8.86234 3.34661C10.1058 2.83013 11.4387 2.56368 12.7852 2.5625H36.7326" stroke="white" stroke-width="0.75" stroke-linecap="round" stroke-linejoin="round"/>
<path d="M23.9167 12.8193V2.56933M23.9167 33.3125V53.8091M13.6667 43.5625H34.1598M34.1632 23.0625H13.6632V17.9375C13.6632 16.5783 14.2032 15.2747 15.1643 14.3136C16.1255 13.3525 17.429 12.8125 18.7882 12.8125H29.0382C30.3975 12.8125 31.701 13.3525 32.6622 14.3136C33.6233 15.2747 34.1632 16.5783 34.1632 17.9375V23.0625Z" stroke="white" stroke-width="0.75" stroke-linecap="round" stroke-linejoin="round"/>
</svg>
