<svg width="82" height="66" viewBox="0 0 82 66" fill="none" xmlns="http://www.w3.org/2000/svg">
<path d="M79.95 45.1H78.3971C74.7443 45.1 72.9147 40.6835 75.4977 38.1005L76.597 37.0025C76.7874 36.8121 76.9384 36.5861 77.0414 36.3374C77.1444 36.0886 77.1975 35.822 77.1975 35.5528C77.1975 35.2835 77.1444 35.0169 77.0414 34.7682C76.9384 34.5194 76.7874 34.2934 76.597 34.103C76.4066 33.9127 76.1806 33.7616 75.9318 33.6586C75.6831 33.5556 75.4165 33.5025 75.1472 33.5025C74.878 33.5025 74.6114 33.5556 74.3626 33.6586C74.1139 33.7616 73.8879 33.9127 73.6975 34.103L72.5995 35.2023C70.0165 37.7853 65.6 35.9557 65.6 32.3029V30.75C65.6 30.2063 65.384 29.6849 64.9996 29.3004C64.6151 28.916 64.0937 28.7 63.55 28.7C63.0063 28.7 62.4849 28.916 62.1004 29.3004C61.716 29.6849 61.5 30.2063 61.5 30.75V32.3029C61.5 35.9557 57.0835 37.7853 54.5005 35.2023L53.4025 34.103C53.018 33.7185 52.4965 33.5025 51.9528 33.5025C51.409 33.5025 50.8875 33.7185 50.503 34.103C50.1185 34.4875 49.9025 35.009 49.9025 35.5528C49.9025 36.0965 50.1185 36.618 50.503 37.0025L51.6023 38.1005C54.1853 40.6835 52.3557 45.1 48.7029 45.1H47.15C46.6063 45.1 46.0849 45.316 45.7004 45.7004C45.316 46.0849 45.1 46.6063 45.1 47.15C45.1 47.6937 45.316 48.2151 45.7004 48.5996C46.0849 48.984 46.6063 49.2 47.15 49.2H48.7029C52.3557 49.2 54.1853 53.6165 51.6023 56.1995L50.503 57.2975C50.3126 57.4879 50.1616 57.7139 50.0586 57.9626C49.9556 58.2114 49.9025 58.478 49.9025 58.7472C49.9025 59.0165 49.9556 59.2831 50.0586 59.5318C50.1616 59.7806 50.3126 60.0066 50.503 60.197C50.6934 60.3873 50.9194 60.5384 51.1682 60.6414C51.4169 60.7444 51.6835 60.7975 51.9528 60.7975C52.222 60.7975 52.4886 60.7444 52.7374 60.6414C52.9861 60.5384 53.2121 60.3873 53.4025 60.197L54.5005 59.0977C57.0835 56.5147 61.5 58.3443 61.5 61.9971V63.55C61.5 64.0937 61.716 64.6151 62.1004 64.9996C62.4849 65.384 63.0063 65.6 63.55 65.6C64.0937 65.6 64.6151 65.384 64.9996 64.9996C65.384 64.6151 65.6 64.0937 65.6 63.55V61.9971C65.6 58.3443 70.0165 56.5147 72.5995 59.0977L73.6975 60.197C73.8879 60.3873 74.1139 60.5384 74.3626 60.6414C74.6114 60.7444 74.878 60.7975 75.1472 60.7975C75.4165 60.7975 75.6831 60.7444 75.9318 60.6414C76.1806 60.5384 76.4066 60.3873 76.597 60.197C76.7874 60.0066 76.9384 59.7806 77.0414 59.5318C77.1444 59.2831 77.1975 59.0165 77.1975 58.7472C77.1975 58.478 77.1444 58.2114 77.0414 57.9626C76.9384 57.7139 76.7874 57.4879 76.597 57.2975L75.4977 56.1995C72.9147 53.6165 74.7443 49.2 78.3971 49.2H79.95C80.4937 49.2 81.0151 48.984 81.3996 48.5996C81.784 48.2151 82 47.6937 82 47.15C82 46.6063 81.784 46.0849 81.3996 45.7004C81.0151 45.316 80.4937 45.1 79.95 45.1ZM61.5 49.2C60.6891 49.2 59.8964 48.9595 59.2222 48.509C58.5479 48.0585 58.0224 47.4182 57.7121 46.669C57.4018 45.9198 57.3206 45.0955 57.4788 44.3001C57.637 43.5048 58.0275 42.7743 58.6009 42.2009C59.1743 41.6275 59.9048 41.237 60.7001 41.0788C61.4955 40.9206 62.3198 41.0018 63.069 41.3121C63.8182 41.6224 64.4585 42.1479 64.909 42.8222C65.3595 43.4964 65.6 44.2891 65.6 45.1C65.6 46.1874 65.168 47.2302 64.3991 47.9991C63.6302 48.768 62.5874 49.2 61.5 49.2ZM44.3966 27.3329H46.4671C47.1919 27.3329 47.887 27.045 48.3995 26.5325C48.9121 26.0199 49.2 25.3248 49.2 24.6C49.2 23.8752 48.9121 23.1801 48.3995 22.6675C47.887 22.155 47.1919 21.8671 46.4671 21.8671H44.3966C39.5278 21.8671 37.0871 15.9733 40.5311 12.5345L41.9955 11.0687C42.5051 10.5555 42.7904 9.86127 42.7891 9.13807C42.7877 8.41487 42.4998 7.72169 41.9883 7.2104C41.4769 6.6991 40.7836 6.41138 40.0604 6.41027C39.3372 6.40916 38.643 6.69475 38.13 7.20447L36.6655 8.66894C33.2215 12.1129 27.3329 9.67472 27.3329 4.80341V2.73291C27.3329 2.00809 27.045 1.31297 26.5325 0.80045C26.0199 0.28793 25.3248 0 24.6 0C23.8752 0 23.1801 0.28793 22.6675 0.80045C22.155 1.31297 21.8671 2.00809 21.8671 2.73291V4.80341C21.8671 9.67216 15.9733 12.1129 12.5345 8.66894L11.07 7.20447C10.557 6.69475 9.86281 6.40916 9.13961 6.41027C8.41641 6.41138 7.72314 6.6991 7.21168 7.2104C6.70021 7.72169 6.41226 8.41487 6.41091 9.13807C6.40956 9.86127 6.69492 10.5555 7.20447 11.0687L8.66894 12.5345C12.1129 15.9785 9.67472 21.8671 4.80341 21.8671H2.73291C2.00809 21.8671 1.31297 22.155 0.80045 22.6675C0.28793 23.1801 0 23.8752 0 24.6C0 25.3248 0.28793 26.0199 0.80045 26.5325C1.31297 27.045 2.00809 27.3329 2.73291 27.3329H4.80341C9.67216 27.3329 12.1129 33.2267 8.66894 36.6655L7.20447 38.13C6.69187 38.6426 6.40389 39.3378 6.40389 40.0628C6.40389 40.7877 6.69187 41.4829 7.20447 41.9955C7.71707 42.5081 8.41231 42.7961 9.13723 42.7961C9.86216 42.7961 10.5574 42.5081 11.07 41.9955L12.5345 40.5311C15.9785 37.0871 21.8671 39.5253 21.8671 44.3966V46.4671C21.8671 47.1919 22.155 47.887 22.6675 48.3995C23.1801 48.9121 23.8752 49.2 24.6 49.2C25.3248 49.2 26.0199 48.9121 26.5325 48.3995C27.045 47.887 27.3329 47.1919 27.3329 46.4671V44.3966C27.3329 39.5278 33.2267 37.0871 36.6655 40.5311L38.13 41.9955C38.6426 42.5081 39.3378 42.7961 40.0628 42.7961C40.7877 42.7961 41.4829 42.5081 41.9955 41.9955C42.5081 41.4829 42.7961 40.7877 42.7961 40.0628C42.7961 39.3378 42.5081 38.6426 41.9955 38.13L40.5311 36.6655C37.0871 33.2215 39.5253 27.3329 44.3966 27.3329ZM20.5 24.6C19.6891 24.6 18.8964 24.3595 18.2222 23.909C17.5479 23.4585 17.0224 22.8182 16.7121 22.069C16.4018 21.3198 16.3206 20.4955 16.4788 19.7001C16.637 18.9048 17.0275 18.1743 17.6009 17.6009C18.1743 17.0275 18.9048 16.637 19.7001 16.4788C20.4955 16.3206 21.3198 16.4018 22.069 16.7121C22.8182 17.0224 23.4585 17.5479 23.909 18.2222C24.3595 18.8964 24.6 19.6891 24.6 20.5C24.6 21.5874 24.168 22.6302 23.3991 23.3991C22.6302 24.168 21.5874 24.6 20.5 24.6ZM30.75 28.7C30.3445 28.7 29.9482 28.5798 29.6111 28.3545C29.274 28.1293 29.0112 27.8091 28.856 27.4345C28.7009 27.0599 28.6603 26.6477 28.7394 26.2501C28.8185 25.8524 29.0137 25.4871 29.3004 25.2004C29.5871 24.9137 29.9524 24.7185 30.3501 24.6394C30.7477 24.5603 31.1599 24.6009 31.5345 24.756C31.9091 24.9112 32.2293 25.174 32.4545 25.5111C32.6798 25.8482 32.8 26.2445 32.8 26.65C32.8 27.1937 32.584 27.7151 32.1996 28.0996C31.8151 28.484 31.2937 28.7 30.75 28.7Z" fill="white"/>
</svg>
