<svg width="82" height="82" viewBox="0 0 82 82" fill="none" xmlns="http://www.w3.org/2000/svg">
<path fill-rule="evenodd" clip-rule="evenodd" d="M34.1667 11.9583C34.1667 11.5053 34.3467 11.0707 34.667 10.7504C34.9874 10.43 35.4219 10.25 35.875 10.25H42.7083C43.1614 10.25 43.5959 10.43 43.9163 10.7504C44.2367 11.0707 44.4167 11.5053 44.4167 11.9583C44.4167 12.4114 44.2367 12.8459 43.9163 13.1663C43.5959 13.4867 43.1614 13.6667 42.7083 13.6667H41V18.8617C45.2483 19.2115 49.2806 20.8823 52.5313 23.6399L52.5791 23.5887L56.2042 19.9636L54.9947 18.7558C54.6743 18.4352 54.4945 18.0006 54.4946 17.5474C54.4948 17.0942 54.675 16.6597 54.9955 16.3394C55.3161 16.019 55.7507 15.8392 56.2039 15.8393C56.6571 15.8395 57.0916 16.0197 57.412 16.3402L62.2431 21.1714C62.4019 21.33 62.5278 21.5183 62.6137 21.7256C62.6997 21.9329 62.7439 22.155 62.744 22.3794C62.7441 22.6038 62.7 22.826 62.6142 23.0333C62.5284 23.2407 62.4026 23.4291 62.244 23.5878C62.0854 23.7465 61.8971 23.8725 61.6898 23.9584C61.4825 24.0443 61.2603 24.0886 61.0359 24.0887C60.8116 24.0888 60.5893 24.0447 60.382 23.9589C60.1747 23.8731 59.9863 23.7473 59.8275 23.5887L58.6197 22.3809L54.9947 26.0025L54.9434 26.0538C57.8728 29.5066 59.5711 33.8353 59.7712 38.3589C58.1188 37.8433 56.3976 37.5818 54.6667 37.5833C45.2315 37.5833 37.5833 45.2315 37.5833 54.6667C37.5833 56.4433 37.855 58.1585 38.3589 59.7712C33.8355 59.5716 29.5068 57.8739 26.0538 54.9451L26.0435 54.9537L26.0043 54.9964L22.3809 58.618L23.5887 59.8275C23.7473 59.9863 23.8731 60.1747 23.9589 60.382C24.0447 60.5893 24.0888 60.8116 24.0887 61.0359C24.0886 61.2603 24.0443 61.4825 23.9584 61.6898C23.8725 61.8971 23.7465 62.0854 23.5878 62.244C23.4291 62.4026 23.2407 62.5284 23.0333 62.6142C22.826 62.7 22.6038 62.7441 22.3794 62.744C22.155 62.7439 21.9329 62.6997 21.7256 62.6137C21.5183 62.5278 21.33 62.4019 21.1714 62.2431L16.3402 57.412C16.029 57.0898 15.8568 56.6582 15.8607 56.2103C15.8646 55.7624 16.0443 55.3339 16.361 55.0172C16.6778 54.7004 17.1062 54.5208 17.5541 54.5169C18.0021 54.513 18.4336 54.6852 18.7558 54.9964L19.9636 56.2042L23.5887 52.5791L23.6399 52.5313C20.8817 49.2808 19.2103 45.2485 18.86 41H13.6667V42.7083C13.6667 43.1614 13.4867 43.5959 13.1663 43.9163C12.8459 44.2367 12.4114 44.4167 11.9583 44.4167C11.5053 44.4167 11.0707 44.2367 10.7504 43.9163C10.43 43.5959 10.25 43.1614 10.25 42.7083V35.875C10.25 35.4219 10.43 34.9874 10.7504 34.667C11.0707 34.3467 11.5053 34.1667 11.9583 34.1667C12.4114 34.1667 12.8459 34.3467 13.1663 34.667C13.4867 34.9874 13.6667 35.4219 13.6667 35.875V37.5833H18.8617C19.2115 33.335 20.8823 29.3027 23.6399 26.0521L23.6297 26.0435L23.5887 26.0043L19.9636 22.3809L18.7558 23.5887C18.4352 23.909 18.0006 24.0889 17.5474 24.0887C17.0942 24.0885 16.6597 23.9084 16.3394 23.5878C16.019 23.2673 15.8392 22.8326 15.8393 22.3794C15.8395 21.9262 16.0197 21.4917 16.3402 21.1714L21.1714 16.3402C21.33 16.1815 21.5183 16.0556 21.7256 15.9696C21.9329 15.8837 22.155 15.8394 22.3794 15.8393C22.6038 15.8392 22.826 15.8834 23.0333 15.9692C23.2407 16.055 23.4291 16.1807 23.5878 16.3394C23.7465 16.498 23.8725 16.6863 23.9584 16.8936C24.0443 17.1008 24.0886 17.323 24.0887 17.5474C24.0888 17.7718 24.0447 17.994 23.9589 18.2013C23.8731 18.4087 23.7473 18.5971 23.5887 18.7558L22.3809 19.9636L26.0025 23.5887L26.0538 23.6399C29.3037 20.882 33.3354 19.2106 37.5833 18.86V13.6667H35.875C35.4219 13.6667 34.9874 13.4867 34.667 13.1663C34.3467 12.8459 34.1667 12.4114 34.1667 11.9583ZM37.5833 34.1667C37.5833 35.5259 37.0434 36.8295 36.0823 37.7906C35.1211 38.7517 33.8176 39.2917 32.4583 39.2917C31.0991 39.2917 29.7955 38.7517 28.8344 37.7906C27.8733 36.8295 27.3333 35.5259 27.3333 34.1667C27.3333 32.8074 27.8733 31.5039 28.8344 30.5427C29.7955 29.5816 31.0991 29.0417 32.4583 29.0417C33.8176 29.0417 35.1211 29.5816 36.0823 30.5427C37.0434 31.5039 37.5833 32.8074 37.5833 34.1667Z" fill="white"/>
<path fill-rule="evenodd" clip-rule="evenodd" d="M41 54.6667C41.0003 52.4917 41.5197 50.3483 42.515 48.4144C43.5103 46.4806 44.9528 44.8122 46.7226 43.548C48.4924 42.2837 50.5383 41.4601 52.6904 41.1456C54.8425 40.8311 57.0386 41.0348 59.0961 41.7397C61.1536 42.4446 63.0132 43.6304 64.5203 45.1985C66.0274 46.7667 67.1385 48.6718 67.7612 50.7557C68.3839 52.8396 68.5003 55.0421 68.1006 57.18C67.701 59.3179 66.7968 61.3295 65.4633 63.0477L72.9578 70.5422C73.269 70.8644 73.4412 71.2959 73.4373 71.7439C73.4334 72.1918 73.2537 72.6202 72.937 72.937C72.6202 73.2537 72.1918 73.4334 71.7439 73.4373C71.2959 73.4412 70.8644 73.269 70.5422 72.9578L63.0477 65.4633C61.0276 67.0317 58.6078 68.0018 56.0637 68.2633C53.5195 68.5247 50.9531 68.067 48.6561 66.9422C46.3592 65.8174 44.424 64.0707 43.0705 61.9006C41.7171 59.7305 40.9997 57.2242 41 54.6667ZM54.6667 44.4167C51.9482 44.4167 49.3411 45.4966 47.4188 47.4188C45.4966 49.3411 44.4167 51.9482 44.4167 54.6667C44.4167 57.3851 45.4966 59.9923 47.4188 61.9145C49.3411 63.8368 51.9482 64.9167 54.6667 64.9167C57.3851 64.9167 59.9923 63.8368 61.9145 61.9145C63.8368 59.9923 64.9167 57.3851 64.9167 54.6667C64.9167 51.9482 63.8368 49.3411 61.9145 47.4188C59.9923 45.4966 57.3851 44.4167 54.6667 44.4167Z" fill="white"/>
</svg>
